<svg id="Слой_1" data-name="Слой 1" xmlns="http://www.w3.org/2000/svg" viewBox="0 0 124 64"><defs><style>.cls-1{fill:#dd738c;}.cls-2{fill:#2896e0;}.cls-3{fill:#b6bdcc;}.cls-4{fill:#15173f;}</style></defs><title>aircraft</title><path class="cls-1" d="M72.07,46C33.09,46,12.27,33.65,5,28.23a29.68,29.68,0,0,0-3,2.5S22.13,51,72.07,51,122,30.73,122,30.73a8.49,8.49,0,0,0-.53-2.5C119.6,33.65,111,46,72.07,46Z"/><path class="cls-2" d="M81.73,64H56a2,2,0,0,1-1.9-1.37L50,50.45a2,2,0,0,1,3.8-1.25L57.41,60h23l4.5-9.82a2,2,0,0,1,3.64,1.67l-5,11A2,2,0,0,1,81.73,64Z"/><path class="cls-3" d="M122,32.73A2,2,0,0,1,120,31c-.2-.51-4.06-8.36-47.94-8.36-48.71,0-69,9.83-69.17,9.93a2,2,0,0,1-1.8-3.57c.84-.42,21.13-10.35,71-10.35,48.19,0,51.93,9.29,51.93,12.14A2,2,0,0,1,122,32.73Zm-2-2h0Zm0,0h0Z"/><path class="cls-1" d="M31,45.94c-6.19-2.18-19.33-7.61-19.33-7.61v5.77a133,133,0,0,0,16.24,5.49"/><path class="cls-4" d="M11.66,25.5a2,2,0,0,1-2-2V8.76a2,2,0,0,1,2-2H25.36a2,2,0,0,1,1.54.73l5.85,7.1a2,2,0,0,1-3.09,2.54l-5.25-6.37H13.66V23.5A2,2,0,0,1,11.66,25.5Z"/><path class="cls-4" d="M72.07,53C21.88,53,1.43,33,.58,32.14a2,2,0,0,1,0-2.82c.85-.85,21.3-20.87,71.49-20.87C123.41,8.45,124,29.82,124,30.73S123.41,53,72.07,53Zm-67-22.28a66.15,66.15,0,0,0,14.32,8.42C29.45,43.65,46.78,49,72.07,49c24.78,0,36.54-5.11,42.05-9.39,5.7-4.43,5.88-8.74,5.88-8.92s-.19-4.43-5.88-8.86c-5.51-4.28-17.27-9.39-42.05-9.39C31.27,12.45,10.69,26.22,5.05,30.73Z"/><path class="cls-4" d="M25.36,54.7H11.66a2,2,0,0,1-2-2V38.34a2,2,0,1,1,4,0V50.7H24.41l5.25-6.37a2,2,0,0,1,3.09,2.54L26.9,54A2,2,0,0,1,25.36,54.7Z"/><path class="cls-3" d="M35,64H21.33a2,2,0,1,1,0-4H35a2,2,0,1,1,0,4Z"/><path class="cls-3" d="M13.28,64H11.66a2,2,0,0,1,0-4h1.61a2,2,0,0,1,0,4Z"/><path class="cls-3" d="M49.52,4H35.83a2,2,0,0,1,0-4H49.52a2,2,0,0,1,0,4Z"/><path class="cls-3" d="M62.4,4H56.77a2,2,0,0,1,0-4H62.4a2,2,0,0,1,0,4Z"/></svg>