<svg id="Слой_1" data-name="Слой 1" xmlns="http://www.w3.org/2000/svg" viewBox="0 0 108 124"><defs><style>.cls-1{fill:#dd738c;}.cls-2{fill:#2896e0;}.cls-3{fill:#15173f;}.cls-4{opacity:0.3;}</style></defs><title>bag</title><path class="cls-1" d="M80.18,60.26H27.82a11.92,11.92,0,0,1-11.89-12v8a11.92,11.92,0,0,0,11.89,12H80.18a11.92,11.92,0,0,0,11.89-12v-8A11.92,11.92,0,0,1,80.18,60.26Z"/><path class="cls-2" d="M66.69,17.43a2,2,0,0,1-2-2V12.29A8.27,8.27,0,0,0,56.46,4H53.33a2,2,0,0,1,0-4h3.13A12.27,12.27,0,0,1,68.69,12.29v3.14A2,2,0,0,1,66.69,17.43Z"/><path class="cls-2" d="M40,17.43a2,2,0,0,1-2-2V12.29A12.27,12.27,0,0,1,50.21,0h3.12a2,2,0,0,1,0,4H50.21A8.27,8.27,0,0,0,42,12.29v3.14A2,2,0,0,1,40,17.43Z"/><path class="cls-3" d="M66.85,61.26a2,2,0,0,1-2-2V15.53a2,2,0,1,1,4,0V59.26A2,2,0,0,1,66.85,61.26Z"/><path class="cls-3" d="M41.48,61.26a2,2,0,0,1-2-2V15.53a2,2,0,1,1,4,0V59.26A2,2,0,0,1,41.48,61.26Z"/><path class="cls-2" d="M73.36,39.93H60a2,2,0,1,1,0-4H73.36a2,2,0,0,1,0,4Z"/><path class="cls-2" d="M48,39.93H34.64a2,2,0,0,1,0-4H48a2,2,0,1,1,0,4Z"/><path class="cls-3" d="M80.06,62.26H27.94a14,14,0,0,1-14-14V27.43a14,14,0,0,1,14-14H80.06a14,14,0,0,1,14,14V48.26A14,14,0,0,1,80.06,62.26ZM27.94,17.43a10,10,0,0,0-10,10V48.26a10,10,0,0,0,10,10H80.06a10,10,0,0,0,10-10V27.43a10,10,0,0,0-10-10Z"/><path class="cls-3" d="M92.06,112a2,2,0,0,1-2-2V89.12a9.93,9.93,0,0,0-9.89-10H27.82a9.93,9.93,0,0,0-9.89,10V110a2,2,0,0,1-4,0V89.12a13.93,13.93,0,0,1,13.89-14H80.18a13.93,13.93,0,0,1,13.89,14V110A2,2,0,0,1,92.06,112Z"/><g class="cls-4"><path class="cls-3" d="M100.77,123.5H92.06a2,2,0,0,1,0-4h8.71c1.75,0,3.23-2.1,3.23-4.58V97.26a11.89,11.89,0,0,0-3.52-8.76l-9.77-8.83a2,2,0,0,1,2.68-3l9.77,8.84A15.93,15.93,0,0,1,108,97.26v17.66C108,119.65,104.76,123.5,100.77,123.5Z"/></g><g class="cls-4"><path class="cls-3" d="M15.94,123.5H7.23c-4,0-7.23-3.85-7.23-8.58V97.26A15.93,15.93,0,0,1,4.83,85.54L14.6,76.7a2,2,0,0,1,2.68,3L7.51,88.5A11.88,11.88,0,0,0,4,97.26v17.66c0,2.48,1.48,4.58,3.23,4.58h8.71a2,2,0,0,1,0,4Z"/></g><path class="cls-3" d="M92.13,124H15.87a2,2,0,0,1-2-2V49.3a2,2,0,0,1,4,0V120H90.13V49.3a2,2,0,1,1,4,0V122A2,2,0,0,1,92.13,124Z"/></svg>