<svg id="Слой_1" data-name="Слой 1" xmlns="http://www.w3.org/2000/svg" viewBox="0 0 102 82.5"><defs><style>.cls-1{fill:#2896e0;}.cls-2{fill:#dd738c;}.cls-3{fill:#15173f;}.cls-4{fill:#b6bdcc;}</style></defs><title>cafe</title><path class="cls-1" d="M35.56,82.5a2,2,0,0,1-2-2v-30H20.67v30a2,2,0,0,1-4,0v-32a2,2,0,0,1,2-2H35.56a2,2,0,0,1,2,2v32A2,2,0,0,1,35.56,82.5Z"/><path class="cls-2" d="M29.91,22.49c0,.07,0,.14,0,.21s0-.14,0-.21Z"/><path class="cls-2" d="M81,33.17A10.34,10.34,0,0,1,70.75,22.71a10.21,10.21,0,1,1-20.42,0,10.21,10.21,0,1,1-20.42,0A10.34,10.34,0,0,1,19.71,33.17,10.34,10.34,0,0,1,9.5,22.71v7.47h0c0,.07,0,.14,0,.21A10.34,10.34,0,0,0,19.71,40.85,10.34,10.34,0,0,0,29.92,30.39c0-.07,0-.14,0-.21h0c0,.07,0,.14,0,.21a10.21,10.21,0,1,0,20.42,0c0-.07,0-.14,0-.21h0c0,.07,0,.14,0,.21a10.21,10.21,0,1,0,20.42,0c0-.07,0-.14,0-.21h0c0,.07,0,.14,0,.21a10.21,10.21,0,1,0,20.42,0c0-.07,0-.14,0-.21h0V22.71A10.34,10.34,0,0,1,81,33.17Z"/><path class="cls-2" d="M9.5,22.49v.21c0-.07,0-.14,0-.21Z"/><path class="cls-2" d="M50.32,22.49c0,.07,0,.14,0,.21s0-.14,0-.21Z"/><path class="cls-2" d="M91.17,22.71v-.21h0C91.16,22.57,91.17,22.64,91.17,22.71Z"/><path class="cls-2" d="M70.74,22.49c0,.07,0,.14,0,.21s0-.14,0-.21Z"/><path class="cls-3" d="M91.17,82.5H9.5a2,2,0,0,1-2-2v-58a2,2,0,0,1,4,0v56H89.17v-56a2,2,0,1,1,4,0v58A2,2,0,0,1,91.17,82.5Z"/><path class="cls-3" d="M81,35.17a12.15,12.15,0,0,1-10.21-5.63,12.07,12.07,0,0,1-20.42,0,12.07,12.07,0,0,1-20.42,0,12.15,12.15,0,0,1-10.21,5.63A12.35,12.35,0,0,1,7.5,22.71s0-.08,0-.12,0-.06,0-.1V2a2,2,0,0,1,2-2H91.17a2,2,0,0,1,2,2V22.49s0,.07,0,.1,0,.08,0,.11A12.35,12.35,0,0,1,81,35.17ZM70.74,20.49a2,2,0,0,1,2,2.05s0,.15,0,.18a8.21,8.21,0,1,0,16.42,0,1.69,1.69,0,0,1,0-.19,2.07,2.07,0,0,1,0-.23V4H11.5V22.29a1.88,1.88,0,0,1,0,.26s0,.15,0,.18a8.34,8.34,0,0,0,8.21,8.44,8.35,8.35,0,0,0,8.21-8.46,1.69,1.69,0,0,1,0-.19,2,2,0,0,1,.58-1.43,2.07,2.07,0,0,1,2.87,0,2,2,0,0,1,.58,1.45s0,.15,0,.18a8.21,8.21,0,1,0,16.42,0s0-.13,0-.16a2,2,0,0,1,.57-1.45,2.07,2.07,0,0,1,2.87,0,2,2,0,0,1,.59,1.43s0,.18,0,.22a8.21,8.21,0,1,0,16.42,0s0-.13,0-.16a2,2,0,0,1,2-2.05Z"/><path class="cls-4" d="M82,70.63H43.16a2,2,0,0,1-2-2V48.5a2,2,0,0,1,2-2H82a2,2,0,0,1,2,2V68.63A2,2,0,0,1,82,70.63Zm-36.84-4H80V50.5H45.16Z"/><path class="cls-3" d="M100,82.5H2a2,2,0,0,1,0-4h98a2,2,0,0,1,0,4Z"/></svg>