<?xml version="1.0" encoding="utf-8"?>
<!-- Generator: Adobe Illustrator 21.1.0, SVG Export Plug-In . SVG Version: 6.00 Build 0)  -->
<svg version="1.1" id="Слой_1" xmlns="http://www.w3.org/2000/svg" xmlns:xlink="http://www.w3.org/1999/xlink" x="0px" y="0px"
	 viewBox="0 0 124 88" style="enable-background:new 0 0 124 88;" xml:space="preserve">
<style type="text/css">
	.st0{fill:#DD738C;}
	.st1{fill:#B6BDCC;}
	.st2{fill:#15173F;}
	.st3{fill:#2896E0;}
</style>
<title>car</title>
<ellipse class="st0" cx="26.4" cy="75.2" rx="10.9" ry="10.8"/>
<ellipse class="st0" cx="97.4" cy="75.2" rx="10.9" ry="10.8"/>
<path class="st1" d="M56.2,77.2c-1.1,0-2-0.9-2-2v-64c0-1.1,0.9-2,2-2s2,0.9,2,2v64C58.2,76.3,57.3,77.2,56.2,77.2z"/>
<path class="st2" d="M122.1,57.3c-1.7-2.5-4.4-4.3-7.5-4.8l-27.2-4.1l-4.5-10.6c-2.5-5.3-7.8-8.7-13.6-8.7H20.8
	c-7.1,0-13.4,4.4-15.9,11l-1.9,5c-2,5.4-3,11.1-3,16.8v8.8c0,3.6,2.9,6.5,6.5,6.5h7.3c1,6.1,6.2,10.8,12.5,10.8
	c6.4,0,11.7-4.7,12.7-10.8h45.4c1,6.1,6.2,10.8,12.5,10.8c6.4,0,11.7-4.7,12.7-10.8h7.4c2.4,0,4.5-1.7,5-4l1.6-7.3
	C124.4,62.9,123.8,59.8,122.1,57.3z M26.6,84c-4.9,0.1-8.9-3.8-8.9-8.7c-0.1-4.9,3.8-8.9,8.7-8.9c4.9,0,8.9,3.9,8.9,8.8
	C35.3,80,31.4,83.9,26.6,84z M97.2,84c-4.9,0.1-8.9-3.8-8.9-8.7c-0.1-4.9,3.8-8.9,8.7-8.9c4.8,0,8.7,3.8,8.9,8.6c0,0.1,0,0.2,0,0.3
	c0,0.1,0,0.2,0,0.3C105.8,80.2,102,83.9,97.2,84z M119.8,65l-1.6,7.3c-0.1,0.5-0.6,0.9-1.1,0.9h-7.4c-1-6.1-6.2-10.8-12.5-10.8
	c-6.4-0.1-11.8,4.6-12.7,10.8H39.1c-1-6.1-6.2-10.8-12.5-10.8c-6.4-0.1-11.8,4.6-12.7,10.8H6.5c-1.4,0-2.5-1.1-2.5-2.5v-8.8
	c0-5.3,0.9-10.5,2.8-15.4l1.9-5c1.9-5,6.7-8.3,12.1-8.4h48.5c4.3,0,8.1,2.5,10,6.3l5,11.6c0.3,0.6,0.9,1.1,1.5,1.2l28.2,4.3
	c1.9,0.3,3.7,1.4,4.8,3C119.9,61.1,120.2,63.1,119.8,65z"/>
<path class="st3" d="M69.6,26.5H43.2c-1.1,0-2-0.9-2-2V11.1c0-1.1,0.9-2,2-2h26.4c1.1,0,2,0.9,2,2v13.3
	C71.6,25.6,70.7,26.5,69.6,26.5z M45.2,22.5h22.4v-9.3H45.2L45.2,22.5z"/>
<path class="st3" d="M34.8,26.5H15.4c-1.1,0-2-0.9-2-2V2c0-1.1,0.9-2,2-2h19.3c1.1,0,2,0.9,2,2v22.5C36.8,25.6,35.9,26.5,34.8,26.5z
	 M17.4,22.5h15.3V4H17.4V22.5z"/>
</svg>
