<svg id="Слой_1" data-name="Слой 1" xmlns="http://www.w3.org/2000/svg" viewBox="0 0 104.37 110.39"><defs><style>.cls-1{fill:#dd738c;}.cls-2{fill:#2896e0;}.cls-3{opacity:0.3;}.cls-4{fill:#15173f;}</style></defs><title>diving</title><polygon class="cls-1" points="90.64 24.47 102.16 24.5 102.37 2.03 90.5 2 90.64 24.47"/><path class="cls-2" d="M54.88,59.67c-5.5,0-9.83-1.43-12.89-4.26a2.48,2.48,0,0,0-3.4-.19h0c-3.48,3-8.63,4.45-15.3,4.45-10.58,0-17.69-7.85-20-22.12A7.88,7.88,0,0,1,5,31.16a6.78,6.78,0,0,1,5.15-2.44H70.64a6.7,6.7,0,0,1,5,2.21,7.83,7.83,0,0,1,2,5.92C76.47,51.35,68.19,59.67,54.88,59.67Zm-14.74-9a6.73,6.73,0,0,1,4.57,1.83c2.29,2.12,5.71,3.19,10.17,3.19,14.25,0,18.05-10.4,18.74-19.12a3.82,3.82,0,0,0-1-2.89,2.75,2.75,0,0,0-2-.93H10.16a2.75,2.75,0,0,0-2.1,1,3.94,3.94,0,0,0-.83,3.16c.57,3.5,1.8,8.49,4.43,12.42a13.2,13.2,0,0,0,11.63,6.34c5.62,0,10-1.21,12.71-3.5A6.36,6.36,0,0,1,40.14,50.64ZM37.3,53.69h0Z"/><g class="cls-3"><path class="cls-4" d="M48.41,50.82a2,2,0,0,1-1.07-.31c-.63-.4-1.26-.83-1.89-1.27-1.78-1.23-3.63-2.51-5.07-2.51S37.09,48,35.3,49.24l-1.18.81a2,2,0,0,1-2.22-3.33L33,46c2.29-1.58,4.66-3.22,7.35-3.22s5.06,1.64,7.35,3.22c.58.4,1.17.81,1.75,1.18a2,2,0,0,1-1.07,3.69Z"/></g><g class="cls-3"><path class="cls-4" d="M29,82.35a9.34,9.34,0,0,1-5.57-1.73A5.46,5.46,0,0,0,20,79.51a5.45,5.45,0,0,0-3.43,1.11A9.33,9.33,0,0,1,11,82.35a9.33,9.33,0,0,1-5.57-1.73A5.45,5.45,0,0,0,2,79.51a2,2,0,0,1,0-4,9.33,9.33,0,0,1,5.57,1.73A5.45,5.45,0,0,0,11,78.35a5.45,5.45,0,0,0,3.43-1.11A9.33,9.33,0,0,1,20,75.51a9.34,9.34,0,0,1,5.57,1.73,5.87,5.87,0,0,0,6.87,0A9.34,9.34,0,0,1,38,75.51a2,2,0,0,1,0,4,5.46,5.46,0,0,0-3.44,1.11A9.34,9.34,0,0,1,29,82.35Z"/></g><path class="cls-4" d="M78.39,110.39h-.06A24.85,24.85,0,0,1,60.58,103a24.23,24.23,0,0,1-7.06-17.37,2,2,0,1,1,4,0,20.25,20.25,0,0,0,5.91,14.52,20.87,20.87,0,0,0,14.91,6.22h.05A21.08,21.08,0,0,0,99.57,85.73L100.35,4,92.83,4l-.77,81.73A13.55,13.55,0,0,1,78.47,99h0a13.41,13.41,0,0,1-9.58-4A13.11,13.11,0,0,1,65,85.64a2,2,0,0,1,2-2h0a2,2,0,0,1,2,2,9.13,9.13,0,0,0,2.67,6.55A9.44,9.44,0,0,0,78.44,95h0a9.54,9.54,0,0,0,9.59-9.34L88.85,2a2,2,0,0,1,2-2h0l11.51,0a2,2,0,0,1,2,2l-.79,83.72A25.09,25.09,0,0,1,78.39,110.39Z"/><path class="cls-4" d="M61.66,88.71h0A15.56,15.56,0,0,1,50.5,84.08a15.2,15.2,0,0,1-4.42-10.9,2,2,0,0,1,2-2h0a2,2,0,0,1,2,2,11.22,11.22,0,0,0,3.27,8,11.59,11.59,0,0,0,8.28,3.45h0A11.7,11.7,0,0,0,73.43,73.25a2,2,0,0,1,2-2h0a2,2,0,0,1,2,2A15.71,15.71,0,0,1,61.66,88.71Z"/></svg>