<svg id="Слой_1" data-name="Слой 1" xmlns="http://www.w3.org/2000/svg" viewBox="0 0 68.29 128.43"><defs><style>.cls-1{fill:#dd738c;}.cls-2{fill:#15173f;}.cls-3{fill:#b6bdcc;}.cls-4{fill:#2896e0;}</style></defs><title>do not disturb</title><path class="cls-1" d="M60.19,41H56a6.09,6.09,0,0,1-6.09-6.09,15.72,15.72,0,0,0-17-15.66A16,16,0,0,0,18.42,35.45a18.09,18.09,0,0,0,.31,3,15.88,15.88,0,0,1,14.1-12.87,15.72,15.72,0,0,1,17,15.66A6.09,6.09,0,0,0,56,47.38h4.24a6.09,6.09,0,0,0,6.09-6.09v-.71a32.43,32.43,0,0,0-.25-4A6.09,6.09,0,0,1,60.19,41Z"/><path class="cls-1" d="M4.83,128.43H63.46a2.83,2.83,0,0,0,2.83-2.83V122H2v3.6A2.83,2.83,0,0,0,4.83,128.43Z"/><path class="cls-2" d="M66.29,124H2a2,2,0,0,1-2-2V34.14a34.14,34.14,0,0,1,68.29,0v.71A8.1,8.1,0,0,1,60.19,43H56a8.1,8.1,0,0,1-8.09-8.09A13.72,13.72,0,0,0,33,21.19,13.91,13.91,0,0,0,20.42,35.42c.1,6.23,3.43,10.9,8.92,12.51h0A104.77,104.77,0,0,1,43,53.1c2.43,1.19,4.71,2.24,6.91,3.25,10.64,4.9,18.34,8.44,18.34,17V122A2,2,0,0,1,66.29,124ZM4,120H64.29V73.38c0-5.77-5.2-8.42-16-13.4-2.22-1-4.52-2.08-7-3.29a101.87,101.87,0,0,0-13.08-4.93h0c-7.14-2.09-11.66-8.33-11.79-16.28A17.92,17.92,0,0,1,32.67,17.2a17.57,17.57,0,0,1,13.48,4.63,17.77,17.77,0,0,1,5.71,13A4.1,4.1,0,0,0,56,39h4.24a4.1,4.1,0,0,0,4.09-4.09v-.71A30.14,30.14,0,0,0,4,34.14Z"/><path class="cls-3" d="M34.14,106.14A19.86,19.86,0,1,1,54,86.29,19.88,19.88,0,0,1,34.14,106.14Zm0-35.71A15.86,15.86,0,1,0,50,86.29,15.87,15.87,0,0,0,34.14,70.43Z"/><path class="cls-4" d="M43.43,88.29H34.14a2,2,0,1,1,0-4h9.29a2,2,0,0,1,0,4Z"/><path class="cls-4" d="M34.14,88.29H24.86a2,2,0,1,1,0-4h9.29a2,2,0,0,1,0,4Z"/></svg>