<svg id="Слой_1" data-name="Слой 1" xmlns="http://www.w3.org/2000/svg" viewBox="0 0 104 89"><defs><style>.cls-1{fill:#dd738c;}.cls-2{fill:#15173f;}.cls-3{fill:#b6bdcc;}.cls-4{fill:#2896e0;}</style></defs><title>gopro</title><path class="cls-1" d="M93.3,64H53.7A8.55,8.55,0,0,1,45,55.61v10A8.55,8.55,0,0,0,53.7,74H93.3a8.55,8.55,0,0,0,8.7-8.39v-10A8.55,8.55,0,0,1,93.3,64Z"/><path class="cls-2" d="M93.61,66H55.39A10.4,10.4,0,0,1,45,55.61V20.39A10.4,10.4,0,0,1,55.39,10H91.06A13,13,0,0,1,104,22.94V55.61A10.4,10.4,0,0,1,93.61,66ZM55.39,14A6.4,6.4,0,0,0,49,20.39V55.61A6.4,6.4,0,0,0,55.39,62H93.61A6.4,6.4,0,0,0,100,55.61V22.94A9,9,0,0,0,91.06,14Z"/><path class="cls-2" d="M91.06,89H12.94A13,13,0,0,1,0,76.06V22.94A13,13,0,0,1,12.94,10H61a2,2,0,0,1,0,4H12.94A9,9,0,0,0,4,22.94V76.06A9,9,0,0,0,12.94,85H91.06A9,9,0,0,0,100,76.06V56a2,2,0,0,1,4,0V76.06A13,13,0,0,1,91.06,89Z"/><path class="cls-2" d="M38,14a2,2,0,0,1-2-2V4H17v8a2,2,0,0,1-4,0V2a2,2,0,0,1,2-2H38a2,2,0,0,1,2,2V12A2,2,0,0,1,38,14Z"/><path class="cls-3" d="M38,54H15a2,2,0,0,1-2-2V23a2,2,0,0,1,2-2H38a2,2,0,0,1,2,2V52A2,2,0,0,1,38,54ZM17,50H36V25H17Z"/><path class="cls-3" d="M27,80A10,10,0,1,1,37,70,10,10,0,0,1,27,80Zm0-16a6,6,0,1,0,6,6A6,6,0,0,0,27,64Z"/><path class="cls-4" d="M74,56A18,18,0,1,1,92,38,18,18,0,0,1,74,56Zm0-32A14,14,0,1,0,88,38,14,14,0,0,0,74,24Z"/></svg>