<svg id="Слой_1" data-name="Слой 1" xmlns="http://www.w3.org/2000/svg" viewBox="0 0 124 63.07"><defs><style>.cls-1{fill:#dd738c;}.cls-2{fill:#15173f;}.cls-3{fill:#b6bdcc;}.cls-4{fill:#2896e0;}</style></defs><title>guitar</title><path class="cls-1" d="M71,34.51c-.62,5.73-3,15.57-12.3,15.57-5.28,0-9-4-13.29-4S31.14,56,20.39,56c-9.93,0-17-8.13-18-21.94-.09,1.15-.13,2.33-.13,3.55,0,16,7.43,25.49,18.18,25.49s20.72-9.88,25-9.88,8,4,13.29,4c9.28,0,11.69-9.83,12.3-15.57v-8h0Z"/><path class="cls-2" d="M2,29.49a2,2,0,0,1-2-2C0,10.79,7.92,0,20.18,0,27.31,0,34,4,38.94,6.86c2.52,1.49,5.13,3,6.25,3,1.59,0,3.22-.76,5.1-1.65a18.83,18.83,0,0,1,8.19-2.34c8.13,0,13.42,5.79,14.51,15.89a2,2,0,0,1-4,.43c-.6-5.62-2.92-12.32-10.53-12.32-2.33,0-4.35,1-6.49,2s-4.32,2-6.8,2c-2.21,0-4.89-1.58-8.28-3.58C32.15,7.5,26.21,4,20.18,4,10.35,4,4,13.22,4,27.49A2,2,0,0,1,2,29.49Z"/><path class="cls-3" d="M22.91,38.26a2,2,0,0,1-2-2V17.75a2,2,0,0,1,4,0V36.26A2,2,0,0,1,22.91,38.26Z"/><path class="cls-3" d="M17.24,38.26a2,2,0,0,1-2-2V17.75a2,2,0,0,1,4,0V36.26A2,2,0,0,1,17.24,38.26Z"/><path class="cls-4" d="M97,24.87h0l-48-.79a2,2,0,0,1,0-4h0l48,.79a2,2,0,0,1,0,4Z"/><path class="cls-4" d="M115,35.9H104a9,9,0,0,1-9-9v-.11a9,9,0,0,1,9-9H115a9,9,0,0,1,9,9v.11A9,9,0,0,1,115,35.9ZM104,21.71a5,5,0,0,0-5,5v.11a5,5,0,0,0,5,5H115a5,5,0,0,0,5-5v-.11a5,5,0,0,0-5-5Z"/><path class="cls-4" d="M116.67,21.71a2,2,0,0,1-2-2v-3a2,2,0,1,1,4,0v3A2,2,0,0,1,116.67,21.71Z"/><path class="cls-4" d="M110.25,21.71a2,2,0,0,1-2-2v-3a2,2,0,1,1,4,0v3A2,2,0,0,1,110.25,21.71Z"/><path class="cls-4" d="M103.82,21.71a2,2,0,0,1-2-2v-3a2,2,0,1,1,4,0v3A2,2,0,0,1,103.82,21.71Z"/><path class="cls-2" d="M20.18,58C7.92,58,0,45.81,0,27a2,2,0,0,1,4,0c0,16.38,6.35,27,16.18,27,6,0,11.89-4,16.64-7.14,3.54-2.37,6.11-4.09,8.38-4.09,2.54,0,4.75,1.18,6.9,2.33s4.12,2.2,6.39,2.2c7.67,0,9.75-9.95,10.31-15.88a2,2,0,1,1,4,.38c-1.19,12.57-6.27,19.5-14.29,19.5-3.27,0-5.93-1.42-8.28-2.68-1.86-1-3.47-1.86-5-1.86-1.06,0-3.76,1.81-6.15,3.41C34.11,53.44,27.37,58,20.18,58Z"/><path class="cls-2" d="M20.18,55C7.92,55,0,44.18,0,27.49a2,2,0,0,1,4,0C4,41.75,10.35,51,20.18,51c6,0,12-3.5,16.74-6.3,3.39-2,6.07-3.58,8.28-3.58,2.49,0,4.68,1,6.8,2s4.16,2,6.49,2c7.92,0,10-8.33,10.53-13.29a2,2,0,0,1,4,.43c-1.15,10.72-6.44,16.86-14.51,16.86a18.82,18.82,0,0,1-8.19-2.34c-1.88-.89-3.51-1.65-5.1-1.65-1.12,0-3.73,1.54-6.25,3C34,51,27.31,55,20.18,55Z"/><path class="cls-4" d="M49,33.93a2,2,0,0,1,0-4l48-.79h0a2,2,0,0,1,0,4l-48,.79Z"/><path class="cls-4" d="M116.67,39.25a2,2,0,0,1-2-2v-3a2,2,0,0,1,4,0v3A2,2,0,0,1,116.67,39.25Z"/><path class="cls-4" d="M110.25,39.25a2,2,0,0,1-2-2v-3a2,2,0,1,1,4,0v3A2,2,0,0,1,110.25,39.25Z"/><path class="cls-4" d="M103.82,39.25a2,2,0,0,1-2-2v-3a2,2,0,0,1,4,0v3A2,2,0,0,1,103.82,39.25Z"/><path class="cls-2" d="M42.46,37.28A10.27,10.27,0,1,1,52.66,27,10.25,10.25,0,0,1,42.46,37.28Zm0-16.55A6.27,6.27,0,1,0,48.66,27,6.25,6.25,0,0,0,42.46,20.73Z"/></svg>