<svg id="Слой_1" data-name="Слой 1" xmlns="http://www.w3.org/2000/svg" viewBox="0 0 94 124"><defs><style>.cls-1{fill:#b6bdcc;}.cls-2{fill:#dd738c;}.cls-3{fill:#15173f;}.cls-4{fill:#2896e0;}</style></defs><title>hotel</title><path class="cls-1" d="M27.38,124H14a2,2,0,0,1-2-2V98.69a8.69,8.69,0,0,1,17.38,0V122A2,2,0,0,1,27.38,124ZM16,120h9.38V98.69a4.69,4.69,0,0,0-9.38,0Z"/><path class="cls-1" d="M80.92,124H67.53a2,2,0,0,1-2-2V98.69a8.69,8.69,0,0,1,17.38,0V122A2,2,0,0,1,80.92,124Zm-11.38-4h9.38V98.69a4.69,4.69,0,0,0-9.38,0Z"/><path class="cls-2" d="M47.08,92a10.67,10.67,0,0,0-10.57,10.77V122H57.65V102.77A10.67,10.67,0,0,0,47.08,92Z"/><path class="cls-3" d="M92,124H2a2,2,0,0,1-2-2V18.36a2,2,0,0,1,2-2H92a2,2,0,0,1,2,2V122A2,2,0,0,1,92,124ZM4,120H90V20.36H4Z"/><path class="cls-4" d="M77.31,20.36H16.69a2,2,0,0,1-2-2V2a2,2,0,0,1,2-2H77.31a2,2,0,0,1,2,2V18.36A2,2,0,0,1,77.31,20.36Zm-58.61-4H75.31V4H18.69Z"/><path class="cls-3" d="M57.65,124H36.52a2,2,0,0,1-2-2V102.77a12.57,12.57,0,1,1,25.13,0V122A2,2,0,0,1,57.65,124Zm-19.13-4H55.65V102.77a8.57,8.57,0,1,0-17.13,0Z"/><path class="cls-1" d="M54.15,60.51a2,2,0,0,1-2-2V51.6a2,2,0,0,1,4,0v6.91A2,2,0,0,1,54.15,60.51Z"/><path class="cls-1" d="M40.77,60.51a2,2,0,0,1-2-2V51.6a2,2,0,0,1,4,0v6.91A2,2,0,0,1,40.77,60.51Z"/><path class="cls-1" d="M54.15,40.34a2,2,0,0,1-2-2V32a2,2,0,0,1,4,0v6.34A2,2,0,0,1,54.15,40.34Z"/><path class="cls-1" d="M40.77,40.34a2,2,0,0,1-2-2V32a2,2,0,1,1,4,0v6.34A2,2,0,0,1,40.77,40.34Z"/><path class="cls-1" d="M80.92,60.51a2,2,0,0,1-2-2V51.6a2,2,0,0,1,4,0v6.91A2,2,0,0,1,80.92,60.51Z"/><path class="cls-1" d="M67.53,60.51a2,2,0,0,1-2-2V51.6a2,2,0,0,1,4,0v6.91A2,2,0,0,1,67.53,60.51Z"/><path class="cls-1" d="M80.92,40.34a2,2,0,0,1-2-2V32a2,2,0,0,1,4,0v6.34A2,2,0,0,1,80.92,40.34Z"/><path class="cls-1" d="M67.53,40.34a2,2,0,0,1-2-2V32a2,2,0,0,1,4,0v6.34A2,2,0,0,1,67.53,40.34Z"/><path class="cls-1" d="M27.38,60.51a2,2,0,0,1-2-2V51.6a2,2,0,0,1,4,0v6.91A2,2,0,0,1,27.38,60.51Z"/><path class="cls-1" d="M14,60.51a2,2,0,0,1-2-2V51.6a2,2,0,0,1,4,0v6.91A2,2,0,0,1,14,60.51Z"/><path class="cls-1" d="M54.15,81a2,2,0,0,1-2-2V72.09a2,2,0,0,1,4,0V79A2,2,0,0,1,54.15,81Z"/><path class="cls-1" d="M40.77,81a2,2,0,0,1-2-2V72.09a2,2,0,0,1,4,0V79A2,2,0,0,1,40.77,81Z"/><path class="cls-1" d="M80.92,81a2,2,0,0,1-2-2V72.09a2,2,0,0,1,4,0V79A2,2,0,0,1,80.92,81Z"/><path class="cls-1" d="M67.53,81a2,2,0,0,1-2-2V72.09a2,2,0,0,1,4,0V79A2,2,0,0,1,67.53,81Z"/><path class="cls-1" d="M27.38,81a2,2,0,0,1-2-2V72.09a2,2,0,0,1,4,0V79A2,2,0,0,1,27.38,81Z"/><path class="cls-1" d="M14,81a2,2,0,0,1-2-2V72.09a2,2,0,0,1,4,0V79A2,2,0,0,1,14,81Z"/><path class="cls-1" d="M27.38,40.34a2,2,0,0,1-2-2V32a2,2,0,0,1,4,0v6.34A2,2,0,0,1,27.38,40.34Z"/><path class="cls-1" d="M14,40.34a2,2,0,0,1-2-2V32a2,2,0,0,1,4,0v6.34A2,2,0,0,1,14,40.34Z"/><path class="cls-4" d="M64.45,12.18H29.55a2,2,0,1,1,0-4h34.9a2,2,0,1,1,0,4Z"/></svg>