<svg id="Слой_1" data-name="Слой 1" xmlns="http://www.w3.org/2000/svg" viewBox="0 0 124 50"><defs><style>.cls-1{fill:#dd738c;}.cls-2{fill:#b6bdcc;}.cls-3{fill:#15173f;}.cls-4{fill:#2896e0;}</style></defs><title>lantern</title><path class="cls-1" d="M71.94,38,55.64,28.41a14.91,14.91,0,0,0-7.55-2H2v8H48.09a14.91,14.91,0,0,1,7.55,2L71.94,46a14.91,14.91,0,0,0,7.55,2h4V40h-4A14.91,14.91,0,0,1,71.94,38Z"/><path class="cls-2" d="M74.88,27a2,2,0,0,1-2-2V2.74a2,2,0,0,1,4,0V25A2,2,0,0,1,74.88,27Z"/><path class="cls-3" d="M83.49,50h-4a16.92,16.92,0,0,1-8.56-2.32L54.63,38.1a12.91,12.91,0,0,0-6.53-1.77H2a2,2,0,0,1-2-2V15.68a2,2,0,0,1,2-2H48.09a12.92,12.92,0,0,0,6.54-1.77L70.93,2.32A16.92,16.92,0,0,1,79.49,0h4a2,2,0,0,1,2,2V48A2,2,0,0,1,83.49,50ZM4,32.32H48.09a16.92,16.92,0,0,1,8.56,2.32L73,44.23A12.91,12.91,0,0,0,79.49,46h2V4h-2A12.92,12.92,0,0,0,73,5.77L56.65,15.35a16.92,16.92,0,0,1-8.56,2.32H4Z"/><path class="cls-3" d="M83.49,50h-4a16.92,16.92,0,0,1-8.56-2.32L54.63,38.1a12.91,12.91,0,0,0-6.53-1.77H2a2,2,0,0,1-2-2V15.68a2,2,0,0,1,2-2H48.09a12.92,12.92,0,0,0,6.54-1.77L70.93,2.32A16.92,16.92,0,0,1,79.49,0h4a2,2,0,0,1,2,2V48A2,2,0,0,1,83.49,50ZM4,32.32H48.09a16.92,16.92,0,0,1,8.56,2.32L73,44.23A12.91,12.91,0,0,0,79.49,46h2V4h-2A12.92,12.92,0,0,0,73,5.77L56.65,15.35a16.92,16.92,0,0,1-8.56,2.32H4Z"/><path class="cls-3" d="M43.19,12H36a2,2,0,1,1,0-4h7.16a2,2,0,1,1,0,4Z"/><path class="cls-3" d="M91.55,50a2,2,0,0,1-2-2V2a2,2,0,0,1,4,0V48A2,2,0,0,1,91.55,50Z"/><path class="cls-4" d="M122,27H101.61a2,2,0,0,1,0-4H122a2,2,0,0,1,0,4Z"/><path class="cls-4" d="M101.61,12a2,2,0,0,1-1-3.73l12.25-7.13a2,2,0,0,1,2,3.46l-12.25,7.13A2,2,0,0,1,101.61,12Z"/><path class="cls-4" d="M113.86,49.12a2,2,0,0,1-1-.27L100.6,41.71a2,2,0,0,1,2-3.46l12.25,7.13a2,2,0,0,1-1,3.73Z"/></svg>