<?xml version="1.0" encoding="utf-8"?>
<!-- Generator: Adobe Illustrator 21.1.0, SVG Export Plug-In . SVG Version: 6.00 Build 0)  -->
<svg version="1.1" id="Слой_1" xmlns="http://www.w3.org/2000/svg" xmlns:xlink="http://www.w3.org/1999/xlink" x="0px" y="0px"
	 viewBox="0 0 124 94" style="enable-background:new 0 0 124 94;" xml:space="preserve">
<style type="text/css">
	.st0{fill:#DD738C;}
	.st1{fill:#B6BDCC;}
	.st2{fill:#15173F;}
	.st3{fill:#2896E0;}
</style>
<title>lighthouse</title>
<polygon class="st0" points="55.1,31.7 37.1,31.7 36.2,47 56,47 "/>
<polygon class="st0" points="35.5,60 56.7,60 57.5,75.6 34.8,75.6 "/>
<path class="st1" d="M108,39.9c-0.6,0-1.3,0.1-1.9,0.3c-2.3-4.1-6.6-6.7-11.4-6.8c-6.9,0-12.6,5.7-13.5,13.1h-4.8c-1.1,0-2,0.9-2,2
	s0.9,2,2,2h17.2c1.1,0,2-0.9,2-2s-0.9-2-2-2h-8.4c0.8-5.1,4.7-9.1,9.4-9.1c3.2,0,6.2,1.8,7.9,4.9c-0.5,0.5-1,1.2-1.4,1.9
	c0,0-0.1,0.1-0.1,0.1c-0.5,1-0.1,2.2,0.9,2.7c1,0.5,2.2,0.1,2.7-0.9c0.3-0.5,0.6-1,1.1-1.3c0.1,0,0.1,0,0.2-0.1
	c0.2-0.1,0.4-0.2,0.5-0.4c0.4-0.2,0.9-0.3,1.4-0.3c2.1,0,3.8,2,3.8,4.5c0,1.1,0.9,2,2,2c0,0,0,0,0,0c1.1,0,2-0.9,2-2
	C115.8,43.7,112.3,39.9,108,39.9z"/>
<path class="st1" d="M90.2,16.1H69.9c-1.1,0-2-0.9-2-2s0.9-2,2-2h20.3c1.1,0,2,0.9,2,2S91.3,16.1,90.2,16.1z"/>
<path class="st1" d="M69.9,8.3c-1.1,0-2-0.9-2-2c0-0.8,0.5-1.5,1.2-1.9l10.6-4.3c1-0.5,2.2,0,2.7,1s0,2.2-1,2.7
	c-0.1,0-0.1,0-0.2,0.1L70.7,8.2C70.5,8.3,70.2,8.3,69.9,8.3z"/>
<path class="st1" d="M22.3,15.2H2c-1.1,0-2-0.9-2-2s0.9-2,2-2h20.3c1.1,0,2,0.9,2,2S23.4,15.2,22.3,15.2z"/>
<path class="st1" d="M11.7,27.4c-1.1,0-2-0.9-2-2c0-0.8,0.5-1.5,1.2-1.9l10.6-4.3c1-0.4,2.2,0.2,2.6,1.2c0.4,1-0.1,2.1-1,2.5
	l-10.6,4.3C12.2,27.3,12,27.4,11.7,27.4z"/>
<path class="st2" d="M122,59H58.9l-1.9-39.8c-0.1-1.1-0.9-1.9-2-1.9h-0.1c-1.1,0.1-2,1-1.9,2.1L56.4,90H35.9l3.4-70.6
	c0.1-1.1-0.8-2-1.9-2.1c-1.1-0.1-2,0.8-2.1,1.9l-3.5,72.7c0,0,0,0.1,0,0.1c0,1.1,0.9,2,2,2h24.7H122c1.1,0,2-0.9,2-2V61
	C124,59.9,123.1,59,122,59z M120,90H60.4l-1.3-27H120V90z"/>
<path class="st1" d="M113.2,86.2c-1.1,0-2-0.9-2-2v-6.1c0-1.1,0.9-2,2-2s2,0.9,2,2v6.1C115.2,85.3,114.3,86.2,113.2,86.2z"/>
<path class="st1" d="M104.3,86.2c-1.1,0-2-0.9-2-2v-6.1c0-1.1,0.9-2,2-2s2,0.9,2,2v6.1C106.3,85.3,105.5,86.2,104.3,86.2z"/>
<path class="st1" d="M95.5,86.2c-1.1,0-2-0.9-2-2v-6.1c0-1.1,0.9-2,2-2s2,0.9,2,2v6.1C97.5,85.3,96.6,86.2,95.5,86.2z"/>
<path class="st3" d="M54.5,21.3H37.8c-1.1,0-2-0.9-2-2c0-0.1,0-0.1,0-0.2l1.3-17.3c0.1-1,1-1.9,2-1.9h14.1c1,0,1.9,0.8,2,1.9
	l1.3,17.3c0.1,1.1-0.7,2.1-1.8,2.1C54.6,21.3,54.5,21.3,54.5,21.3L54.5,21.3z M39.9,17.3h12.4L51.3,4H40.9L39.9,17.3z"/>
<path class="st2" d="M62,11.8H30.2c-1.1,0-2-0.9-2-2s0.9-2,2-2H62c1.1,0,2,0.9,2,2S63.1,11.8,62,11.8z"/>
<path class="st2" d="M62,21.3H30.2c-1.1,0-2-0.9-2-2s0.9-2,2-2H62c1.1,0,2,0.9,2,2S63.1,21.3,62,21.3z"/>
</svg>
