<?xml version="1.0" encoding="utf-8"?>
<!-- Generator: Adobe Illustrator 21.1.0, SVG Export Plug-In . SVG Version: 6.00 Build 0)  -->
<svg version="1.1" id="Слой_1" xmlns="http://www.w3.org/2000/svg" xmlns:xlink="http://www.w3.org/1999/xlink" x="0px" y="0px"
	 viewBox="0 0 130 106" style="enable-background:new 0 0 130 106;" xml:space="preserve">
<style type="text/css">
	.st0{fill:#DD738C;}
	.st1{fill:#15173F;}
	.st2{opacity:0.3;}
	.st3{fill:#2896E0;}
</style>
<title>map</title>
<polyline class="st0" points="83.2,93 76,95 76,14 83.2,12 83.2,93 "/>
<polyline class="st0" points="29.4,93 22,95 22,14 29.4,12 29.4,93 "/>
<path class="st1" d="M111.1,62c-1.1,0-2,0.9-2,2v37.1l-23.9-9.4V12c0-0.3-0.1-0.5-0.2-0.8c-0.4-1-1.6-1.5-2.6-1.1L56.3,20.9L44,16.1
	c-1-0.4-2.1,0.1-2.5,1.1c-0.4,1,0.1,2.2,1.1,2.6l11.7,4.5V101l-22.9-9.4V12c0-0.2,0-0.5-0.1-0.7c-0.4-1-1.6-1.5-2.6-1.1L1.3,20.6
	c-0.8,0.3-1.3,1-1.3,1.9v81c0,1.1,0.9,2,2,2c0.2,0,0.5,0,0.7-0.1l26.7-10.2l26.1,10.7c0,0,0,0,0,0l0,0c0,0,0.1,0,0.2,0
	c0.1,0,0.1,0.1,0.2,0.1c0.1,0,0.3,0,0.4,0c0.3,0,0.5,0,0.8-0.1l26.2-10.7l27.1,10.7c0.2,0.1,0.5,0.1,0.7,0.1c1.1,0,2-0.9,2-2V64
	C113.1,62.9,112.2,62,111.1,62z M27.4,91.6l-23.4,9V23.9l23.4-9V91.6z M81.2,91.6L58.3,101V24.3L81.2,15V91.6z"/>
<g class="st2">
	<path class="st1" d="M2,63.5c-1.1,0-2-0.9-2-2c0-0.8,0.5-1.6,1.3-1.9l27.4-10.5c0.5-0.2,1-0.2,1.4,0l26.7,10.2l24.7-9.2
		c1-0.4,2.2,0.1,2.6,1.2c0.4,1-0.1,2.2-1.2,2.6l-25.4,9.5c-0.5,0.2-1,0.2-1.4,0L29.4,53.1L2.7,63.4C2.5,63.5,2.2,63.5,2,63.5z"/>
</g>
<path class="st3" d="M125.6,5.7C122.2,2,117.2,0,111.2,0c0,0-0.1,0-0.1,0c0,0-0.1,0-0.1,0c-5.9,0-11.1,2-14.4,5.7
	c-4.3,4.7-6.5,13.3-1.6,21.9c1.4,2.3,3.1,4.4,5,6.2c1.4,1.4,2.7,2.9,3.8,4.4c3,4.4,4.8,9.5,5.2,14.9c0.1,1,0.9,1.9,2,1.9h0h0.1h0
	c1,0,1.9-0.8,2-1.8c0.4-5.3,2.2-10.4,5.2-14.9c1.1-1.6,2.4-3.1,3.8-4.4c1.9-1.9,3.6-4,5-6.2C132.1,18.9,130,10.3,125.6,5.7z
	 M123.8,25.6c-1.2,2-2.7,3.8-4.4,5.5c-1.5,1.5-2.9,3.2-4.2,5c-1.7,2.4-3,5.1-4,7.8c-1-2.8-2.3-5.4-4-7.8c-1.3-1.7-2.6-3.4-4.2-4.9
	c-1.7-1.6-3.2-3.5-4.5-5.5c-2.7-4.8-3.6-12.3,1.1-17.3c3.5-3.8,8.7-4.4,11.5-4.4c0,0,0.1,0,0.1,0c0,0,0.1,0,0.1,0
	c2.8,0,7.9,0.6,11.5,4.3C127.3,13.3,126.5,20.8,123.8,25.6z"/>
<path class="st3" d="M111.1,25c-3.9,0-7-3.1-7-7s3.1-7,7-7s7,3.1,7,7S115,25,111.1,25z M111.1,15c-1.7,0-3,1.3-3,3s1.3,3,3,3
	s3-1.3,3-3S112.8,15,111.1,15z"/>
</svg>
