<?xml version="1.0" encoding="utf-8"?>
<!-- Generator: Adobe Illustrator 19.2.1, SVG Export Plug-In . SVG Version: 6.00 Build 0)  -->
<svg version="1.1" id="Слой_1" xmlns="http://www.w3.org/2000/svg" xmlns:xlink="http://www.w3.org/1999/xlink" x="0px" y="0px"
	 viewBox="0 0 124 69.6" style="enable-background:new 0 0 124 69.6;" xml:space="preserve">
<style type="text/css">
	.st0{fill:#DD738C;}
	.st1{fill:#2896E0;}
	.st2{fill:#B6BDCC;}
	.st3{fill:#15173F;}
</style>
<title>mountains</title>
<polygon class="st0" points="47.3,28.5 24.4,67.6 34.4,67.6 52.3,36.7 "/>
<path class="st1" d="M83.5,37c-0.4,0-0.9-0.1-1.2-0.4l-7.6-5.9l-5.8,5.7c-0.8,0.8-2,0.8-2.8,0l-8.4-8.2c-0.8-0.7-0.3-1.3,0.4-2.2
	c0.7-0.8,1.4-1.6,2.2-0.8c0,0,0.1,0.1,0.1,0.1l7,6.8l5.6-5.6c0.7-0.7,1.8-0.8,2.6-0.2l7.6,5.9l5.3-5.5c0.8-0.8,1.2-0.4,2,0.4
	s1.7,1.6,0.9,2.4L85,36.4C84.6,36.8,84.1,37.1,83.5,37z"/>
<path class="st2" d="M13.4,69.6c-1.1,0-2-0.9-2-2c0-0.3,0.1-0.7,0.3-1l29-47.8c0.4-0.6,1-1,1.7-1c0.7,0,1.4,0.4,1.7,1l10,16.9
	c0.6,0.9,0.5,2.1-0.4,2.8s-2.1,0.5-2.8-0.4c-0.1-0.1-0.1-0.2-0.2-0.4l-8.3-14l-27.2,45C14.7,69.2,14,69.6,13.4,69.6z"/>
<path class="st3" d="M34.4,69.6c-1.1,0-2-0.9-2-2c0-0.3,0.1-0.7,0.3-1L72.4,1c0.6-0.9,1.8-1.2,2.7-0.7c0.3,0.2,0.5,0.4,0.7,0.7
	l39.7,65.5c0.5,1,0.2,2.2-0.8,2.7c-0.9,0.5-2.1,0.2-2.7-0.7l-38-62.7l-38,62.7C35.8,69.2,35.1,69.6,34.4,69.6z"/>
<path class="st3" d="M52.3,69.6H2c-1.1,0-2-0.9-2-2s0.9-2,2-2h50.3c1.1,0,2,0.9,2,2S53.4,69.6,52.3,69.6z"/>
<path class="st3" d="M122,69.6H62.4c-1.1,0-2-0.9-2-2s0.9-2,2-2H122c1.1,0,2,0.9,2,2S123.1,69.6,122,69.6z"/>
</svg>
