<?xml version="1.0" encoding="utf-8"?>
<!-- Generator: Adobe Illustrator 21.1.0, SVG Export Plug-In . SVG Version: 6.00 Build 0)  -->
<svg version="1.1" id="Слой_1" xmlns="http://www.w3.org/2000/svg" xmlns:xlink="http://www.w3.org/1999/xlink" x="0px" y="0px"
	 viewBox="0 0 124 124" style="enable-background:new 0 0 124 124;" xml:space="preserve">
<style type="text/css">
	.st0{fill:#2896E0;}
	.st1{opacity:0.3;}
	.st2{fill:#15173F;}
	.st3{fill:#DD738C;}
</style>
<title>photocards</title>
<path class="st0" d="M92.5,78.8c-3,0-5.9-1.2-8.1-3.3c-1.6-1.3-2.8-2.4-5.5-2.4s-3.9,1-5.5,2.4c-4.5,4.4-11.7,4.4-16.1,0
	c-1.6-1.3-2.8-2.4-5.5-2.4s-3.9,1-5.5,2.4c-4.5,4.4-11.7,4.4-16.1,0c-0.8-0.7-0.9-2-0.1-2.8c0.7-0.8,1.9-0.9,2.7-0.2
	c1.6,1.3,2.8,2.4,5.5,2.4s3.9-1,5.5-2.4c4.5-4.4,11.7-4.4,16.1,0c1.6,1.3,2.8,2.4,5.5,2.4s3.9-1,5.5-2.4c4.5-4.4,11.7-4.4,16.1,0
	c1.6,1.3,2.8,2.4,5.5,2.4c1.1,0,2,0.9,2,2S93.6,78.8,92.5,78.8L92.5,78.8z"/>
<g class="st1">
	<path class="st2" d="M104.4,81.6c-1.1,0-2-0.9-2-2c0-0.5,0.2-1,0.6-1.4L119.1,62l-15.8-14.9c-0.8-0.7-0.7-2.3,0.1-3.1
		c0.7-0.8,1.4-1,2.2-0.2c0,0,0.1,0.1,0.1,0.1l17.6,16.7c0.8,0.8,0.8,2,0,2.8c0,0,0,0,0,0L105.8,81C105.5,81.4,105,81.6,104.4,81.6z"
		/>
</g>
<g class="st1">
	<path class="st2" d="M79.6,21.6c-0.5,0-1-0.2-1.4-0.6L62,4.8L45.8,21c-0.9,0.7-2.1,0.5-2.8-0.4c-0.5-0.7-0.5-1.7,0-2.4L60.6,0.6
		c0.8-0.8,2-0.8,2.8,0L81,18.2c0.8,0.8,0.8,2,0,2.8C80.6,21.4,80.1,21.6,79.6,21.6L79.6,21.6z"/>
</g>
<g class="st1">
	<path class="st2" d="M19.6,81.6c-0.5,0-1-0.2-1.4-0.6L0.6,63.4c-0.8-0.8-0.8-2,0-2.8L18.2,43c0.9-0.7,2.1-0.5,2.8,0.3
		c0.6,0.7,0.6,1.7,0,2.4L4.8,62L21,78.2c0.8,0.8,0.8,2,0,2.8C20.6,81.4,20.1,81.6,19.6,81.6L19.6,81.6z"/>
</g>
<g class="st1">
	<path class="st2" d="M62,124c-0.5,0-1-0.2-1.4-0.6L43,105.8c-0.7-0.9-0.5-2.1,0.3-2.8c0.7-0.6,1.7-0.6,2.4,0L62,119.2l15.3-15.3
		c0.7-0.9,2.9-1,3.8-0.3s1,1,0.3,1.9c-0.1,0.1-0.2,0.3-0.4,0.4l-17.6,17.6C63,123.8,62.5,124,62,124z"/>
</g>
<path class="st2" d="M104.4,106.4H19.6c-1.1,0-2-0.9-2-2V19.6c0-1.1,0.9-2,2-2h84.8c1.1,0,2,0.9,2,2v84.8
	C106.4,105.5,105.5,106.4,104.4,106.4C104.4,106.4,104.4,106.4,104.4,106.4z M21.6,102.4h80.8V21.6H21.6L21.6,102.4z"/>
<path class="st2" d="M93,93.1H31c-1.1,0-2-0.9-2-2V32c0-1.1,0.9-2,2-2h62c1.1,0,2,0.9,2,2v59.1C95,92.2,94.1,93.1,93,93.1z M33,89.1
	h58V34H33V89.1z"/>
<circle class="st3" cx="51.2" cy="51" r="7.6"/>
</svg>
