<?xml version="1.0" encoding="utf-8"?>
<!-- Generator: Adobe Illustrator 21.1.0, SVG Export Plug-In . SVG Version: 6.00 Build 0)  -->
<svg version="1.1" id="Слой_1" xmlns="http://www.w3.org/2000/svg" xmlns:xlink="http://www.w3.org/1999/xlink" x="0px" y="0px"
	 viewBox="0 0 120 114" style="enable-background:new 0 0 120 114;" xml:space="preserve">
<style type="text/css">
	.st0{fill:#DD738C;}
	.st1{fill:#B6BDCC;}
	.st2{fill:#15173F;}
	.st3{fill:#2896E0;}
</style>
<title>picnic</title>
<path class="st0" d="M55.9,102.1c-14.2,0-20.9-8.4-22.8-16.7c-2.5,9.3,2.5,26.6,22.8,26.6c16.8,0,19.4-14.8,17.8-24.7
	C72.4,95,67.5,102.1,55.9,102.1z"/>
<path class="st1" d="M105.7,30.9H2c-1.1,0-2,0.9-2,2v18.5c0,1.1,0.9,2,2,2h5.4V112c0,1.1,0.9,2,2,2h80.2c1.1,0,2-0.9,2-2s-0.9-2-2-2
	H11.4V53.4h84.8v12.8c0,1.1,0.9,2,2,2s2-0.9,2-2V53.4h5.4c1.1,0,2-0.9,2-2V32.9C107.7,31.8,106.8,30.9,105.7,30.9z M103.7,49.4h-5.4
	H9.4H4V34.9h99.7V49.4z"/>
<path class="st2" d="M93.3,43.5c-0.6,0-1.2-0.3-1.6-0.7L59.7,3.3C59,2.4,59.1,1.1,60,0.4s2.1-0.6,2.8,0.3l32.1,39.5
	c0.7,0.9,0.6,2.1-0.3,2.8C94.2,43.4,93.8,43.5,93.3,43.5z"/>
<path class="st2" d="M15.6,43.5c-1.1,0-2-0.9-2-2c0-0.5,0.2-0.9,0.4-1.3L46.1,0.7c0.7-0.9,2-1,2.8-0.3s1,2,0.3,2.8l0,0L17.1,42.8
	C16.7,43.3,16.2,43.6,15.6,43.5z"/>
<path class="st3" d="M110.6,114h-21c-1,0-1.9-0.7-2-1.7l-6.1-45.7c-0.1-1.1,0.6-2.1,1.7-2.3c0.1,0,0.2,0,0.3,0H118c1.1,0,2,0.9,2,2
	c0,0.1,0,0.2,0,0.3l-7.4,45.7C112.4,113.3,111.6,114,110.6,114z M91.4,110h17.5l6.8-41.7H85.7L91.4,110z"/>
<path class="st2" d="M55.9,114c-11.2,0-19.8-5.2-23.5-14.4c-3-7.3-2.3-16.1,1.6-20c3.4-3.4,8.7-4.2,15.3-2.4c4.9,1.2,10,1,14.7-0.7
	c2.2-0.9,4.7-0.8,6.8,0.3c4.5,2.3,6.4,14.5,4.6,22.3C73.1,108.7,66.2,114,55.9,114z M42.9,80.3c-2.3-0.1-4.5,0.6-6.1,2.2
	c-2.4,2.4-3.3,9.3-0.7,15.6c1.8,4.4,6.9,11.9,19.8,11.9c8.2,0,13.4-3.8,15.4-11.2c2.2-8.5-0.9-17.5-2.3-18.4
	c-1.2-0.6-2.5-0.6-3.7-0.1c-5.5,2-11.4,2.2-17.1,0.8l0,0C46.4,80.6,44.7,80.4,42.9,80.3L42.9,80.3z"/>
<path class="st2" d="M53.8,79.4h-0.3c-1.1-0.2-1.8-1.2-1.6-2.3c0-0.3,1.3-7.9,4-11.9c0.6-0.9,1.9-1.2,2.8-0.6s1.2,1.9,0.6,2.8
	c-1.8,2.8-3.1,8.4-3.4,10.3C55.6,78.7,54.8,79.4,53.8,79.4z"/>
</svg>
