<?xml version="1.0" encoding="utf-8"?>
<!-- Generator: Adobe Illustrator 21.1.0, SVG Export Plug-In . SVG Version: 6.00 Build 0)  -->
<svg version="1.1" id="Слой_1" xmlns="http://www.w3.org/2000/svg" xmlns:xlink="http://www.w3.org/1999/xlink" x="0px" y="0px"
	 viewBox="0 0 73.1 124" style="enable-background:new 0 0 73.1 124;" xml:space="preserve">
<style type="text/css">
	.st0{fill:#DD738C;}
	.st1{fill:#15173F;}
	.st2{opacity:0.3;}
	.st3{fill:#2896E0;}
</style>
<title>sunprotection</title>
<path class="st0" d="M58.3,113.4H14.8c-7.1,0-12.8-5.7-12.8-12.8c0,0,0,0,0,0v8.6c0,7.1,5.7,12.8,12.8,12.8l0,0h43.5
	c7.1,0,12.8-5.7,12.8-12.8v-8.6C71.1,107.6,65.4,113.4,58.3,113.4z"/>
<path class="st1" d="M57.8,124H15.4C6.9,124,0,117.1,0,108.7V33.6c0-8.5,6.9-15.3,15.4-15.4h42.4c8.5,0,15.3,6.9,15.4,15.4v75.1
	C73.1,117.1,66.2,124,57.8,124z M15.4,22.2C9.1,22.3,4,27.3,4,33.6v75.1c0,6.3,5.1,11.3,11.4,11.4h42.4c6.3,0,11.3-5.1,11.4-11.3
	V33.6c0-6.3-5.1-11.3-11.4-11.4H15.4z"/>
<path class="st1" d="M54.8,22.2H19.3c-1.1,0-2-0.9-2-2V2c0-1.1,0.9-2,2-2h35.5c1.1,0,2,0.9,2,2v18.2C56.8,21.3,55.9,22.2,54.8,22.2z
	 M21.3,18.2h31.5V4H21.3L21.3,18.2z"/>
<g class="st2">
	<path class="st1" d="M53.6,13.1H20.4c-1,0-1.9-0.9-1.9-2s0.8-2,1.9-2h33.2c1,0,1.9,0.9,1.9,2S54.7,13.1,53.6,13.1z"/>
</g>
<path class="st3" d="M36.6,82.7c-7.5,0-13.5-6.1-13.5-13.5s6.1-13.5,13.5-13.5s13.5,6.1,13.5,13.5C50.1,76.7,44,82.7,36.6,82.7z
	 M36.6,59.7c-5.3,0-9.5,4.3-9.5,9.5c0,5.3,4.3,9.5,9.5,9.5s9.5-4.3,9.5-9.5C46.1,64,41.8,59.7,36.6,59.7
	C36.6,59.7,36.6,59.7,36.6,59.7L36.6,59.7z"/>
<g class="st2">
	<path class="st1" d="M36.6,94.2c-1.1,0-2-0.9-2-2V89c0-1.1,0.9-2,2-2s2,0.9,2,2v3.2C38.6,93.3,37.7,94.2,36.6,94.2z"/>
</g>
<g class="st2">
	<path class="st1" d="M52.8,87.5c-0.5,0-1-0.2-1.4-0.6l-2.3-2.3c-0.8-0.8-0.8-2.1,0-2.8c0.8-0.8,2.1-0.8,2.8,0l2.3,2.3
		c0.8,0.8,0.8,2,0,2.8C53.9,87.3,53.4,87.5,52.8,87.5L52.8,87.5z"/>
</g>
<g class="st2">
	<path class="st1" d="M59.6,71.2h-3.2c-1.1,0-2-0.9-2-2s0.9-2,2-2h3.2c1.1,0,2,0.9,2,2S60.7,71.2,59.6,71.2z"/>
</g>
<g class="st2">
	<path class="st1" d="M50.6,57.2c-1.1,0-2-0.9-2-2c0-0.5,0.2-1,0.6-1.4l2.3-2.3c0.8-0.8,2-0.8,2.8,0s0.8,2,0,2.8L52,56.6
		C51.6,57,51.1,57.2,50.6,57.2z"/>
</g>
<g class="st2">
	<path class="st1" d="M36.6,51.4c-1.1,0-2-0.9-2-2v-3.2c0-1.1,0.9-2,2-2s2,0.9,2,2v3.2C38.6,50.5,37.7,51.4,36.6,51.4z"/>
</g>
<g class="st2">
	<path class="st1" d="M22.6,57.2c-0.5,0-1-0.2-1.4-0.6l-2.3-2.3c-0.8-0.8-0.8-2,0-2.8c0.8-0.8,2-0.8,2.8,0l2.3,2.3
		c0.8,0.8,0.8,2,0,2.8C23.6,57,23.1,57.2,22.6,57.2L22.6,57.2z"/>
</g>
<g class="st2">
	<path class="st1" d="M16.8,71.2h-3.2c-1.1,0-2-0.9-2-2s0.9-2,2-2h3.2c1.1,0,2,0.9,2,2S17.9,71.2,16.8,71.2z"/>
</g>
<g class="st2">
	<path class="st1" d="M20.3,87.5c-1.1,0-2-0.9-2-2c0-0.5,0.2-1,0.6-1.4l2.3-2.3c0.8-0.8,2.1-0.8,2.8,0s0.8,2.1,0,2.8l-2.3,2.3
		C21.3,87.3,20.8,87.5,20.3,87.5z"/>
</g>
</svg>
