<svg id="Слой_1" data-name="Слой 1" xmlns="http://www.w3.org/2000/svg" viewBox="0 0 124 114"><defs><style>.cls-1{fill:#b6bdcc;}.cls-2{fill:#dd738c;}.cls-3{fill:#15173f;}.cls-4{fill:#2896e0;}</style></defs><title>vaccine</title><path class="cls-1" d="M11,105.7a2,2,0,0,1-1.41-3.42L65.28,46.76a2,2,0,0,1,2.82,2.83L12.43,105.11A2,2,0,0,1,11,105.7Z"/><path class="cls-1" d="M19.34,114a2,2,0,0,1-1.41-.58L.59,96.12a2,2,0,1,1,2.82-2.83l17.34,17.3A2,2,0,0,1,19.34,114Z"/><polygon class="cls-2" points="92.88 38.67 74.84 56.65 58.19 40.05 76.23 22.06 92.88 38.67"/><path class="cls-3" d="M40.85,92.55A2,2,0,0,1,39.44,92L22.79,75.37a2,2,0,0,1,0-2.83L75.51,20a2,2,0,0,1,2.82,0L95,36.56a2,2,0,0,1,0,2.83L42.26,92A2,2,0,0,1,40.85,92.55ZM27,73.95,40.85,87.73,90.74,38,76.92,24.19Z"/><path class="cls-3" d="M89.41,35.82A2,2,0,0,1,88,35.24l-8.32-8.3a2,2,0,0,1,0-2.83l6.24-6.23a2,2,0,0,1,2.82,0l8.33,8.3a2,2,0,0,1,0,2.83l-6.24,6.23A2,2,0,0,1,89.41,35.82Zm-5.49-10.3L89.41,31l3.41-3.4-5.49-5.48Z"/><path class="cls-3" d="M91.49,25.45A2,2,0,0,1,90.08,22L111.59.58a2,2,0,0,1,2.82,2.83L92.91,24.86A2,2,0,0,1,91.49,25.45Z"/><path class="cls-3" d="M75,58.48a2,2,0,0,1-1.41-.58L57,41.29a2,2,0,1,1,2.82-2.83l16.65,16.6A2,2,0,0,1,75,58.48Z"/><path class="cls-4" d="M113.17,77a10.2,10.2,0,0,1-8.7-4.76,13.78,13.78,0,0,1-2.13-7.45c0-10.55,9-20,9.39-20.36a2.06,2.06,0,0,1,2.87,0c.38.4,9.39,9.81,9.39,20.36a13.78,13.78,0,0,1-2.13,7.45A10.2,10.2,0,0,1,113.17,77Zm0-28.13c-2.37,2.93-6.83,9.33-6.83,15.91a9.84,9.84,0,0,0,1.52,5.32,6.33,6.33,0,0,0,10.63,0A9.84,9.84,0,0,0,120,64.74C120,58.14,115.54,51.75,113.17,48.83Z"/></svg>