<svg id="Слой_1" data-name="Слой 1" xmlns="http://www.w3.org/2000/svg" viewBox="0 0 124 86"><defs><style>.cls-1{fill:#dd738c;}.cls-2{fill:#15173f;}.cls-3{fill:#b6bdcc;}.cls-4{fill:#2896e0;}</style></defs><title>air baloon</title><path class="cls-1" d="M61.19,53.45a29.1,29.1,0,0,1-29-25.73,29.19,29.19,0,1,0,58,0A29.1,29.1,0,0,1,61.19,53.45Z"/><path class="cls-2" d="M61.19,76.35a2,2,0,0,1-2-2V2a2,2,0,0,1,4,0V74.35A2,2,0,0,1,61.19,76.35Z"/><path class="cls-3" d="M74.16,76.35a2,2,0,0,1-1.74-3c.16-.29,16-28.65,16-42.43a2,2,0,0,1,4,0c0,14.82-15.8,43.19-16.47,44.39A2,2,0,0,1,74.16,76.35Z"/><path class="cls-3" d="M48.22,76.35a2,2,0,0,1-1.75-1C45.8,74.13,30,45.76,30,30.94a2,2,0,0,1,4,0c0,13.79,15.8,42.15,16,42.43a2,2,0,0,1-1.74,3Z"/><path class="cls-2" d="M75.79,37.76l-.27,0A2,2,0,0,1,73.8,35.5c1.56-11.61-1.58-30-1.61-30.14a2,2,0,1,1,3.94-.68c.13.78,3.28,19.14,1.63,31.36A2,2,0,0,1,75.79,37.76Z"/><path class="cls-2" d="M48.67,58.67a2,2,0,0,1-2-1.66c-.13-.78-3.28-19.14-1.63-31.36a2,2,0,0,1,4,.53c-1.56,11.62,1.58,30,1.61,30.14A2,2,0,0,1,49,58.64Z"/><path class="cls-2" d="M61.19,61.88A31.1,31.1,0,0,1,30,30.94a31.19,31.19,0,0,1,62.38,0A31.1,31.1,0,0,1,61.19,61.88ZM61.19,4A27.1,27.1,0,0,0,34,30.94a27.19,27.19,0,0,0,54.38,0A27.1,27.1,0,0,0,61.19,4Z"/><path class="cls-4" d="M71.73,86H50.65a2,2,0,0,1-1.94-1.51l-2.43-9.65a2,2,0,0,1,1.94-2.49H74.16a2,2,0,0,1,1.94,2.49l-2.43,9.65A2,2,0,0,1,71.73,86ZM52.21,82h18l1.42-5.65H50.78Z"/><path class="cls-3" d="M122,25.28H98a2,2,0,0,1,0-4h24a2,2,0,0,1,0,4Z"/><path class="cls-3" d="M116,25.28a2,2,0,0,1-2-2,4.61,4.61,0,0,0-9.21,0,2,2,0,1,1-4,0,8.61,8.61,0,0,1,17.21,0A2,2,0,0,1,116,25.28Z"/><path class="cls-3" d="M110.2,18.8a2,2,0,0,1-1.93-1.46,8.83,8.83,0,0,0-13.88-4.6,2,2,0,1,1-2.44-3.17A12.71,12.71,0,0,1,99.78,6.9a12.84,12.84,0,0,1,12.35,9.36,2,2,0,0,1-1.93,2.54Z"/><path class="cls-3" d="M12.21,49.73H2a2,2,0,0,1,0-4H12.21a2,2,0,1,1,0,4Z"/><path class="cls-3" d="M21.22,49.73a2,2,0,0,1-2-2,4.61,4.61,0,0,0-9.21,0,2,2,0,0,1-4,0,8.61,8.61,0,0,1,17.21,0A2,2,0,0,1,21.22,49.73Z"/><path class="cls-3" d="M13.8,43.25a2,2,0,0,1-1.93-2.54,12.84,12.84,0,0,1,12.35-9.36,2,2,0,1,1,0,4,8.83,8.83,0,0,0-8.49,6.43A2,2,0,0,1,13.8,43.25Z"/></svg>