<svg id="Слой_1" data-name="Слой 1" xmlns="http://www.w3.org/2000/svg" viewBox="0 0 111 124"><defs><style>.cls-1{fill:#dd738c;}.cls-2{fill:#15173f;}.cls-3{fill:#2896e0;}</style></defs><title>anchor</title><path class="cls-1" d="M55,26.66a7.58,7.58,0,0,1-7-4.74,7.59,7.59,0,1,0,14.06,0A7.58,7.58,0,0,1,55,26.66Z"/><path class="cls-2" d="M55,97A48.53,48.53,0,0,1,6.54,48.48a2,2,0,0,1,4,0,44.47,44.47,0,1,0,88.93,0,2,2,0,1,1,4,0A48.53,48.53,0,0,1,55,97Z"/><path class="cls-2" d="M55,19.18a2,2,0,0,1-2-2V2a2,2,0,0,1,4,0V17.18A2,2,0,0,1,55,19.18Z"/><path class="cls-2" d="M55,97a2,2,0,0,1-2-2V32.36a2,2,0,0,1,4,0V95A2,2,0,0,1,55,97Z"/><path class="cls-2" d="M63.54,4H46.47a2,2,0,0,1,0-4H63.54a2,2,0,0,1,0,4Z"/><path class="cls-2" d="M91,61.75a2,2,0,0,1-1.53-3.29l11-13A2,2,0,0,1,103.53,48l-11,13A2,2,0,0,1,91,61.75Z"/><path class="cls-2" d="M109,63.75a2,2,0,0,1-1.81-1.15l-7-15a2,2,0,1,1,3.63-1.69l7,15A2,2,0,0,1,109,63.75Z"/><path class="cls-2" d="M20,61.75A2,2,0,0,1,18.47,61l-11-13a2,2,0,0,1,3.05-2.58l11,13A2,2,0,0,1,20,61.75Z"/><path class="cls-2" d="M2,63.75A2,2,0,0,1,.19,60.9l7-15a2,2,0,0,1,3.63,1.69l-7,15A2,2,0,0,1,2,63.75Z"/><path class="cls-2" d="M55,34.36a9.59,9.59,0,1,1,9.59-9.59A9.6,9.6,0,0,1,55,34.36Zm0-15.18a5.59,5.59,0,1,0,5.59,5.59A5.59,5.59,0,0,0,55,19.18Z"/><path class="cls-3" d="M91,113.09c-4.32,0-6.53-1.74-8.48-3.27-1.72-1.35-3.08-2.42-6-2.42s-4.3,1.07-6,2.42c-2,1.53-4.17,3.27-8.49,3.27s-6.53-1.74-8.49-3.27c-1.72-1.35-3.08-2.42-6-2.42s-4.3,1.07-6,2.42a12.65,12.65,0,0,1-17,0c-1.72-1.35-3.08-2.42-6-2.42a2,2,0,1,1,0-4A12.31,12.31,0,0,1,27,106.67c1.72,1.35,3.08,2.42,6,2.42s4.3-1.07,6-2.42a12.31,12.31,0,0,1,8.49-3.27c4.32,0,6.53,1.74,8.49,3.27,1.72,1.35,3.08,2.42,6,2.42s4.3-1.07,6-2.42a12.31,12.31,0,0,1,8.49-3.27c4.32,0,6.53,1.74,8.48,3.27,1.72,1.35,3.08,2.42,6,2.42a2,2,0,0,1,0,4Z"/><path class="cls-3" d="M91.51,124c-4.32,0-6.53-1.74-8.49-3.27-1.72-1.35-3.08-2.42-6-2.42s-4.3,1.07-6,2.42c-2,1.53-4.17,3.27-8.49,3.27S56,122.26,54,120.73c-1.72-1.35-3.08-2.42-6-2.42s-4.3,1.07-6,2.42a12.64,12.64,0,0,1-17,0c-1.72-1.35-3.08-2.42-6-2.42a2,2,0,0,1,0-4,12.31,12.31,0,0,1,8.49,3.27c1.72,1.35,3.08,2.42,6,2.42s4.3-1.07,6-2.42A12.31,12.31,0,0,1,48,114.31c4.32,0,6.53,1.74,8.49,3.27,1.72,1.35,3.08,2.42,6,2.42s4.3-1.07,6-2.42c2-1.53,4.17-3.27,8.49-3.27s6.53,1.74,8.48,3.27c1.72,1.35,3.08,2.42,6,2.42a2,2,0,0,1,0,4Z"/></svg>