<svg id="Слой_1" data-name="Слой 1" xmlns="http://www.w3.org/2000/svg" viewBox="0 0 124 124"><defs><style>.cls-1{opacity:0.3;}.cls-2{fill:#15173f;}.cls-3{fill:#dd738c;}.cls-4{fill:#2896e0;}</style></defs><title>ancient temple</title><g class="cls-1"><path class="cls-2" d="M61.5,16a2,2,0,0,1-2-2V2a2,2,0,0,1,4,0V14A2,2,0,0,1,61.5,16Z"/></g><g class="cls-1"><path class="cls-2" d="M23.63,48.17l-.31,0a2,2,0,0,1-1.67-2.28C24.64,26.56,41.77,12,61.5,12a40.09,40.09,0,0,1,39.76,33.3,2,2,0,0,1-3.94.67,36.38,36.38,0,0,0-71.71.51A2,2,0,0,1,23.63,48.17Z"/></g><polygon class="cls-3" points="100.32 52.67 22.67 52.67 22.67 64.33 99.81 64.33 100.32 52.67"/><path class="cls-2" d="M22.67,107a2,2,0,0,1-2-2V52a2,2,0,0,1,4,0v53A2,2,0,0,1,22.67,107Z"/><path class="cls-2" d="M100.32,107a2,2,0,0,1-2-2V52a2,2,0,1,1,4,0v53A2,2,0,0,1,100.32,107Z"/><path class="cls-2" d="M80.91,107a2,2,0,0,1-2-2V52a2,2,0,1,1,4,0v53A2,2,0,0,1,80.91,107Z"/><path class="cls-2" d="M42.08,107a2,2,0,0,1-2-2V52a2,2,0,0,1,4,0v53A2,2,0,0,1,42.08,107Z"/><path class="cls-2" d="M61.5,107a2,2,0,0,1-2-2V52a2,2,0,0,1,4,0v53A2,2,0,0,1,61.5,107Z"/><path class="cls-2" d="M109.9,54H14.1a2,2,0,0,1-1-3.71l47.4-29a2,2,0,0,1,2.07,0l48.4,29a2,2,0,0,1-1,3.72ZM21.2,50h81.47L61.51,25.34Z"/><g class="cls-1"><path class="cls-2" d="M122,124H2a2,2,0,0,1,0-4H122a2,2,0,0,1,0,4Z"/></g><path class="cls-2" d="M109.9,109H14.1a2,2,0,0,1,0-4h95.8a2,2,0,0,1,0,4Z"/><path class="cls-4" d="M61.5,43a6,6,0,1,1,6-6A6,6,0,0,1,61.5,43Zm0-8a2,2,0,1,0,2,2A2,2,0,0,0,61.5,35Z"/></svg>