<svg id="Слой_1" data-name="Слой 1" xmlns="http://www.w3.org/2000/svg" viewBox="0 0 124 100"><defs><style>.cls-1{fill:#dd738c;}.cls-2{opacity:0.3;}.cls-3{fill:#15173f;}.cls-4{fill:#2896e0;}</style></defs><title>baggage</title><path class="cls-1" d="M115.79,90.7H8.21A6.23,6.23,0,0,1,2,84.43v7.3A6.23,6.23,0,0,0,8.21,98H115.79A6.23,6.23,0,0,0,122,91.74v-7.3A6.23,6.23,0,0,1,115.79,90.7Z"/><g class="cls-2"><path class="cls-3" d="M54.83,84.55A2,2,0,0,1,53,83.3L46.44,67a2,2,0,0,1,1.06-2.58l15.77-6.86a2,2,0,0,1,1.6,3.67l-14,6.09,5.07,12.63,20-8.09-1.82-4.4a2,2,0,0,1,3.7-1.53l2.59,6.26a2,2,0,0,1-1.1,2.62l-23.72,9.6A2,2,0,0,1,54.83,84.55Z"/></g><path class="cls-3" d="M116,100H8a8,8,0,0,1-8-8V23.65a8,8,0,0,1,8-8H116a8,8,0,0,1,8,8V92A8,8,0,0,1,116,100ZM8,19.65a4,4,0,0,0-4,4V92a4,4,0,0,0,4,4H116a4,4,0,0,0,4-4V23.65a4,4,0,0,0-4-4Z"/><path class="cls-3" d="M79.59,19.65H44.41a2,2,0,0,1-2-2V8a8,8,0,0,1,8-8H73.59a8,8,0,0,1,8,8v9.65A2,2,0,0,1,79.59,19.65Zm-33.17-4H77.59V8a4,4,0,0,0-4-4H50.41a4,4,0,0,0-4,4Z"/><g class="cls-2"><path class="cls-3" d="M99.24,100a2,2,0,0,1-2-2V17.65a2,2,0,1,1,4,0V98A2,2,0,0,1,99.24,100Z"/></g><g class="cls-2"><path class="cls-3" d="M24.76,100a2,2,0,0,1-2-2V17.65a2,2,0,0,1,4,0V98A2,2,0,0,1,24.76,100Z"/></g><path class="cls-4" d="M82.69,68.7H65.1a2,2,0,0,1-2-2V55.22a2,2,0,0,1,2-2H82.69a2,2,0,0,1,2,2V66.7A2,2,0,0,1,82.69,68.7Zm-15.59-4H80.69V57.22H67.1Z"/></svg>