<svg id="Слой_1" data-name="Слой 1" xmlns="http://www.w3.org/2000/svg" viewBox="0 0 110 126.5"><defs><style>.cls-1{fill:#dd738c;}.cls-2{opacity:0.3;}.cls-3{fill:#15173f;}.cls-4{fill:#2896e0;}</style></defs><title>barbeque</title><path class="cls-1" d="M17.85,64.46H92.67a30.5,30.5,0,0,0,1.11-9.29H16.5A24.94,24.94,0,0,0,17.85,64.46Z"/><g class="cls-2"><path class="cls-3" d="M87.67,124a2,2,0,0,1-1.95-1.54L77.21,86.09a2,2,0,1,1,3.89-.91l8.51,36.36A2,2,0,0,1,87.67,124Z"/></g><g class="cls-2"><path class="cls-3" d="M20.95,124A2,2,0,0,1,19,121.47l9.9-36.36a2,2,0,0,1,3.86,1.05l-9.9,36.36A2,2,0,0,1,20.95,124Z"/></g><g class="cls-2"><path class="cls-3" d="M93.58,45.45H16.42a2,2,0,0,1,0-4H93.58a2,2,0,0,1,0,4Z"/></g><path class="cls-3" d="M55,96.28A41,41,0,0,1,14.22,55.17a2,2,0,1,1,4,0,36.78,36.78,0,1,0,73.56,0,2,2,0,0,1,4,0A41,41,0,0,1,55,96.28Z"/><path class="cls-3" d="M108,57.17H2a2,2,0,0,1,0-4H108a2,2,0,0,1,0,4Z"/><path class="cls-3" d="M64.73,80.09H44.54a2,2,0,0,1,0-4H64.73a2,2,0,0,1,0,4Z"/><path class="cls-4" d="M52.64,36a2,2,0,0,1-2-2,5.89,5.89,0,0,1,2.75-4.76c1-.8,1.25-1.07,1.25-1.64s-.25-.84-1.25-1.63a5.88,5.88,0,0,1-2.75-4.76,5.88,5.88,0,0,1,2.75-4.76c1-.8,1.25-1.07,1.25-1.64s-.25-.84-1.25-1.64A5.89,5.89,0,0,1,50.64,8.4a5.89,5.89,0,0,1,2.75-4.76c1-.8,1.25-1.08,1.25-1.64a2,2,0,0,1,4,0,5.89,5.89,0,0,1-2.75,4.76c-1,.8-1.25,1.08-1.25,1.64s.25.84,1.25,1.64a5.89,5.89,0,0,1,2.75,4.76,5.89,5.89,0,0,1-2.75,4.76c-1,.8-1.25,1.08-1.25,1.64s.25.84,1.25,1.63a5.88,5.88,0,0,1,2.75,4.76,5.88,5.88,0,0,1-2.75,4.76c-1,.8-1.25,1.07-1.25,1.64A2,2,0,0,1,52.64,36Z"/><path class="cls-4" d="M38.94,36a2,2,0,0,1-2-2,5.89,5.89,0,0,1,2.75-4.76c1-.8,1.25-1.07,1.25-1.64s-.25-.84-1.25-1.63a5.88,5.88,0,0,1-2.75-4.76,5.88,5.88,0,0,1,2.75-4.76c1-.8,1.25-1.07,1.25-1.64s-.25-.84-1.25-1.64A5.89,5.89,0,0,1,36.94,8.4a5.89,5.89,0,0,1,2.75-4.76c1-.8,1.25-1.08,1.25-1.64a2,2,0,0,1,4,0,5.89,5.89,0,0,1-2.75,4.76c-1,.8-1.25,1.08-1.25,1.64s.25.84,1.25,1.64a5.89,5.89,0,0,1,2.75,4.76,5.89,5.89,0,0,1-2.75,4.76c-1,.8-1.25,1.08-1.25,1.64s.25.84,1.25,1.63a5.88,5.88,0,0,1,2.75,4.76,5.88,5.88,0,0,1-2.75,4.76c-1,.8-1.25,1.07-1.25,1.64A2,2,0,0,1,38.94,36Z"/><path class="cls-4" d="M66.34,36a2,2,0,0,1-2-2,5.89,5.89,0,0,1,2.75-4.76c1-.8,1.25-1.07,1.25-1.64s-.25-.84-1.25-1.63a5.88,5.88,0,0,1-2.75-4.76,5.88,5.88,0,0,1,2.75-4.76c1-.8,1.25-1.07,1.25-1.64s-.25-.84-1.25-1.64A5.89,5.89,0,0,1,64.34,8.4a5.89,5.89,0,0,1,2.75-4.76c1-.8,1.25-1.08,1.25-1.64a2,2,0,0,1,4,0,5.89,5.89,0,0,1-2.75,4.76c-1,.8-1.25,1.08-1.25,1.64s.25.84,1.25,1.64a5.89,5.89,0,0,1,2.75,4.76,5.89,5.89,0,0,1-2.75,4.76c-1,.8-1.25,1.08-1.25,1.64s.25.84,1.25,1.63a5.88,5.88,0,0,1,2.75,4.76,5.88,5.88,0,0,1-2.75,4.76c-1,.8-1.25,1.07-1.25,1.64A2,2,0,0,1,66.34,36Z"/><g class="cls-2"><path class="cls-3" d="M55.5,126.5a2,2,0,0,1-2-2v-30a2,2,0,0,1,4,0v30A2,2,0,0,1,55.5,126.5Z"/></g></svg>