<svg id="Слой_1" data-name="Слой 1" xmlns="http://www.w3.org/2000/svg" viewBox="0 0 88.25 94"><defs><style>.cls-1{fill:#b6bdcc;}.cls-2{fill:#dd738c;}.cls-3{fill:#15173f;}.cls-4{fill:#2896e0;}.cls-5{fill:#cbbcb9;}</style></defs><title>sleeping bed</title><path class="cls-1" d="M86.24,16.52a2,2,0,0,1-1.06-.31L66.37,4.36,47.57,16.21a2,2,0,0,1-2.13-3.38L65.3.31a2,2,0,0,1,2.13,0L87.3,12.83a2,2,0,0,1-1.07,3.69Z"/><path class="cls-2" d="M44.5,40.87H88.25a0,0,0,0,1,0,0V44.8a2.7,2.7,0,0,1-2.7,2.7H47.2a2.7,2.7,0,0,1-2.7-2.7V40.87A0,0,0,0,1,44.5,40.87Z"/><path class="cls-3" d="M86.24,78.35H2a2,2,0,0,1-2-2V64.61a2,2,0,0,1,2-2H86.24a2,2,0,0,1,2,2V76.35A2,2,0,0,1,86.24,78.35ZM4,74.35H84.24V66.61H4Z"/><path class="cls-3" d="M2,94a2,2,0,0,1-2-2V50.52a2,2,0,0,1,4,0V92A2,2,0,0,1,2,94Z"/><path class="cls-3" d="M86.24,94a2,2,0,0,1-2-2V57.57a2,2,0,0,1,4,0V92A2,2,0,0,1,86.24,94Z"/><path class="cls-4" d="M25.95,66.61H14.61a9,9,0,1,1,0-18.09H25.95a9,9,0,1,1,0,18.09ZM14.61,52.52a5,5,0,1,0,0,10.09H25.95a5,5,0,1,0,0-10.09Z"/><path class="cls-3" d="M86.24,43.13H46.5a2,2,0,0,1-2-2V14.52a2,2,0,0,1,2-2H86.24a2,2,0,0,1,2,2V41.13A2,2,0,0,1,86.24,43.13Zm-37.73-4H84.24V16.52H48.5Z"/><ellipse class="cls-5" cx="76.19" cy="23.63" rx="3.69" ry="3.63"/></svg>