<svg id="Слой_1" data-name="Слой 1" xmlns="http://www.w3.org/2000/svg" viewBox="0 0 124 99"><defs><style>.cls-1{fill:#15173f;}.cls-2{fill:#2896e0;}.cls-3{opacity:0.3;}.cls-4{fill:#dd738c;}</style></defs><title>bike</title><path class="cls-1" d="M25.45,99a25,25,0,1,1,25-25A25,25,0,0,1,25.45,99Zm0-46a21,21,0,1,0,21,21A21,21,0,0,0,25.45,53Z"/><path class="cls-2" d="M64.23,76H58.69a2,2,0,0,1-2-2A31.44,31.44,0,0,0,41,46.82a8.09,8.09,0,0,1-3.91-5.44,8,8,0,0,1,1.52-6.43L51.15,18.7a8,8,0,0,1,11-1.53L70,22.94a31.73,31.73,0,0,0,18.79,6.22h11.88a2,2,0,0,1,0,4H88.76a35.76,35.76,0,0,1-21.17-7l-7.77-5.77a3.94,3.94,0,0,0-5.5.76L41.75,37.39A3.93,3.93,0,0,0,41,40.6a4.09,4.09,0,0,0,2,2.75A35.46,35.46,0,0,1,60.63,72h3.6a2,2,0,0,1,0,4Z"/><path class="cls-1" d="M99,99a25,25,0,1,1,25-25A25,25,0,0,1,99,99Zm0-46a21,21,0,1,0,21,21A21,21,0,0,0,99,53Z"/><g class="cls-3"><path class="cls-1" d="M99,76a2,2,0,0,1-1.94-1.52L88.4,39.58a2,2,0,0,1,3.88-1L101,73.51A2,2,0,0,1,99,76Z"/></g><ellipse class="cls-4" cx="25.45" cy="74" rx="4.75" ry="4.76"/><path class="cls-2" d="M75.11,19.14a9.57,9.57,0,1,1,9.55-9.57A9.57,9.57,0,0,1,75.11,19.14ZM75.11,4a5.57,5.57,0,1,0,5.55,5.57A5.57,5.57,0,0,0,75.11,4Z"/><path class="cls-2" d="M50.8,51.25A2,2,0,0,1,49.26,48L63.55,30.82a2,2,0,0,1,3.07,2.56L52.33,50.53A2,2,0,0,1,50.8,51.25Z"/><g class="cls-3"><path class="cls-1" d="M20.92,41.25H8a2,2,0,0,1,0-4H20.92a2,2,0,1,1,0,4Z"/></g><g class="cls-3"><path class="cls-1" d="M33.87,26.25H20.92a2,2,0,0,1,0-4H33.87a2,2,0,0,1,0,4Z"/></g><g class="cls-3"><path class="cls-1" d="M6,26.25H2a2,2,0,0,1,0-4H6a2,2,0,1,1,0,4Z"/></g><g class="cls-3"><path class="cls-1" d="M42.83,10.25H16.94a2,2,0,0,1,0-4H42.83a2,2,0,0,1,0,4Z"/></g></svg>