<svg id="Слой_1" data-name="Слой 1" xmlns="http://www.w3.org/2000/svg" viewBox="0 0 119.53 61.78"><defs><style>.cls-1{fill:#dd738c;}.cls-2{fill:#15173f;}.cls-3{fill:#b6bdcc;}.cls-4{fill:#2896e0;}</style></defs><title>binoculars</title><path class="cls-1" d="M25.69,52.44a23.7,23.7,0,0,1-23.41-20,23.69,23.69,0,1,0,47.1,3.67,23.87,23.87,0,0,0-.28-3.67A23.7,23.7,0,0,1,25.69,52.44Z"/><path class="cls-1" d="M93.84,52.44a23.7,23.7,0,0,1-23.41-20,23.69,23.69,0,1,0,46.81,0A23.7,23.7,0,0,1,93.84,52.44Z"/><path class="cls-2" d="M45.39,13.42a2,2,0,0,1-1.77-1.07A15.55,15.55,0,0,0,20.49,7.12a2,2,0,1,1-2.41-3.19,19.55,19.55,0,0,1,29.08,6.56,2,2,0,0,1-1.77,2.93Z"/><path class="cls-2" d="M74.23,13.42a2,2,0,0,1-1.77-2.93,19.55,19.55,0,0,1,29.08-6.56,2,2,0,0,1-2.41,3.19A15.55,15.55,0,0,0,76,12.34,2,2,0,0,1,74.23,13.42Z"/><path class="cls-3" d="M49.38,38.09a2,2,0,0,1,0-4c1.73,0,2.38-1.14,3.54-3.93C54,27.56,55.48,24,59.77,24a2,2,0,0,1,0,4c-1.4,0-2,.88-3.15,3.69S54,38.09,49.38,38.09Z"/><path class="cls-3" d="M70.15,38.09c-4.58,0-6.11-3.7-7.23-6.39S61.16,28,59.77,28a2,2,0,0,1,0-4c4.29,0,5.77,3.56,6.85,6.16,1.16,2.79,1.8,3.93,3.54,3.93a2,2,0,0,1,0,4Z"/><path class="cls-2" d="M25.69,61.78A25.69,25.69,0,1,1,51.38,36.09,25.72,25.72,0,0,1,25.69,61.78Zm0-47.38A21.69,21.69,0,1,0,47.38,36.09,21.72,21.72,0,0,0,25.69,14.4Z"/><path class="cls-4" d="M59.77,21.59A6.59,6.59,0,1,1,66.35,15,6.59,6.59,0,0,1,59.77,21.59Zm0-9.17A2.59,2.59,0,1,0,62.35,15,2.59,2.59,0,0,0,59.77,12.42Z"/><path class="cls-2" d="M93.84,61.78a25.69,25.69,0,1,1,25.69-25.69A25.72,25.72,0,0,1,93.84,61.78Zm0-47.38a21.69,21.69,0,1,0,21.69,21.69A21.72,21.72,0,0,0,93.84,14.4Z"/><path class="cls-3" d="M11.36,35.8a2,2,0,0,1-1.93-2.52c3-11,11.32-12.16,11.68-12.21a2,2,0,0,1,.51,4c-.28,0-6.1,1-8.32,9.28A2,2,0,0,1,11.36,35.8Z"/><path class="cls-3" d="M80.21,35.8a2,2,0,0,1-1.93-2.52c3-11,11.32-12.16,11.68-12.21a2,2,0,0,1,.51,4c-.29,0-6.1,1-8.32,9.28A2,2,0,0,1,80.21,35.8Z"/></svg>