<?xml version="1.0" encoding="utf-8"?>
<!-- Generator: Adobe Illustrator 21.1.0, SVG Export Plug-In . SVG Version: 6.00 Build 0)  -->
<svg version="1.1" id="Слой_1" xmlns="http://www.w3.org/2000/svg" xmlns:xlink="http://www.w3.org/1999/xlink" x="0px" y="0px"
	 viewBox="0 0 124 110" style="enable-background:new 0 0 124 110;" xml:space="preserve">
<style type="text/css">
	.st0{fill:#DD738C;}
	.st1{fill:#B6BDCC;}
	.st2{fill:#15173F;}
	.st3{fill:#2896E0;}
	.st4{fill:#CBBCB9;}
</style>
<title>bird</title>
<path class="st0" d="M75.3,45.8c0,0-20.6,0.3-32.7,22.4c8.4,4.7,12,4.8,12,4.8S57.8,51.6,75.3,45.8z"/>
<path class="st1" d="M107.4,53.6c-1.1,0-2-0.9-2-2c0-0.9,0.6-1.7,1.5-1.9l7.2-1.9l-7.2-1.8c-1.1-0.2-1.8-1.3-1.5-2.4
	c0.2-1.1,1.3-1.8,2.4-1.5c0,0,0.1,0,0.1,0l14.6,3.8c1.1,0.3,1.7,1.4,1.4,2.4c-0.2,0.7-0.7,1.2-1.4,1.4l-14.6,3.9
	C107.8,53.6,107.6,53.6,107.4,53.6z"/>
<path class="st2" d="M87.6,72.6c-1.1,0.1-1.4-0.9-1.5-2c-0.1-1.1,0-1.9,1.1-2c12.4-2.5,18.8-10.3,18.4-22.4c0-0.2,0-0.4,0-0.5
	c0-5-4-9-9-9s-9,4-9,9c0,1.1-0.9,2-2,2s-2-0.9-2-2c0-7.2,5.8-13,13-13s13,5.8,13,13c0,0.1,0,0.2,0,0.4c0.4,14.1-7.2,23.5-21.6,26.5
	C87.8,72.6,87.7,72.6,87.6,72.6z"/>
<path class="st2" d="M54.6,75c-0.2,0-0.3,0-0.5-0.1c-14.9-3.4-27-14.2-32.2-28.6c-0.3-1.1,0.3-2.2,1.3-2.5c0.2-0.1,0.4-0.1,0.6-0.1
	h11.5c1.1,0,2,0.9,2,2s-0.9,2-2,2h-8.6C32,59.5,42.5,68.2,55.1,71.1c1.1,0.3,1.7,1.4,1.5,2.4C56.3,74.4,55.5,75,54.6,75z"/>
<path class="st3" d="M101.7,110c-1.2,0-29.6-0.2-43.5-18.6c-5.3-6.7-7-15.5-4.6-23.7c2.4-8,7.4-14.9,14.1-19.9
	c-17.7,0-24.7-0.1-24.8-0.1c-1,0-1.9-0.7-2-1.7c-0.2-1.2-4-30.2,19.6-45.7c0.9-0.6,2.2-0.4,2.8,0.5c0.1,0.1,0.2,0.3,0.2,0.5
	l40.2,106c0.4,1-0.1,2.2-1.2,2.6C102.2,110,102,110,101.7,110L101.7,110z M76.6,47.3c-0.2,0.1-0.4,0.3-0.6,0.3
	c-7.1,2.8-15.7,10.9-18.6,21.1c-2.1,7-0.6,14.5,3.9,20.2c10.3,13.5,30,16.3,37.4,16.9L76.6,47.3z M44.7,43.7
	c3.7,0,13.1,0.1,30.5,0.1L60.6,5.1C44.3,17.4,44.3,37.8,44.7,43.7z"/>
<path class="st2" d="M7,62c-0.5,0-1-0.2-1.4-0.5C5.3,61.1-2.5,53.8,0.8,45c0.3-0.8,1-1.3,1.9-1.3h21.2c1.1,0,2,0.9,2,2
	c0,0.6-0.3,1.2-0.7,1.5L8.3,61.5C7.9,61.8,7.5,62,7,62z M4.2,47.7c-0.8,4,1.5,7.6,3,9.5l11.2-9.5H4.2z"/>
<ellipse class="st4" cx="97.8" cy="45" rx="2.1" ry="2"/>
<path class="st1" d="M33.2,35H19.5c-1.1,0-2-0.9-2-2c0-1.1,0.9-2,2-2h13.7c1.1,0,2,0.9,2,2C35.2,34.1,34.3,35,33.2,35z"/>
<path class="st1" d="M11.4,35H9.8c-1.1,0-2-0.9-2-2c0-1.1,0.9-2,2-2h1.6c1.1,0,2,0.9,2,2C13.4,34.1,12.5,35,11.4,35z"/>
<path class="st1" d="M35.5,89h-7.9c-1.1,0-2-0.9-2-2s0.9-2,2-2h7.9c1.1,0,2,0.9,2,2S36.6,89,35.5,89z"/>
<path class="st1" d="M45.2,89h-1.6c-1.1,0-2-0.9-2-2s0.9-2,2-2h1.6c1.1,0,2,0.9,2,2S46.3,89,45.2,89z"/>
<path class="st1" d="M33.4,26h-1.6c-1.1,0-2-0.9-2-2s0.9-2,2-2h1.6c1.1,0,2,0.9,2,2S34.5,26,33.4,26z"/>
</svg>
