<svg id="Слой_1" data-name="Слой 1" xmlns="http://www.w3.org/2000/svg" viewBox="0 0 121.81 82.18"><defs><style>.cls-1{fill:#dd738c;}.cls-2{fill:#15173f;}.cls-3{fill:#b6bdcc;}.cls-4{fill:#2896e0;}</style></defs><title>boat</title><path class="cls-1" d="M64,57.29c-25.39,0-47-11-47-11V43.47l0,0V53.81s21.65,11,47,11,47-16.21,47-16.21-2.12-1.59-5.81-3.77C97,49.67,81.37,57.29,64,57.29Z"/><path class="cls-2" d="M64,59.29C38.39,59.29,16.91,48.49,16,48a2,2,0,0,1-1.09-1.78V35.93A2,2,0,0,1,16,34.15c.9-.46,22.38-11.27,47.95-11.27,25.76,0,47.33,15.93,48.24,16.6a2,2,0,0,1,0,3.2C111.29,43.37,89.72,59.29,64,59.29ZM18.92,45c4.66,2.17,23.62,10.31,45,10.31,19.72,0,37.32-10.18,43.5-14.2-6.19-4-23.81-14.21-43.5-14.21-21.42,0-40.38,8.14-45,10.31Z"/><path class="cls-2" d="M58.48,37.69a2,2,0,0,1-1.4-.58L37,17.3a2,2,0,0,1,2.81-2.85L59.89,34.26a2,2,0,0,1-1.4,3.42Z"/><path class="cls-2" d="M33.76,22.46a2,2,0,0,1-1.4-.58l-7.88-7.78a7.16,7.16,0,0,1,0-10.21l1.83-1.8a7.34,7.34,0,0,1,10.27,0l7.88,7.78a2,2,0,0,1,0,2.85l-9.29,9.17A2,2,0,0,1,33.76,22.46ZM31.44,4a3.3,3.3,0,0,0-2.33,1l-1.83,1.8a3.16,3.16,0,0,0,0,4.52l6.48,6.39L37,14.46h0l3.2-3.16L33.76,4.94A3.3,3.3,0,0,0,31.44,4Z"/><path class="cls-2" d="M89.51,68.3a2,2,0,0,1-1.4-.58L68,47.91a2,2,0,0,1,2.81-2.85L90.92,64.88a2,2,0,0,1-1.4,3.42Z"/><path class="cls-2" d="M96.48,82.18a7.29,7.29,0,0,1-5.14-2.1l-7.88-7.78a2,2,0,0,1,0-2.85l9.29-9.17a2,2,0,0,1,2.81,0l7.88,7.78a7.16,7.16,0,0,1,0,10.21l-1.83,1.8A7.3,7.3,0,0,1,96.48,82.18Zm-8.77-11.3,6.44,6.35a3.33,3.33,0,0,0,4.66,0l1.83-1.8a3.16,3.16,0,0,0,0-4.52l-6.48-6.39-3.24,3.2h0Zm1.8-4.58h0Z"/><path class="cls-3" d="M46.49,73.34H16.92a2,2,0,0,1,0-4H46.49a2,2,0,0,1,0,4Z"/><path class="cls-3" d="M12.49,18.24H2a2,2,0,0,1,0-4H12.49a2,2,0,0,1,0,4Z"/><path class="cls-3" d="M96.81,10.68H60.67a2,2,0,0,1,0-4H96.81a2,2,0,0,1,0,4Z"/><path class="cls-3" d="M119.81,64.7h-6.57a2,2,0,1,1,0-4h6.57a2,2,0,0,1,0,4Z"/><path class="cls-4" d="M64,49.72a8.63,8.63,0,1,1,8.72-8.63A8.69,8.69,0,0,1,64,49.72Zm0-13.26a4.63,4.63,0,1,0,4.72,4.63A4.68,4.68,0,0,0,64,36.46Z"/></svg>