<svg id="Слой_1" data-name="Слой 1" xmlns="http://www.w3.org/2000/svg" viewBox="0 0 130.04 106"><defs><style>.cls-1{fill:#dd738c;}.cls-2{fill:#2896e0;}.cls-3{fill:#15173f;}.cls-4{opacity:0.3;}</style></defs><title>boots</title><path class="cls-1" d="M122.47,78.13S120,82,108,84c-11.84,2-38,5-51-3-8.39-5.16-36.56-5.29-36.56-5.29L21.63,84s15.9.27,24.64.27S58,93,68,93s26.24-.37,34.12-.37S122,85,122,85Z"/><path class="cls-2" d="M75.5,63.59A2,2,0,0,1,74.25,60l5.29-4.21A2,2,0,0,1,82,58.94l-5.29,4.21A2,2,0,0,1,75.5,63.59Z"/><path class="cls-2" d="M54.88,31.59a2,2,0,0,1-.73-3.86l9.16-3.61a2,2,0,0,1,1.47,3.72l-9.16,3.61A2,2,0,0,1,54.88,31.59Z"/><path class="cls-2" d="M59.56,41a2,2,0,0,1-.89-3.79l7.9-3.89a2,2,0,0,1,1.77,3.59l-7.9,3.89A2,2,0,0,1,59.56,41Z"/><path class="cls-2" d="M64.25,49.47a2,2,0,0,1-1-3.72l7-4.15a2,2,0,1,1,2,3.44l-7,4.15A2,2,0,0,1,64.25,49.47Z"/><path class="cls-2" d="M68.94,57a2,2,0,0,1-1.07-3.69l6.67-4.24a2,2,0,0,1,2.14,3.38L70,56.69A2,2,0,0,1,68.94,57Z"/><path class="cls-3" d="M102.21,105H68.1A20.67,20.67,0,0,1,55,100.31a16.66,16.66,0,0,0-10.55-3.78H20.19a2,2,0,0,1-2-2V84.18c0-.05,0-.1,0-.15.52-13.69,1.2-50.09-1.74-57.46A108.23,108.23,0,0,0,6.36,8.14,2,2,0,0,1,9.64,5.86,110.19,110.19,0,0,1,20.17,25.08c3.45,8.67,2.4,47.51,2.09,57.09h22.2a20.67,20.67,0,0,1,13.09,4.69A16.67,16.67,0,0,0,68.1,90.65H101a32.26,32.26,0,0,0,20.13-7.09,2,2,0,0,1,2.85.36l5.63,7.53a2,2,0,0,1-.49,2.86L123,98.42A36,36,0,0,1,102.21,105Zm-80-12.47H44.46a20.67,20.67,0,0,1,13.09,4.69A16.66,16.66,0,0,0,68.1,101h34.11a32,32,0,0,0,18.48-5.85l.54-.38,3.91-2.62L122,87.93a36.28,36.28,0,0,1-21,6.72H68.1A20.68,20.68,0,0,1,55,90a16.66,16.66,0,0,0-10.55-3.78H22.19Z"/><path class="cls-3" d="M122.38,86.18h-.17A2,2,0,0,1,120.38,84c1.16-13.43-3.25-13.88-13.92-15a86.73,86.73,0,0,1-15.57-2.68C72.55,61.07,62.29,28,60,19.68L18.7,27.79a2,2,0,1,1-.77-3.93l43.13-8.47a2,2,0,0,1,2.33,1.48c.1.4,10.26,40.36,28.61,45.62A82.18,82.18,0,0,0,106.87,65c10.62,1.1,19,2,17.5,19.31A2,2,0,0,1,122.38,86.18Z"/><g class="cls-4"><path class="cls-3" d="M91.44,77.71a2,2,0,0,1-.7-.13c-.17-.06-17.09-6.22-34.67-2.35a2,2,0,1,1-.86-3.91c15.33-3.38,29.77.26,34.94,1.85l2.74-8.52a2,2,0,1,1,3.81,1.22L93.34,76.32a2,2,0,0,1-1.91,1.39Z"/></g><path class="cls-3" d="M47.38,105H20.19a2,2,0,0,1-2-2V93.59a2,2,0,0,1,4,0V101H47.38a2,2,0,0,1,0,4Z"/></svg>