<svg id="Слой_1" data-name="Слой 1" xmlns="http://www.w3.org/2000/svg" viewBox="0 0 84 69.14"><defs><style>.cls-1{fill:#dd738c;}.cls-2{fill:#15173f;}.cls-3{fill:#b6bdcc;}.cls-4{fill:#2896e0;}</style></defs><title>call bell</title><path class="cls-1" d="M42,17.2a39.06,39.06,0,0,0-5.95.45A39,39,0,0,1,69,56.29H80.92A39,39,0,0,0,42,17.2Z"/><path class="cls-2" d="M80.92,58.29H3.08a2,2,0,0,1-2-2,40.92,40.92,0,1,1,81.84,0A2,2,0,0,1,80.92,58.29Zm-75.78-4H78.87a36.91,36.91,0,0,0-73.73,0Z"/><path class="cls-2" d="M80.92,58.29H3.08a2,2,0,0,1,0-4H80.92a2,2,0,0,1,0,4Z"/><path class="cls-3" d="M18.79,46.61A2,2,0,0,1,17,43.72,28,28,0,0,1,31.95,30.1a2,2,0,0,1,1.44,3.73A24,24,0,0,0,20.58,45.51,2,2,0,0,1,18.79,46.61Z"/><path class="cls-4" d="M42,11.6a2,2,0,0,1-2-2V2a2,2,0,0,1,4,0V9.6A2,2,0,0,1,42,11.6Z"/><path class="cls-4" d="M82,69.14H2a2,2,0,0,1,0-4H82a2,2,0,0,1,0,4Z"/></svg>