<svg id="Слой_1" data-name="Слой 1" xmlns="http://www.w3.org/2000/svg" viewBox="0 0 124 82"><defs><style>.cls-1{fill:#dd738c;}.cls-2{fill:#15173f;}.cls-3{opacity:0.3;}.cls-4{fill:#2896e0;}</style></defs><title>camera</title><path class="cls-1" d="M76.52,32.22A24.17,24.17,0,0,1,100.18,51.3a24.19,24.19,0,1,0-47.34,0A24.17,24.17,0,0,1,76.52,32.22Z"/><path class="cls-2" d="M110.39,82H2a2,2,0,0,1-2-2V12.59a2,2,0,0,1,2-2H110.39a2,2,0,0,1,2,2L112,78.82A2,2,0,0,1,110.39,82ZM4,78H108l.37-63.41H4Z"/><path class="cls-2" d="M16.52,4H2A2,2,0,0,1,2,0H16.52a2,2,0,0,1,0,4Z"/><g class="cls-3"><path class="cls-2" d="M28.13,82a2,2,0,0,1-2-2V46.43A15.82,15.82,0,0,0,21,34.77a19.82,19.82,0,0,1-6.46-14.61V12.59a2,2,0,0,1,4,0v7.57a15.81,15.81,0,0,0,5.15,11.66,19.83,19.83,0,0,1,6.46,14.61V80A2,2,0,0,1,28.13,82Z"/></g><path class="cls-4" d="M76.52,72.37A26.07,26.07,0,1,1,102.71,46.3,26.16,26.16,0,0,1,76.52,72.37Zm0-48.15A22.07,22.07,0,1,0,98.71,46.3,22.16,22.16,0,0,0,76.52,24.22Z"/><g class="cls-3"><path class="cls-2" d="M76.52,64.67a2,2,0,1,1,0-4A14.43,14.43,0,0,0,91,46.3a2,2,0,0,1,4,0A18.43,18.43,0,0,1,76.52,64.67Z"/></g><path class="cls-2" d="M122,82H110.39a2,2,0,1,1,0-4H120V36.57L109,26.25a2,2,0,1,1,2.74-2.91l11.61,10.91A2,2,0,0,1,124,35.7V80A2,2,0,0,1,122,82Z"/></svg>