<svg id="Слой_1" data-name="Слой 1" xmlns="http://www.w3.org/2000/svg" viewBox="0 0 124 98"><defs><style>.cls-1{fill:#dd738c;}.cls-2{fill:#15173f;}.cls-3{opacity:0.3;}.cls-4{fill:#2896e0;}</style></defs><title>camping</title><path class="cls-1" d="M2,96S62,47,62,2c0,45,60,94,60,94S74.54,57,62,57,2,96,2,96Z"/><path class="cls-2" d="M122,98a2,2,0,0,1-1.26-.45A257.62,257.62,0,0,1,90.47,67.16C75.41,49.22,65.88,32.48,62,17.2c-3.88,15.28-13.41,32-28.47,50A257.62,257.62,0,0,1,3.27,97.55a2,2,0,1,1-2.53-3.1C1.33,94,60,45.53,60,2a2,2,0,0,1,4,0c0,43.53,58.67,92,59.27,92.45A2,2,0,0,1,122,98Z"/><g class="cls-3"><path class="cls-2" d="M98.72,98H25.28a2,2,0,0,1-2-2V87a2,2,0,0,1,4,0v7H96.72V87a2,2,0,0,1,4,0v9A2,2,0,0,1,98.72,98Z"/></g><path class="cls-4" d="M79.46,98H44.54a2,2,0,0,1-1.66-3.12l17.46-26a2,2,0,0,1,3.32,0l17.46,26A2,2,0,0,1,79.46,98ZM48.29,94H75.71L62,73.59Z"/><path class="cls-2" d="M62,52a6,6,0,1,1,5.58-6A5.81,5.81,0,0,1,62,52Zm0-8a2.06,2.06,0,1,0,1.58,2A1.85,1.85,0,0,0,62,44Z"/></svg>