<svg id="Слой_1" data-name="Слой 1" xmlns="http://www.w3.org/2000/svg" viewBox="0 0 102 124"><defs><style>.cls-1{fill:#dd738c;}.cls-2{fill:#2896e0;}.cls-3{opacity:0.3;}.cls-4{fill:#15173f;}</style></defs><title>campfire</title><polygon class="cls-1" points="14.49 106.15 36.04 112.73 51 108.16 29.66 101.52 14.49 106.15"/><path class="cls-2" d="M51.08,80.34c-13.37,0-24-8.28-27.11-21.09-2.76-11.39.86-25.19,10.44-39.9A117,117,0,0,1,49.7.56a2,2,0,0,1,2.77,0A117,117,0,0,1,67.75,19.35c9.59,14.71,13.2,28.5,10.44,39.9C75.09,72.06,64.45,80.34,51.08,80.34Zm0-75.49C45.17,11,22.56,36.34,27.87,58.31c3.22,13.31,14.52,18,23.22,18s20-4.72,23.22-18C79.62,36.32,57,11,51.08,4.85Z"/><g class="cls-3"><path class="cls-4" d="M51.08,65.49a10.89,10.89,0,0,1-10.79-8.41C37.8,46.75,49.21,35.67,49.7,35.2a2,2,0,0,1,2.77,0c.49.47,11.91,11.55,9.41,21.88A10.89,10.89,0,0,1,51.08,65.49Zm0-25.95c-2.73,3.05-8.42,10.35-6.91,16.6a7.13,7.13,0,0,0,13.81,0C59.39,50.34,54.35,43.17,51.1,39.54Z"/></g><path class="cls-4" d="M72.76,103.52a2,2,0,0,1-.58-3.91l25.33-7.74L95,83.65,51.67,96.89a2,2,0,0,1-1.17-3.83L95.75,79.24a2,2,0,0,1,2.5,1.33l3.67,12a2,2,0,0,1-1.33,2.5l-27.24,8.32A2,2,0,0,1,72.76,103.52Z"/><path class="cls-4" d="M5.67,124a2,2,0,0,1-1.91-1.42l-3.67-12A2,2,0,0,1,1.42,108L29.08,99.6a2,2,0,0,1,1.17,3.83L4.5,111.29,7,119.5l43.42-13.26a2,2,0,0,1,1.17,3.83L6.25,123.91A2,2,0,0,1,5.67,124Z"/><path class="cls-4" d="M96.33,124a2,2,0,0,1-.58-.09L1.42,95.11a2,2,0,0,1-1.33-2.5l3.67-12a2,2,0,0,1,2.5-1.33L100.58,108a2,2,0,0,1,1.33,2.5l-3.67,12A2,2,0,0,1,96.33,124ZM4.5,91.87,95,119.5l2.5-8.21L7,83.65Z"/></svg>