<?xml version="1.0" encoding="utf-8"?>
<!-- Generator: Adobe Illustrator 21.1.0, SVG Export Plug-In . SVG Version: 6.00 Build 0)  -->
<svg version="1.1" id="Слой_1" xmlns="http://www.w3.org/2000/svg" xmlns:xlink="http://www.w3.org/1999/xlink" x="0px" y="0px"
	 viewBox="0 0 117 106" style="enable-background:new 0 0 117 106;" xml:space="preserve">
<style type="text/css">
	.st0{fill:#DD738C;}
	.st1{fill:#15173F;}
	.st2{fill:#2896E0;}
	.st3{opacity:0.3;}
</style>
<title>cocktail</title>
<polygon class="st0" points="68,42.5 83.4,42.7 62.1,70 "/>
<path class="st1" d="M97.9,26.9c0.3-0.3,0.4-0.8,0.4-1.2c0-1.1-0.9-2-2-2H81.8c-1.1,0-2,0.9-2,2s0.9,2,2,2h10.4L61.8,66.4L30.9,27.7
	h37.4c1.1,0,2-0.9,2-2s-0.9-2-2-2H26.8c-0.5,0-0.9,0.2-1.2,0.4c-0.9,0.7-1,1.9-0.3,2.8L59.6,70l0.5,32H36.1c-1.1,0-2,0.9-2,2
	s0.9,2,2,2H87c1.1,0,2-0.9,2-2s-0.9-2-2-2H64l-0.5-31.3L97.9,26.9z"/>
<path class="st2" d="M59,53.5c-0.6,0-1.2-0.3-1.6-0.8L19.7,4H2C0.9,4,0,3.1,0,2s0.9-2,2-2h18.7c0.6,0,1.2,0.3,1.6,0.8l38.3,49.5
	c0.7,0.9,0.5,2.1-0.4,2.8C59.9,53.4,59.4,53.5,59,53.5z"/>
<g class="st3">
	<path class="st1" d="M107.7,106H87c-1.1,0-2-0.9-2-2s0.9-2,2-2h19.1l6.6-37.2H84.1L88,91.2c0.2,1.1-0.6,2.1-1.7,2.3
		s-2.1-0.6-2.3-1.7l-4.2-28.7c-0.2-1.1,0.6-2.1,1.7-2.3c0.1,0,0.2,0,0.3,0H115c1.1,0,2,0.9,2,2c0,0.1,0,0.3,0,0.4l-7.3,41.2
		C109.6,105.3,108.7,106,107.7,106z"/>
</g>
</svg>
