<?xml version="1.0" encoding="utf-8"?>
<!-- Generator: Adobe Illustrator 21.1.0, SVG Export Plug-In . SVG Version: 6.00 Build 0)  -->
<svg version="1.1" id="Слой_1" xmlns="http://www.w3.org/2000/svg" xmlns:xlink="http://www.w3.org/1999/xlink" x="0px" y="0px"
	 viewBox="0 0 114 114" style="enable-background:new 0 0 114 114;" xml:space="preserve">
<style type="text/css">
	.st0{fill:#DD738C;}
	.st1{opacity:0.3;}
	.st2{fill:#15173F;}
	.st3{fill:#2896E0;}
</style>
<title>compass</title>
<path class="st0" d="M57,22.5c21.3,0,39,16.3,40.8,37.5c0.1-1.2,0.2-2.3,0.2-3.5c0-22.6-18.4-41-41-41s-41,18.4-41,41
	c0,1.2,0.1,2.3,0.2,3.5C18,38.8,35.7,22.5,57,22.5z"/>
<g class="st1">
	<path class="st2" d="M98,59h-9c-1.1,0-2-0.9-2-2s0.9-2,2-2h9c1.1,0,2,0.9,2,2S99.1,59,98,59z"/>
</g>
<g class="st1">
	<path class="st2" d="M57,100c-1.1,0-2-0.9-2-2v-9c0-1.1,0.9-2,2-2s2,0.9,2,2v9C59,99.1,58.1,100,57,100z"/>
</g>
<g class="st1">
	<path class="st2" d="M25,59h-9c-1.1,0-2-0.9-2-2s0.9-2,2-2h9c1.1,0,2,0.9,2,2S26.1,59,25,59z"/>
</g>
<g class="st1">
	<path class="st2" d="M57,27c-1.1,0-2-0.9-2-2v-9c0-1.1,0.9-2,2-2s2,0.9,2,2v9C59,26.1,58.1,27,57,27z"/>
</g>
<path class="st2" d="M57,114C25.5,114,0,88.5,0,57S25.5,0,57,0s57,25.5,57,57S88.5,114,57,114z M57,4C27.7,4,4,27.7,4,57
	s23.7,53,53,53s53-23.7,53-53S86.3,4,57,4z"/>
<path class="st2" d="M57,100c-23.7,0-43-19.3-43-43s19.3-43,43-43s43,19.3,43,43S80.7,100,57,100z M57,18c-21.5,0-39,17.5-39,39
	s17.5,39,39,39s39-17.5,39-39S78.5,18,57,18z"/>
<path class="st2" d="M34.4,81.6c-1.1,0-2-0.9-2-2c0-0.4,0.1-0.7,0.3-1l16.2-28.8c0.5-1,1.9-1.5,2.8-1c0.2,0.1-0.1,0.4,0,0.5
	l12.9,12.9c0.8,0.8,0.7,1.6,0,2.4c-0.1,0.1-0.1,0.4-0.3,0.5L35.4,81.4C35,81.6,34.7,81.6,34.4,81.6z M51.1,53.9L39.6,74.4l20.6-11.5
	L51.1,53.9z"/>
<path class="st3" d="M64.1,65.2c-0.2,0.1-0.7,0.1-0.7,0.1c-0.5,0-1-0.2-1.4-0.6L49.2,52c-0.8-0.8-0.8-2,0-2.8
	c0.1-0.1,0.3-0.2,0.4-0.3l29-16.3c1-0.5,2.2-0.2,2.7,0.8c0.3,0.6,0.3,1.3,0,1.9L65,64.5C64.4,65.1,64.2,65.2,64.1,65.2z M53.9,51.1
	l9,9l11.5-20.5L53.9,51.1z"/>
</svg>
