<svg id="Слой_1" data-name="Слой 1" xmlns="http://www.w3.org/2000/svg" viewBox="0 0 126 79.27"><defs><style>.cls-1{fill:#dd738c;}.cls-2{fill:#15173f;}.cls-3{opacity:0.3;}.cls-4{fill:#2896e0;}</style></defs><title>cruise</title><polygon class="cls-1" points="61.58 8.39 50.61 8.39 54 14.93 66 14.93 61.58 8.39"/><polygon class="cls-1" points="40.58 8.39 29.61 8.39 33 14.93 45 14.93 40.58 8.39"/><path class="cls-2" d="M13,61.1a2,2,0,0,1-1.86-1.28L1.83,36A2,2,0,0,1,3.7,33.24H120.75a2,2,0,0,1,1.55,3.26L102.93,60.36a2,2,0,0,1-3.11-2.52l16.72-20.6H6.62l8.21,21.14A2,2,0,0,1,13,61.1Z"/><path class="cls-2" d="M95.07,37.11a2,2,0,0,1-1.43-.61L75.27,17.63H18.33V25a2,2,0,1,1-4,0V15.63a2,2,0,0,1,2-2H76.12a2,2,0,0,1,1.43.61L96.5,33.72a2,2,0,0,1-1.43,3.39Z"/><path class="cls-2" d="M53.41,16.78a2,2,0,0,1-1.83-1.2L46,2.8A2,2,0,0,1,47.81,0h9.33a2,2,0,0,1,1.64.86l8.87,12.78a2,2,0,0,1-3.29,2.28L56.1,4H50.87l4.37,10a2,2,0,0,1-1.83,2.8Z"/><path class="cls-2" d="M32.88,16.78A2,2,0,0,1,31,15.59L25.44,2.8A2,2,0,0,1,27.28,0h9.33a2,2,0,0,1,1.64.86l8.87,12.78a2,2,0,0,1-3.29,2.28L35.56,4H30.34l4.37,10a2,2,0,0,1-1.83,2.8Z"/><g class="cls-3"><path class="cls-2" d="M111.38,48.78H18a2,2,0,0,1,0-4h93.36a2,2,0,0,1,0,4Z"/></g><path class="cls-4" d="M69.79,79.27A11.42,11.42,0,0,1,61.73,76c-1.58-1.33-2.83-2.38-5.49-2.38s-3.91,1-5.49,2.38a11.47,11.47,0,0,1-16.13,0c-1.58-1.33-2.83-2.38-5.49-2.38s-3.91,1-5.49,2.38A11.47,11.47,0,0,1,7.49,76C5.91,74.63,4.66,73.58,2,73.58a2,2,0,0,1,0-4,11.43,11.43,0,0,1,8.07,3.31c1.58,1.33,2.83,2.38,5.49,2.38s3.91-1,5.49-2.38a11.47,11.47,0,0,1,16.13,0c1.58,1.33,2.83,2.38,5.49,2.38s3.91-1,5.49-2.38a11.47,11.47,0,0,1,16.13,0c1.58,1.33,2.83,2.38,5.49,2.38a2,2,0,0,1,0,4Z"/><path class="cls-4" d="M124,79.27A11.42,11.42,0,0,1,115.94,76c-1.58-1.33-2.83-2.38-5.49-2.38s-3.91,1-5.49,2.38a11.47,11.47,0,0,1-16.13,0c-1.58-1.33-2.83-2.38-5.49-2.38s-3.91,1-5.49,2.38a11.47,11.47,0,0,1-16.13,0c-1.58-1.33-2.83-2.38-5.49-2.38a2,2,0,0,1,0-4,11.43,11.43,0,0,1,8.07,3.31c1.58,1.33,2.83,2.38,5.49,2.38s3.91-1,5.49-2.38a11.47,11.47,0,0,1,16.13,0c1.58,1.33,2.83,2.38,5.49,2.38s3.91-1,5.49-2.38a11.47,11.47,0,0,1,16.13,0c1.58,1.33,2.83,2.38,5.49,2.38a2,2,0,0,1,0,4Z"/></svg>