<?xml version="1.0" encoding="utf-8"?>
<!-- Generator: Adobe Illustrator 21.1.0, SVG Export Plug-In . SVG Version: 6.00 Build 0)  -->
<svg version="1.1" id="Слой_1" xmlns="http://www.w3.org/2000/svg" xmlns:xlink="http://www.w3.org/1999/xlink" x="0px" y="0px"
	 viewBox="0 0 120 96" style="enable-background:new 0 0 120 96;" xml:space="preserve">
<style type="text/css">
	.st0{fill:#DD738C;}
	.st1{fill:#B6BDCC;}
	.st2{fill:#15173F;}
	.st3{fill:#2896E0;}
</style>
<title>currency exchange</title>
<ellipse class="st0" cx="14.3" cy="54.2" rx="14.3" ry="14.2"/>
<ellipse class="st0" cx="105.7" cy="41.8" rx="14.3" ry="14.2"/>
<path class="st1" d="M24,21.1c-1.1,0-2-0.9-2-2c0-0.5,0.2-0.9,0.4-1.3c2.8-3.4,6-6.4,9.5-8.9c0.9-0.7,2.1-0.5,2.8,0.3
	c0.7,0.9,0.5,2.1-0.3,2.8c-0.1,0-0.1,0.1-0.2,0.1c-3.3,2.3-6.2,5.1-8.8,8.2C25.2,20.8,24.6,21.1,24,21.1z"/>
<path class="st1" d="M16.4,34.3c-1.1,0-2-0.9-2-2c0-0.2,0-0.5,0.1-0.7c0.6-1.6,1.2-3.2,2-4.8c0.5-1,1.7-1.4,2.7-0.9s1.4,1.7,0.9,2.7
	l0,0c-0.7,1.4-1.3,2.9-1.8,4.4C18,33.8,17.3,34.3,16.4,34.3z"/>
<path class="st1" d="M79.3,91.8c-1.1,0-2-0.8-2-2c0-0.8,0.5-1.6,1.2-1.9c4.7-2.1,9-5.1,12.8-8.8c0.7-0.8,2-0.9,2.8-0.1
	c0.8,0.7,0.9,2,0.1,2.8c0,0-0.1,0.1-0.1,0.1c-4,4-8.7,7.2-13.9,9.6C79.8,91.8,79.6,91.8,79.3,91.8z"/>
<path class="st1" d="M101.3,70.8c-1.1,0-2-0.9-2-2c0-0.3,0.1-0.6,0.2-0.9c1.1-2.1,1.9-4.2,2.7-6.4c0.3-1.1,1.5-1.6,2.5-1.3
	s1.6,1.5,1.3,2.5c-0.8,2.4-1.7,4.7-2.9,7C102.7,70.5,102,70.9,101.3,70.8z"/>
<path class="st2" d="M60,92c-22.8,0.1-41.6-17.2-44.1-39.3l4.7,4.2c0.8,0.7,2.1,0.7,2.8-0.2c0.7-0.8,0.7-2.1-0.2-2.8L15,46.5
	c0,0-0.1,0-0.1-0.1c-0.1,0-0.1-0.1-0.2-0.1c-0.1,0-0.1-0.1-0.2-0.1c-0.1,0-0.1-0.1-0.2-0.1c-0.1,0-0.2-0.1-0.2-0.1c0,0-0.1,0-0.1,0
	c-0.1,0-0.2,0-0.3,0c0,0,0,0,0,0c0,0,0,0,0,0c0,0-0.1,0-0.1,0c-0.1,0-0.1,0-0.2,0c0,0-0.1,0-0.1,0c-0.1,0-0.2,0.1-0.3,0.1
	c0,0-0.1,0-0.1,0c-0.1,0-0.1,0.1-0.2,0.1c0,0-0.1,0.1-0.1,0.1c-0.1,0-0.1,0.1-0.2,0.1c-0.1,0-0.1,0.1-0.1,0.2c0,0,0,0-0.1,0.1
	L4.7,56c-0.3,0.4-0.4,0.8-0.4,1.2c0,1.1,0.9,2,2,2c0.6,0,1.2-0.3,1.5-0.8l4.2-5.2C14.7,77.4,35.2,96.1,60,96c1.1,0,2-0.9,2-2
	S61.1,92,60,92z"/>
<path class="st2" d="M115,37.3c-0.9-0.7-2.1-0.6-2.8,0.3l-4.2,5.2c-0.5-4-1.4-8-2.9-11.7C95.5,6.1,67.5-6.4,42.6,3.2
	c-0.9,0.4-1.4,1.5-1.1,2.4c0.3,1.1,1.5,1.6,2.5,1.3C49,5,54.2,4,59.5,4c22.9-0.2,42,17,44.5,39.3l-4.7-4.2c-0.8-0.7-2.1-0.7-2.8,0.2
	c-0.7,0.8-0.7,2.1,0.2,2.8l8.3,7.4c0,0,0.1,0,0.1,0.1c0.1,0,0.1,0.1,0.2,0.1c0,0,0.1,0.1,0.1,0.1c0.1,0,0.1,0.1,0.2,0.1
	c0.1,0,0.1,0,0.2,0.1c0.1,0,0.1,0,0.2,0c0.1,0,0.2,0,0.4,0l0.2,0c0.5,0,1-0.3,1.4-0.7l7.4-9.2C116,39.2,115.9,38,115,37.3z"/>
<path class="st3" d="M60,46C60,46,60,46,60,46c-4.6,0-8.2-3.7-8.2-8.3c0-4.5,3.7-8.2,8.3-8.1c4.5,0,8.2,3.7,8.1,8.3c0,1.1,0.9,2,2,2
	s2-0.9,2-2c0-6-4.4-11-10.2-12v-5.6c0-1.1-0.9-1.9-2-1.9s-2,0.9-2,1.9v5.6c-5.7,1-10,5.9-10,11.9c0,6.7,5.4,12.2,12,12.2
	c0,0,0,0,0.1,0c4.5,0,8.2,3.7,8.1,8.3c0,4.5-3.7,8.2-8.3,8.1c-4.5,0-8.2-3.7-8.1-8.3c0-1.1-0.9-2-2-2s-2,0.9-2,2
	c0,6,4.4,11,10.2,11.9v5.7c0,1,0.9,1.9,2,1.9s2-0.8,2-1.9v-5.7c5.7-1,10.1-5.9,10.1-11.9C72.1,51.4,66.7,46,60,46z"/>
</svg>
