<?xml version="1.0" encoding="utf-8"?>
<!-- Generator: Adobe Illustrator 21.1.0, SVG Export Plug-In . SVG Version: 6.00 Build 0)  -->
<svg version="1.1" id="Слой_1" xmlns="http://www.w3.org/2000/svg" xmlns:xlink="http://www.w3.org/1999/xlink" x="0px" y="0px"
	 viewBox="0 0 124 104" style="enable-background:new 0 0 124 104;" xml:space="preserve">
<style type="text/css">
	.st0{fill:#B6BDCC;}
	.st1{fill:#DD738C;}
	.st2{fill:#15173F;}
	.st3{fill:#2896E0;}
</style>
<title>customs</title>
<path class="st0" d="M35.2,104c-1.1,0-2-0.9-2-2c0-0.4,0.1-0.8,0.3-1.1L52.2,72c0.6-0.9,1.8-1.2,2.8-0.6c0.9,0.6,1.2,1.8,0.6,2.7
	l-18.6,28.9C36.5,103.7,35.9,104,35.2,104z"/>
<path class="st1" d="M50.1,68.5c0,0-12.9,7.2-29.4,0c0,0,4.9-3.3,5.2-11.5c5.5,1.4,14.8,2.8,19.5,0.9C45.9,64.6,43.5,65.2,50.1,68.5
	z"/>
<path class="st0" d="M35.5,51.6c-2.2,0-4.4-0.5-6.4-1.5c-1-0.5-1.3-1.7-0.8-2.7c0.5-0.9,1.6-1.3,2.6-0.9c4.8,2.4,9.7,0,9.7,0
	c1-0.4,2.2,0,2.6,1.1c0.4,0.9,0,2-0.9,2.5C40.2,51.1,37.9,51.6,35.5,51.6z"/>
<path class="st2" d="M70.4,87.1C69.3,79.1,60,73.8,53.3,69.9c-0.9-0.5-1.9-1.1-2.7-1.6c-5.3-3.1-3.6-10.7-3.5-11c0,0,0,0,0,0
	c6.3-6.6,8.7-18.5,8.7-29.9c0,0,0-0.1,0-0.1c1.5-0.8,2.6-2.1,3.1-3.8c0-0.1,0.1-0.2,0.1-0.3c0.5-0.6,1.2-1.2,1.9-1.7
	c1.9-1.6,4.1-3.3,3.7-5.8c-0.6-3.1-3.2-3.9-8.6-5.5l-3.3-1c-2.7-1-5.3-2.5-7.4-4.5C42.5,2.4,39.5,0,35.2,0h0C30.9,0,27.9,2.4,25,4.7
	c-2.2,1.9-4.7,3.5-7.4,4.5l-3.3,1c-5.4,1.6-8,2.4-8.6,5.5c-0.4,2.5,1.8,4.2,3.7,5.8c0.7,0.5,1.3,1.1,1.9,1.7c0,0.1,0.1,0.2,0.1,0.3
	c0.6,1.9,1.9,3.3,3.6,4.1c0,11.4,2.5,23.2,8.8,29.8c0,0,0,0,0,0c0,0.1,1.8,7.9-3.5,11c-0.8,0.5-1.7,1-2.7,1.6
	c-6.7,3.9-16,9.2-17.1,17.1c-0.7,5.1-0.7,10.2,0,15.2c0.2,1,1,1.7,2,1.7h0.3c1.1-0.2,1.8-1.2,1.6-2.3c-0.6-4.6-0.6-9.3,0-14
	c0.8-6,9.1-10.7,15.1-14.2c1-0.6,1.9-1.1,2.8-1.6C27,69,28,64.1,28.1,60.6c2,1,4.2,1.7,6.7,1.8c0.1,0,0.2,0,0.4,0c0.1,0,0.2,0,0.3,0
	c0.1,0,0.2,0,0.3,0l0,0c0.2,0,0.3,0,0.5-0.1c2.5-0.1,4.6-0.8,6.6-1.8c0,3.5,1,8.4,5.8,11.3c0.8,0.5,1.8,1,2.8,1.6
	c6,3.5,14.3,8.3,15.1,14.2c0.6,4.6,0.6,9.3,0,14c-0.2,1.1,0.6,2.1,1.6,2.3h0.3c1,0,1.8-0.7,2-1.7C71.1,97.2,71.1,92.1,70.4,87.1z
	 M35.1,58.4c-12.2-0.5-15.2-16.6-15.9-25.7c3,2.7,7.9,5.3,16,5.3c8.5,0,13.6-2.9,16.5-5.8C51,41.4,48.1,58.4,35.1,58.4z M49.6,28.6
	C47.5,31,43.2,34,35.2,34c-8.1,0-12.3-3-14.4-5.4c4.8,0.6,9.6,1,14.4,1.1v0C40,29.6,44.8,29.2,49.6,28.6z M11.9,18.3
	c-0.8-0.6-1.6-1.3-2.2-2.1c0.3-0.6,2.6-1.3,5.7-2.2l3.3-1c3.2-1.1,6.2-2.9,8.8-5.2C30.2,5.7,32.3,4,35.2,4c2.9,0,5,1.7,7.6,3.8
	c2.6,2.3,5.5,4,8.8,5.1l3.3,1c3.1,0.9,5.4,1.6,5.7,2.2c-0.6,0.8-1.4,1.5-2.2,2.1c-1.2,0.8-2.3,2-3,3.3c-0.1,0.2-0.2,0.5-0.3,0.8
	c-0.3,0.9-1.1,1.5-2,1.7c-6,1-12,1.5-18,1.7c-6-0.1-12-0.7-17.9-1.6c-0.9-0.1-1.7-0.8-2-1.7c-0.1-0.3-0.2-0.5-0.3-0.8
	C14.2,20.3,13.2,19.2,11.9,18.3z"/>
<path class="st3" d="M118.5,104H81.2c-1.1,0-2-0.9-2-2V91.4c0-1.1,0.9-2,2-2h37.3c1.1,0,2,0.9,2,2V102
	C120.5,103.1,119.6,104,118.5,104z M83.2,100h33.3v-6.6H83.2V100z"/>
<path class="st3" d="M118.3,93.4c-0.5,0-1-0.2-1.4-0.6l-26.4-26c-0.8-0.8-0.8-2,0-2.8c0,0,0,0,0,0l0.8-0.8c4.5-4.5,11.8-4.5,16.4,0
	l12.8,12.6l0,0c4.5,4.4,4.5,11.6,0.1,16.1c0,0-0.1,0.1-0.1,0.1l-0.8,0.8C119.4,93.2,118.9,93.4,118.3,93.4z M94.8,65.4l23.5,23.2
	c2.5-3,2.2-7.3-0.5-10l0,0L105,65.9C102.2,63.2,97.9,63,94.8,65.4L94.8,65.4z"/>
</svg>
