<svg id="Слой_1" data-name="Слой 1" xmlns="http://www.w3.org/2000/svg" viewBox="0 0 82.52 79.25"><defs><style>.cls-1{fill:#dd738c;}.cls-2{fill:#15173f;}.cls-3{fill:#2896e0;}</style></defs><title>directions</title><polygon class="cls-1" points="49.99 37.02 49.99 50.43 61.74 50.43 61.74 37.26 49.99 37.02"/><path class="cls-2" d="M41.26,79.25a2,2,0,0,1-2-2V50.43a2,2,0,0,1,4,0V77.25A2,2,0,0,1,41.26,79.25Z"/><path class="cls-2" d="M61.26,52.43H20.52a2,2,0,0,1-1.5-.68L13.09,45a2,2,0,0,1,0-2.65L19,35.7a2,2,0,0,1,1.5-.68H61.26a2,2,0,0,1,2,2V50.43A2,2,0,0,1,61.26,52.43Zm-39.84-4H59.26V39H21.42l-4.16,4.71Z"/><path class="cls-2" d="M41.26,39a2,2,0,0,1-2-2V25.84a2,2,0,0,1,4,0V37A2,2,0,0,1,41.26,39Z"/><path class="cls-2" d="M41.26,14.43a2,2,0,0,1-2-2V2a2,2,0,0,1,4,0V12.43A2,2,0,0,1,41.26,14.43Z"/><path class="cls-2" d="M80.52,79.25H2a2,2,0,0,1,0-4H80.52a2,2,0,0,1,0,4Z"/><path class="cls-3" d="M61.26,27.84H20.52a2,2,0,0,1-2-2V12.43a2,2,0,0,1,2-2H61.26a2,2,0,0,1,1.5.68l5.93,6.71a2,2,0,0,1,0,2.65l-5.93,6.71A2,2,0,0,1,61.26,27.84Zm-38.74-4H60.36l4.16-4.71-4.16-4.71H22.52Z"/></svg>