<svg id="Слой_1" data-name="Слой 1" xmlns="http://www.w3.org/2000/svg" viewBox="0 0 103.13 97.5"><defs><style>.cls-1{fill:#dd738c;}.cls-2{fill:#15173f;}.cls-3{fill:#2896e0;}.cls-4{opacity:0.3;}</style></defs><title>documents</title><polygon class="cls-1" points="55.97 2 55.97 73 34.13 73 34.13 59.5 44.13 59.5 44.13 8 44.63 8 44.63 2 55.97 2"/><path class="cls-2" d="M44.2,60.86H2a2,2,0,0,1-2-2V2.11a2,2,0,0,1,2-2H44.2a2,2,0,0,1,2,2V58.86A2,2,0,0,1,44.2,60.86ZM4,56.86H42.2V4.11H4Z"/><path class="cls-3" d="M23.1,35.43c-7.19,0-13-5.57-13-12.41s5.85-12.41,13-12.41,13,5.57,13,12.41S30.29,35.43,23.1,35.43Zm0-20.82c-5,0-9,3.77-9,8.41s4.05,8.41,9,8.41,9-3.77,9-8.41S28.08,14.61,23.1,14.61Z"/><path class="cls-3" d="M23.1,35.43c-4.14,0-6-6.43-6-12.41s1.89-12.41,6-12.41,6,6.43,6,12.41S27.25,35.43,23.1,35.43Zm0-20.75c-.67.58-2,3.46-2,8.35s1.36,7.77,2,8.35c.67-.58,2-3.46,2-8.35S23.78,15.25,23.1,14.67Z"/><g class="cls-4"><path class="cls-2" d="M74.88,23.1a2,2,0,0,1,0-4l14.68-.17h0a2,2,0,0,1,0,4l-14.68.17Z"/></g><g class="cls-4"><path class="cls-2" d="M74.73,31.09a2,2,0,0,1,0-4l14.68-.17h0a2,2,0,0,1,0,4l-14.68.17Z"/></g><g class="cls-4"><path class="cls-2" d="M82,82.86a9.29,9.29,0,0,1-6.68-2.74,8.59,8.59,0,0,1-2.51-6.24,9.42,9.42,0,0,1,9.48-9A9.22,9.22,0,0,1,89,67.62a8.59,8.59,0,0,1,2.51,6.24,9.42,9.42,0,0,1-9.48,9Zm.36-14h0A5.4,5.4,0,0,0,76.81,74a4.62,4.62,0,0,0,1.36,3.35,5.55,5.55,0,0,0,9.38-3.52,4.62,4.62,0,0,0-1.36-3.35A5.32,5.32,0,0,0,82.35,68.88Z"/></g><path class="cls-2" d="M101.13,97.5h-67a2,2,0,0,1-2-2v-36a2,2,0,0,1,4,0v34h63V4h-65a2,2,0,0,1,0-4h67a2,2,0,0,1,2,2V95.5A2,2,0,0,1,101.13,97.5Z"/></svg>