<svg id="Слой_1" data-name="Слой 1" xmlns="http://www.w3.org/2000/svg" viewBox="0 0 124 124"><defs><style>.cls-1{fill:#b6bdcc;}.cls-2{fill:#dd738c;}.cls-3{fill:#2896e0;}.cls-4{fill:#15173f;}</style></defs><title>exotic food</title><path class="cls-1" d="M92,96a2,2,0,0,1-1.41-.59A29.74,29.74,0,0,0,74.77,87a2,2,0,0,1-1.44-3.1c10.14-15.2,18.28-17.61,19.18-17.83a2,2,0,0,1,2,.58C105,78,98.38,90.45,93.41,95.41A2,2,0,0,1,92,96ZM78.38,83.68a34.56,34.56,0,0,1,13.47,7.43c2.62-3.37,7.75-12,.51-20.8C87.56,72.3,81.69,79.22,78.38,83.68Z"/><path class="cls-2" d="M75,85c-3,6.35-10,14-22,13C38.91,96.83,30,84,30.13,67.63c0,0,5.63,25.31,27.19,25.31a25,25,0,0,0,17.81-7.5"/><path class="cls-1" d="M88.75,44.31H75.63a2,2,0,0,1,0-4H88.75a4.56,4.56,0,0,0,0-9.12H33.44a8.57,8.57,0,0,1-8.56-8.56,2,2,0,0,1,4,0,4.57,4.57,0,0,0,4.56,4.56H88.75a8.56,8.56,0,0,1,0,17.13Z"/><path class="cls-1" d="M34.23,80a2,2,0,0,1-.82-3.83L52.93,67.4,34.39,56.7a2,2,0,0,1,2-3.46L58.31,65.89a2,2,0,0,1-.18,3.56L35.05,79.83A2,2,0,0,1,34.23,80Z"/><path class="cls-1" d="M49.8,93.8a2,2,0,0,1-1.91-2.59L55.4,67a2,2,0,0,1,3.82,1.19L51.71,92.4A2,2,0,0,1,49.8,93.8Z"/><circle class="cls-3" cx="68.09" cy="52.16" r="3.28"/><path class="cls-4" d="M57.31,94.94a27.31,27.31,0,0,1,0-54.62,2,2,0,0,1,0,4,23.31,23.31,0,1,0,15,41.15L55.9,69a2,2,0,0,1,2.83-2.83l17.9,17.9a2,2,0,0,1,0,2.83A27.13,27.13,0,0,1,57.31,94.94Z"/><path class="cls-1" d="M62,124A62.07,62.07,0,0,1,0,62,61.37,61.37,0,0,1,6.54,34.26a2,2,0,0,1,3.58,1.79A57.41,57.41,0,0,0,4,62,58,58,0,1,0,118.82,50.28a2,2,0,1,1,3.92-.8A62.05,62.05,0,0,1,62,124Z"/><path class="cls-1" d="M94.81,13.76a2,2,0,0,1-1.09-.33A58.13,58.13,0,0,0,41.91,7.57a2,2,0,0,1-1.38-3.75,62.13,62.13,0,0,1,55.38,6.26,2,2,0,0,1-1.1,3.67Z"/><path class="cls-1" d="M42.49,107.66a2,2,0,0,1-.82-.18A49.86,49.86,0,0,1,20.51,89.57a2,2,0,1,1,3.33-2.22A45.87,45.87,0,0,0,43.3,103.84a2,2,0,0,1-.82,3.83Z"/><path class="cls-1" d="M62,111.81a50.29,50.29,0,0,1-8.79-.77,2,2,0,0,1,.7-3.94,46.27,46.27,0,0,0,8.09.71,2,2,0,0,1,0,4Z"/><path class="cls-4" d="M57.31,69.63a2,2,0,0,1-2-2V42.31a2,2,0,0,1,2-2h18.4a8.13,8.13,0,0,1,7.85,10.27c-5,18.05-26,19-26.18,19Zm2-25.31V65.4a32.6,32.6,0,0,0,7.76-2.14C73.7,60.47,78,55.84,79.71,49.51A4,4,0,0,0,79,46a4.12,4.12,0,0,0-3.3-1.64Z"/></svg>