<?xml version="1.0" encoding="utf-8"?>
<!-- Generator: Adobe Illustrator 21.1.0, SVG Export Plug-In . SVG Version: 6.00 Build 0)  -->
<svg version="1.1" id="Слой_1" xmlns="http://www.w3.org/2000/svg" xmlns:xlink="http://www.w3.org/1999/xlink" x="0px" y="0px"
	 viewBox="0 0 124 104" style="enable-background:new 0 0 124 104;" xml:space="preserve">
<style type="text/css">
	.st0{fill:#B6BDCC;}
	.st1{fill:#DD738C;}
	.st2{fill:#2896E0;}
	.st3{fill:#15173F;}
</style>
<title>guide</title>
<path class="st0" d="M38.4,79.7c-8.1-0.1-16.1-2.3-23.1-6.3c-1-0.5-1.3-1.8-0.8-2.7s1.8-1.3,2.7-0.8c23.1,12.8,41.1,0.2,41.2,0.1
	c0.9-0.6,2.1-0.4,2.8,0.4s0.4,2.1-0.4,2.8C54.1,77.5,46.3,79.8,38.4,79.7z"/>
<path class="st0" d="M86.4,104c-1.1,0-2-0.9-2-2V31.7c0-1.1,0.9-2,2-2s2,0.9,2,2V102C88.4,103.1,87.5,104,86.4,104z"/>
<path class="st1" d="M52.3,65.8c0,0-10.4,7.6-28.2-0.2c0,0,3.3-3.7,3.6-12.6c6.7,6.9,16,3.1,21,1C49.3,61.3,48.7,62,52.3,65.8z"/>
<path class="st2" d="M122,33.7H86.4c-1.1,0-2-0.9-2-2V5.1c0-1.1,0.9-2,2-2H122c1.1,0,2,0.9,2,2c0,0.4-0.1,0.7-0.3,1l-7.2,13
	l7.1,11.5c0.6,0.9,0.3,2.2-0.7,2.8C122.7,33.6,122.4,33.7,122,33.7z M88.4,29.7h30l-5.8-9.5c-0.4-0.6-0.4-1.4-0.1-2l6.1-11.1H88.4
	V29.7z"/>
<path class="st3" d="M38.1,46.9c-2.4,0-4.7-0.5-6.9-1.6c-1-0.4-1.6-1.5-1.2-2.6s1.5-1.6,2.6-1.2c0.1,0,0.2,0.1,0.4,0.2
	c5.2,2.6,10.5,0,10.6,0c1-0.5,2.2-0.2,2.7,0.8c0.5,1,0.2,2.2-0.8,2.7c0,0-0.1,0-0.1,0.1C43.1,46.3,40.6,46.9,38.1,46.9z"/>
<path class="st3" d="M75.4,86.1C74.2,77.6,64.3,72,57.1,67.8c-1-0.6-2-1.2-2.9-1.7c-0.1,0-0.1-0.1-0.2-0.1c11-2.2,16.5-7.6,16.7-7.9
	c0.1-0.1,0.2-0.2,0.3-0.4c0.6-0.9,0.3-2.2-0.7-2.7C64.4,51.4,59.5,41.5,58,38.3c1.2-5.3,1.8-11,1.8-16.6c0.1-6.1-2.6-11.8-7.3-15.6
	C48.5,3,43.7,1.3,38.8,1c-0.1,0-0.3,0-0.4,0c-0.1,0-0.2,0-0.3,0c-0.1,0-0.2,0-0.3,0c-0.1,0-0.3,0-0.4,0c-5,0.2-9.8,2-13.7,5.1
	c-4.8,3.8-7.5,9.6-7.3,15.6c0,5.5,0.5,11.2,1.7,16.4C16.6,41,11.6,51.3,5.5,55c-0.1,0.1-0.2,0.2-0.3,0.3c-0.8,0.8-0.8,2-0.1,2.8
	c0.3,0.3,5.7,5.7,16.8,7.9c0,0-0.1,0.1-0.1,0.1c-0.9,0.5-1.9,1.1-2.9,1.7C11.6,71.9,1.7,77.6,0.5,86c-0.8,5.4-0.8,10.9,0,16.3
	c0.2,1,1,1.7,2,1.7h0.3c0,0,0,0,0,0c1.1-0.2,1.8-1.2,1.6-2.3c-0.7-5-0.7-10.1,0-15.1c0.9-6.5,9.8-11.6,16.3-15.4
	c1.1-0.6,2.1-1.2,3-1.7c1.7-1,2.9-2.3,3.8-3.6c0.1-0.1,0.1-0.2,0.2-0.2c1.7-2.6,2.1-5.6,2.1-8.1c2.1,1.2,4.6,1.9,7.3,2.1
	c0.1,0,0.3,0,0.4,0c0.1,0,0.2,0,0.3,0c0.1,0,0.2,0,0.3,0c0.1,0,0.3,0,0.4,0c2.7-0.2,5.1-0.9,7.3-2c0,2.3,0.4,5.1,1.9,7.6
	c0.1,0.3,0.3,0.6,0.5,0.8c0.9,1.3,2.1,2.5,3.7,3.5c1,0.5,2,1.1,3,1.7c6.5,3.7,15.4,8.9,16.3,15.4c0.7,5,0.7,10.1,0,15.1
	c-0.2,1.1,0.6,2.1,1.6,2.3h0.3c1,0,1.8-0.7,2-1.7C76.1,96.9,76.1,91.5,75.4,86.1z M66,56.8c-4.5,3-9.6,5-15,5.7
	c-1.5-3.3-0.9-7.2-0.7-8.2c2.6-2.7,4.6-6.3,6.1-10.3C58.3,47.7,61.6,53.1,66,56.8z M38,55.7c-9.4-0.2-13.8-8.9-15.9-17.5
	c0-0.3-0.1-0.6-0.2-0.8c-0.5-2.3-0.9-4.6-1.1-6.7c8.6-3.2,16.4-8.2,22.8-14.6c2.6,6.8,8.3,14.8,11.1,18.6
	C52.9,44.3,48.6,55.4,38,55.7z M55.8,21.8c0,1.3-0.1,4-0.4,7.2c-3.1-4.4-7.4-11.2-8.8-16.2c1-1.2,2-2.4,3-3.7
	C53.3,11.9,55.8,16.1,55.8,21.8z M38,5c2.9,0,5.8,0.7,8.4,2c-2.7,3.6-11.6,14.1-26,19.7c-0.1-2.2-0.2-4-0.2-5C20.2,11,29.3,5.2,38,5
	z M19.6,43.8c1.5,4.1,3.5,7.7,6.1,10.4c0.2,0.9,0.8,4.9-0.7,8.3c-5.4-0.7-10.6-2.6-15.1-5.7C14,53.3,17.4,47.8,19.6,43.8z"/>
</svg>
