<?xml version="1.0" encoding="utf-8"?>
<!-- Generator: Adobe Illustrator 21.1.0, SVG Export Plug-In . SVG Version: 6.00 Build 0)  -->
<svg version="1.1" id="Слой_1" xmlns="http://www.w3.org/2000/svg" xmlns:xlink="http://www.w3.org/1999/xlink" x="0px" y="0px"
	 viewBox="0 0 124 68" style="enable-background:new 0 0 124 68;" xml:space="preserve">
<style type="text/css">
	.st0{fill:#B6BDCC;}
	.st1{fill:#DD738C;}
	.st2{fill:#2896E0;}
	.st3{fill:#15173F;}
</style>
<title>hang-glider</title>
<path class="st0" d="M80.4,68c-0.8,0-1.6-0.5-1.9-1.3l-7.2-20.1c-0.4-1,0.2-2.2,1.2-2.6s2.2,0.2,2.6,1.2l7.2,20.1
	c0.4,1-0.2,2.2-1.2,2.6C80.8,68,80.6,68,80.4,68z"/>
<path class="st0" d="M44.2,68c-1.1,0-2-0.9-2-2c0-0.2,0-0.5,0.1-0.7l7.2-20.1c0.4-1,1.5-1.6,2.6-1.2c1,0.4,1.6,1.5,1.2,2.6L46,66.7
	C45.7,67.5,45,68,44.2,68z"/>
<polygon class="st1" points="62,2 2,43.3 2,53.6 62,12.3 122,53.6 122,43.3 "/>
<path class="st2" d="M61.8,33.6c-3.3,0.1-6.1-2.4-6.2-5.7c-0.1-3.3,2.4-6.1,5.7-6.2c3.3-0.1,6.1,2.4,6.2,5.7c0,0.1,0,0.2,0,0.3
	C67.5,30.8,65,33.5,61.8,33.6z M61.8,25.7c-1.1-0.2-2.1,0.6-2.3,1.7c-0.2,1.1,0.6,2.1,1.7,2.3c1.1,0.2,2.1-0.6,2.3-1.7
	c0-0.1,0-0.2,0-0.3C63.5,26.6,62.8,25.8,61.8,25.7z"/>
<path class="st3" d="M123.1,41.6l-60-41.3c-0.7-0.5-1.6-0.5-2.3,0l-60,41.3C0.3,42,0,42.6,0,43.3v16.5c0,1.1,0.9,2,2,2
	c0.2,0,0.4,0,0.5-0.1l52.3-14.7c-0.3,3.6,0,6.9,0.2,7.9c0.2,1.9,1.6,11.4,6.8,11.4c5.2,0,6.6-9.4,6.8-11.4c0.1-1.1,0.5-4.6,0.1-8.3
	l52.8,15.1c0.2,0.1,0.4,0.1,0.5,0.1c1.1,0,2-0.9,2-2V43.3C124,42.6,123.7,42,123.1,41.6z M14.3,54.3L4,57.2V44.3l10.3-7.1V54.3z
	 M64.6,54.5c-0.5,4.6-2.1,7.7-2.8,7.9c-0.7-0.2-2.3-3.3-2.8-7.9c-0.6-5.2-0.2-11.5,1.7-13.6c0.3-0.4,0.7-0.6,1.1-0.6v0
	c0.5,0,0.9,0.2,1.2,0.6C64.8,43,65.2,49.3,64.6,54.5z M105.3,52.9L68.4,42.4c-0.1,0-0.3-0.1-0.4-0.1c-0.4-1.6-1.1-3-2.1-4.1
	c-0.2-0.2-0.4-0.4-0.6-0.6c-2.3-2-5.7-1.7-7.7,0.6c-1,1.1-1.7,2.7-2.1,4.5L18.3,53.2V34.5L62,4.4l43.3,29.8V52.9z M120,57.2
	l-10.7-3.1V36.9l10.7,7.4V57.2z"/>
</svg>
