<svg id="Слой_1" data-name="Слой 1" xmlns="http://www.w3.org/2000/svg" viewBox="0 0 124.01 104"><defs><style>.cls-1{fill:#dd738c;}.cls-2{fill:#15173f;}.cls-3{fill:#b6bdcc;}.cls-4{fill:#2896e0;}</style></defs><title>police</title><path class="cls-1" d="M62,58.67S46,58.67,19.08,54C32.46,68.67,62,68.67,62,68.67S91.59,68.67,105,54C78.08,58.67,62,58.67,62,58.67Z"/><path class="cls-2" d="M62,60.67H62c-13.69,0-30.92-2.29-40-3.66a11.69,11.69,0,0,1-9.63-8.27,9.17,9.17,0,0,0-.34-1c-.5-1.24-2.76-3.09-4.75-4.71C3.4,39.87-.61,36.59.08,32.5,1,27.1,6,25.58,17.13,22.26c2.12-.63,4.49-1.35,7.13-2.17,6.9-2.15,12-6.28,17-10.27C47.52,4.78,53.43,0,62,0H62c8.53,0,14.44,4.78,20.7,9.82,5,4,10.09,8.12,17,10.27,2.65.82,5,1.54,7.13,2.17C118,25.58,123,27.1,123.93,32.5c.69,4.09-3.32,7.37-7.2,10.54-2,1.63-4.25,3.47-4.75,4.71a9.17,9.17,0,0,0-.34,1A11.69,11.69,0,0,1,102,57C93,58.37,75.73,60.66,62,60.67ZM62,4c-7.14,0-12.28,4.15-18.24,8.94-5,4-10.68,8.6-18.32,11-2.66.83-5,1.54-7.17,2.18C7.83,29.23,4.5,30.35,4,33.17c-.3,1.8,3.22,4.67,5.78,6.77s5,4.12,5.92,6.31a13.22,13.22,0,0,1,.48,1.41,7.69,7.69,0,0,0,6.38,5.39c9,1.35,26,3.61,39.42,3.62s30.46-2.27,39.41-3.62a7.69,7.69,0,0,0,6.38-5.39,13.22,13.22,0,0,1,.48-1.41c.89-2.19,3.33-4.19,5.92-6.31s6.09-5,5.78-6.77c-.48-2.81-3.8-3.94-14.26-7.07-2.13-.64-4.51-1.35-7.17-2.18-7.63-2.38-13.31-6.94-18.32-11C74.29,8.15,69.15,4,62,4Z"/><path class="cls-3" d="M62,49a2,2,0,0,1-.82-.18c-12.16-5.44-13-22.68-13-23.41a2,2,0,0,1,.82-1.7A23.52,23.52,0,0,1,62,20a2,2,0,1,1,0,4,20.48,20.48,0,0,0-9.73,2.39c.39,3.66,2.25,15.07,10.55,18.78A2,2,0,0,1,62,49Z"/><path class="cls-3" d="M62,49a2,2,0,0,1-.82-3.83c8.29-3.71,10.16-15.11,10.55-18.77A20.68,20.68,0,0,0,62,24a2,2,0,1,1,0-4,23.52,23.52,0,0,1,13,3.71,2,2,0,0,1,.82,1.7c0,.73-.85,18-13,23.41A2,2,0,0,1,62,49Z"/><path class="cls-2" d="M62,79C28,79,20.71,56.87,20.42,55.93a2,2,0,0,1,3.82-1.2C24.51,55.59,31.1,75,62,75c31.11,0,37.73-20.06,37.79-20.26a2,2,0,0,1,3.82,1.19C103.35,56.87,96.05,79,62,79Z"/><path class="cls-4" d="M62,104c-10,0-18.22-6.49-18.22-14.47a2,2,0,0,1,4,0C47.81,95.3,54.19,100,62,100s14.22-4.7,14.22-10.47a2,2,0,0,1,4,0C80.25,97.51,72.07,104,62,104Z"/></svg>