<svg id="Слой_1" data-name="Слой 1" xmlns="http://www.w3.org/2000/svg" viewBox="0 0 103 92.12"><defs><style>.cls-1{fill:#dd738c;}.cls-2{fill:#2896e0;}.cls-3{fill:#15173f;}</style></defs><title>pool</title><rect class="cls-1" x="4.85" y="42.91" width="93.33" height="5.48"/><path class="cls-2" d="M93.94,92.12a12.14,12.14,0,0,1-8.32-3.24c-1.67-1.33-3-2.38-5.84-2.38s-4.17,1-5.84,2.38a12.31,12.31,0,0,1-16.65,0c-1.67-1.33-3-2.38-5.84-2.38s-4.17,1-5.84,2.38a12.31,12.31,0,0,1-16.66,0c-1.67-1.33-3-2.38-5.84-2.38a2,2,0,1,1,0-4,12.15,12.15,0,0,1,8.33,3.24c1.67,1.33,3,2.38,5.84,2.38s4.17-1,5.84-2.38a12.31,12.31,0,0,1,16.65,0c1.67,1.33,3,2.38,5.84,2.38s4.17-1,5.84-2.38a12.3,12.3,0,0,1,16.65,0c1.67,1.33,3,2.38,5.84,2.38a2,2,0,0,1,0,4Z"/><path class="cls-3" d="M101,44.91H2a2,2,0,0,1,0-4h99a2,2,0,1,1,0,4Z"/><path class="cls-3" d="M70.17,76.38a2,2,0,0,1-2-2V10.26a10.3,10.3,0,0,1,20.6,0V42.54a2,2,0,0,1-4,0V10.26a6.3,6.3,0,0,0-12.6,0V74.38A2,2,0,0,1,70.17,76.38Z"/><path class="cls-3" d="M40.13,76.38a2,2,0,0,1-2-2V10.26a10.3,10.3,0,0,1,20.6,0V42.54a2,2,0,0,1-4,0V10.26a6.3,6.3,0,0,0-12.6,0V74.38A2,2,0,0,1,40.13,76.38Z"/><path class="cls-3" d="M70.17,55.13h-30a2,2,0,0,1,0-4h30a2,2,0,0,1,0,4Z"/><path class="cls-3" d="M70.17,65.36h-30a2,2,0,0,1,0-4h30a2,2,0,0,1,0,4Z"/></svg>