<?xml version="1.0" encoding="utf-8"?>
<!-- Generator: Adobe Illustrator 21.1.0, SVG Export Plug-In . SVG Version: 6.00 Build 0)  -->
<svg version="1.1" id="Слой_1" xmlns="http://www.w3.org/2000/svg" xmlns:xlink="http://www.w3.org/1999/xlink" x="0px" y="0px"
	 viewBox="0 0 142 82.9" style="enable-background:new 0 0 142 82.9;" xml:space="preserve">
<style type="text/css">
	.st0{fill:#DD738C;}
	.st1{fill:#B6BDCC;}
	.st2{fill:#15173F;}
	.st3{fill:#2896E0;}
</style>
<title>quadcopter</title>
<path class="st0" d="M111.2,26.9v-0.8c-10,0-12.3-1.1-22.3,2.3s-8.9,6.9-19,6.9c-10,0-8.9-3.5-19-6.9s-12.3-2.3-22.2-2.3v6
	c10,0,12.3-1.1,22.3,2.3s8.9,6.9,19,6.9s8.9-3.5,19-6.9s12.3-2.3,22.3-2.3V21.5L111.2,26.9z"/>
<path class="st1" d="M99.2,82.9H69.9c-1.1,0-2-0.9-2-2s0.9-2,2-2h29.3c2.9,0,5.6-1.4,7.4-3.8c2.3-3.1,3.1-7.1,2.2-10.9
	c-2.3-9-6.9-21.5-16.4-29.8c-0.9-0.7-0.5-1.6,0.5-1.9c1.5-0.5,0.6-1.2,1.5-0.5c0.1,0.1,1.3,0,0.6-0.6c10.3,9,15.3,22.3,17.7,31.8
	c1.3,5,0.2,10.2-2.9,14.3C107.2,80.9,103.3,82.8,99.2,82.9z"/>
<path class="st1" d="M69.9,82.9H40.6c-4.1,0-8-2-10.5-5.3c-3.1-4.1-4.2-9.3-2.9-14.3c2.4-9.6,7.4-22.9,17.7-31.8
	c0.8-0.8,2-0.8,2.8,0c0.8,0.8,0.8,2,0,2.8c-0.1,0.1-0.1,0.1-0.2,0.2C38,42.7,33.3,55.2,31,64.2c-1,3.8-0.2,7.8,2.2,10.9
	c1.7,2.3,4.4,3.8,7.4,3.8h29.4c1.1,0,2,0.9,2,2S71,82.9,69.9,82.9z"/>
<path class="st2" d="M71,43.3c-6.8,0-9.1-1.4-12.2-3.3c-2.5-1.6-5.1-2.8-7.9-3.7c-7.6-2.6-10.5-2.5-16.2-2.3c-1.7,0-3.6,0.1-5.9,0.1
	c-1.1,0-2.1-0.9-2.1-2c0-1.1,0.9-2,2.1-2c2.3,0,4.1-0.1,5.8-0.1c5.8-0.2,9.4-0.3,17.7,2.5c3.1,1,6,2.4,8.7,4.1
	c2.8,1.7,4.4,2.7,10,2.7c5.6,0,7.3-1,10-2.7c2.7-1.7,5.6-3.1,8.7-4.1c8.3-2.8,11.9-2.7,17.7-2.5c1.1,0,2.4,0.1,3.8,0.1v-6.5
	c-1.4,0-2.6,0.1-3.8,0.1c-5.8,0.2-9.4,0.3-17.7-2.5c-3.1-1-6-2.4-8.7-4.2c-2.8-1.7-4.4-2.7-10-2.7c-5.6,0-7.3,1-10,2.7
	c-2.7,1.7-5.6,3.1-8.7,4.1c-8.3,2.8-11.9,2.7-17.7,2.5c-1.7,0-3.5-0.1-5.8-0.1c-1.1,0-2.1-0.9-2.1-2s0.9-2,2.1-2
	c2.3,0,4.2,0.1,5.9,0.1c5.7,0.2,8.6,0.3,16.2-2.3c2.8-0.9,5.4-2.2,7.9-3.7c3.1-1.8,5.4-3.3,12.2-3.3c6.8,0,9.1,1.4,12.2,3.3
	c2.5,1.6,5.1,2.8,7.9,3.7c7.6,2.6,10.5,2.5,16.2,2.3c1.7,0,3.6-0.1,5.9-0.1c1.1,0,2.1,0.9,2.1,2v10.5c0,1.1-0.9,2-2.1,2
	c-2.3,0-4.2-0.1-5.9-0.1c-5.7-0.2-8.6-0.3-16.2,2.3c-2.8,0.9-5.4,2.2-7.9,3.7C80.2,41.8,77.8,43.3,71,43.3z"/>
<path class="st2" d="M120.2,43.1h-1.6c-4,0-7.3-3.3-7.3-7.3V11.2c0-1.1,0.9-2,2-2h12.2c1.1,0,2,0.9,2,2v24.6
	C127.5,39.8,124.3,43.1,120.2,43.1z M115.3,13.2v22.6c0,1.8,1.5,3.3,3.3,3.3h1.6c1.8,0,3.3-1.5,3.3-3.3V13.2L115.3,13.2z"/>
<path class="st2" d="M23.4,43.1h-1.6c-4,0-7.3-3.3-7.3-7.3V11.2c0-1.1,0.9-2,2-2h12.2c1.1,0,2,0.9,2,2v24.6
	C30.7,39.8,27.4,43.1,23.4,43.1z M18.5,13.2v22.6c0,1.8,1.5,3.3,3.3,3.3h1.6c1.8,0,3.3-1.5,3.3-3.3V13.2H18.5z"/>
<path class="st3" d="M43.2,4H2C0.9,4,0,3.1,0,2s0.9-2,2-2h41.2c1.1,0,2,0.9,2,2S44.3,4,43.2,4z"/>
<path class="st3" d="M140,4H98.8c-1.1,0-2-0.9-2-2s0.9-2,2-2H140c1.1,0,2,0.9,2,2S141.1,4,140,4z"/>
<path class="st1" d="M75.8,72.9H64.2c-4,0-7.2-3.2-7.2-7.2V54.1c0-4,3.2-7.2,7.2-7.2h11.5c4,0,7.2,3.2,7.2,7.2v11.5
	C83,69.6,79.8,72.9,75.8,72.9z M64.2,50.9c-1.8,0-3.2,1.5-3.2,3.2v0v11.5c0,1.8,1.5,3.2,3.2,3.2l0,0h11.5c1.8,0,3.2-1.5,3.2-3.2v0
	V54.1c0-1.8-1.5-3.2-3.2-3.2L64.2,50.9z"/>
<path class="st2" d="M70,65.9c-3.3,0-6-2.7-6-6s2.7-6,6-6s6,2.7,6,6S73.3,65.9,70,65.9z M70,57.9c-1.1,0-2,0.9-2,2s0.9,2,2,2
	s2-0.9,2-2S71.1,57.9,70,57.9z"/>
</svg>
