<svg id="Слой_1" data-name="Слой 1" xmlns="http://www.w3.org/2000/svg" viewBox="0 0 122 93.99"><defs><style>.cls-1{fill:#dd738c;}.cls-2{fill:#15173f;}.cls-3{fill:#2896e0;}.cls-4{fill:#b6bdcc;}</style></defs><title>sea misc</title><path class="cls-1" d="M41.52,68.3,32.26,78.61a3.55,3.55,0,0,1-6.19-2.7l1.39-13.74a14.82,14.82,0,0,0-8.86-15.06L5.87,41.56a3.68,3.68,0,0,1-.78-.47l-2.3.5a3.52,3.52,0,0,0-.67,6.68l12.73,5.55a14.82,14.82,0,0,1,8.86,15.06L22.33,82.62a3.55,3.55,0,0,0,6.19,2.7L37.77,75A15,15,0,0,1,54.93,71.3l12.73,5.56a3.54,3.54,0,0,0,4.5-5L71.07,70,58.68,64.6A15,15,0,0,0,41.52,68.3Z"/><path class="cls-2" d="M29.65,81.81a5.66,5.66,0,0,1-2.29-.49,5.45,5.45,0,0,1-3.27-5.6L25.47,62a12.79,12.79,0,0,0-7.67-13L5.07,43.39a5.52,5.52,0,0,1,1-10.46L19.71,30A12.84,12.84,0,0,0,29.84,18.72L31.22,5A5.56,5.56,0,0,1,41.54,2.74h0l7,11.93a13,13,0,0,0,13.93,6.08l13.59-2.94a5.53,5.53,0,0,1,5.32,9.08L72.13,37.2a12.73,12.73,0,0,0-1.51,15l7,11.92a5.54,5.54,0,0,1-7,7.85L57.88,66.43A13,13,0,0,0,43,69.64L33.75,79.95A5.48,5.48,0,0,1,29.65,81.81ZM36.77,4a1.75,1.75,0,0,0-.37,0A1.49,1.49,0,0,0,35.2,5.38L33.82,19.13A16.83,16.83,0,0,1,20.56,33.9L7,36.84a1.52,1.52,0,0,0-.3,2.89l12.73,5.55a16.78,16.78,0,0,1,10,17.1L28.07,76.11A1.48,1.48,0,0,0,29,77.66a1.52,1.52,0,0,0,1.8-.38L40,67a17,17,0,0,1,19.45-4.21l12.73,5.55a1.52,1.52,0,0,0,1.8-.39,1.45,1.45,0,0,0,.17-1.77l-7-11.92a16.71,16.71,0,0,1,2-19.71l9.25-10.31a1.44,1.44,0,0,0,.19-1.77,1.51,1.51,0,0,0-1.68-.73L63.33,24.65a16.94,16.94,0,0,1-18.23-8l-7-11.93A1.47,1.47,0,0,0,36.77,4Z"/><path class="cls-3" d="M105.62,68.8a2,2,0,0,1-.47-.06L90,65.07a2,2,0,0,1-1-.64c-.34-.39-8.22-9.71-5.52-20.7a2,2,0,0,1,.22-.53l.3-.51a2.05,2.05,0,0,1,.36-.45,4.39,4.39,0,0,1,4.07-1.17A2.2,2.2,0,0,0,90,40.86a6.89,6.89,0,0,0,.78-1A6.53,6.53,0,0,1,94.26,37a6,6,0,0,1,4,.74,5.54,5.54,0,0,0,1.65.57h0a5.86,5.86,0,0,0,1.29-.53,5.14,5.14,0,0,1,7.75,1.88,5.8,5.8,0,0,0,.89,1.06,5.48,5.48,0,0,0,1.74.25,6,6,0,0,1,3.88,1.17,6.5,6.5,0,0,1,1.73,4.16,6.26,6.26,0,0,0,.25,1.25,2.13,2.13,0,0,0,1.34.91,4.36,4.36,0,0,1,3.08,2.91,2,2,0,0,1,.11.57l0,.59a2,2,0,0,1-.11.77c-4,11.12-15.12,15.23-15.59,15.4A2,2,0,0,1,105.62,68.8Zm-14-7.45,13.85,3.36c2-.88,9.48-4.56,12.48-12.3-.07,0-.3-.11-.46-.17a6,6,0,0,1-3.33-2.42,6.63,6.63,0,0,1-.92-3,4.56,4.56,0,0,0-.45-1.75,8,8,0,0,0-1.41-.14,7.91,7.91,0,0,1-3.4-.72A7,7,0,0,1,105.73,42c-.31-.42-.89-1.21-1.15-1.27a4.87,4.87,0,0,0-1.61.6,7.08,7.08,0,0,1-3,.95,8,8,0,0,1-3.35-.92,5.92,5.92,0,0,0-1.37-.51h0c-.25.07-.8.84-1.16,1.34a6.68,6.68,0,0,1-2.18,2.2A6,6,0,0,1,87.8,45a3.78,3.78,0,0,0-.52-.05l0,0C85.55,52.59,90.22,59.5,91.61,61.35Z"/><path class="cls-4" d="M80.88,94a14.12,14.12,0,0,1-8-2.26,6.61,6.61,0,0,1-3-5.49A6.45,6.45,0,0,1,72.26,81c3.25-2.61,8.76-2.09,12.81-1.2h0c3.31.73,5.38,3,5.53,6a7.77,7.77,0,0,1-5.33,7.58A14.27,14.27,0,0,1,80.88,94ZM79,83.1a7,7,0,0,0-4.29,1,2.44,2.44,0,0,0-.88,2.11,2.62,2.62,0,0,0,1.29,2.25c2.26,1.63,6.39,1.87,8.83,1.06A3.81,3.81,0,0,0,86.61,86c-.06-1.16-.87-1.91-2.4-2.25h0A24.42,24.42,0,0,0,79,83.1Z"/><path class="cls-4" d="M98.6,19.9c-3.11,0-6.3-2.32-8.52-4.36h0A5.44,5.44,0,0,1,88.62,8.9a6.49,6.49,0,0,1,7-3.25c2.81.59,6.57,3,8,6.17a5.61,5.61,0,0,1-.21,5.24,5.46,5.46,0,0,1-4,2.78A6,6,0,0,1,98.6,19.9ZM94.35,9.51a2.53,2.53,0,0,0-2.17,1.22c-.11.22-.46.88.62,1.87h0c2.88,2.66,5,3.43,6.09,3.28A1.49,1.49,0,0,0,100,15a1.58,1.58,0,0,0,0-1.59,8.22,8.22,0,0,0-5.15-3.87A2.43,2.43,0,0,0,94.35,9.51Z"/><path class="cls-4" d="M40.38,22.7a2,2,0,0,1-1.94-1.51l-.75-3a2,2,0,0,1,3.88-1l.75,3a2,2,0,0,1-1.45,2.43A2,2,0,0,1,40.38,22.7Z"/><path class="cls-4" d="M63.64,33.12a2,2,0,0,1-1.11-3.67L69.28,25a2,2,0,1,1,2.21,3.34l-6.75,4.47A2,2,0,0,1,63.64,33.12Z"/><path class="cls-4" d="M62.13,59.94a2,2,0,0,1-1.27-.46l-4.5-3.72a2,2,0,1,1,2.55-3.08l4.5,3.72a2,2,0,0,1-1.28,3.54Z"/></svg>