<svg id="Слой_1" data-name="Слой 1" xmlns="http://www.w3.org/2000/svg" viewBox="0 0 82 124"><defs><style>.cls-1{opacity:0.3;}.cls-2{fill:#15173f;}.cls-3{fill:#dd738c;}.cls-4{fill:#2896e0;}</style></defs><title>shopping</title><g class="cls-1"><path class="cls-2" d="M31.5,73h0a2,2,0,0,1-2-2l.33-27.59a2,2,0,0,1,2-2h0a2,2,0,0,1,2,2L33.5,71A2,2,0,0,1,31.5,73Z"/></g><g class="cls-1"><path class="cls-2" d="M51.48,45.41a2,2,0,0,1-2-1.93h0a36.59,36.59,0,0,0-2.71-11.63C43.64,24.58,38.45,20.9,31.35,20.9a14.48,14.48,0,0,0-10.69,4.16c-6.4,6.43-6.4,18.22-6.4,18.34a2,2,0,0,1-2,2h0a2,2,0,0,1-2-2c0-.55,0-13.54,7.55-21.17A18.35,18.35,0,0,1,31.35,16.9c16.79,0,21.82,17.29,22.13,26.44a2,2,0,0,1-1.93,2.07Z"/></g><path class="cls-3" d="M77.65,114.49H3.57l-1,4.75A2.28,2.28,0,0,0,4.8,122H76.9a2.28,2.28,0,0,0,2.16-3Z"/><path class="cls-2" d="M76.9,124H4.8a4.28,4.28,0,0,1-4.18-5.17l2.56-12.25A6.2,6.2,0,0,0,3.3,105L0,43.52a2,2,0,0,1,2-2.11H80a2,2,0,0,1,2,2.16l-4.9,60.95a6.16,6.16,0,0,0,.26,2.35L81,118.43a4.31,4.31,0,0,1-.64,3.83A4.22,4.22,0,0,1,76.9,124ZM4.11,45.41l3.18,59.36a10.18,10.18,0,0,1-.2,2.63L4.53,119.65a.29.29,0,0,0,.06.25.25.25,0,0,0,.2.1H76.9a.25.25,0,0,0,.21-.11.28.28,0,0,0,0-.27l-3.62-11.56a10.14,10.14,0,0,1-.43-3.87l4.73-58.79Z"/><path class="cls-2" d="M18.93,45.41a2,2,0,0,1-2-1.83c-.09-1-2-25.41,8.92-37.26A19.27,19.27,0,0,1,40.56,0h.1a19.27,19.27,0,0,1,14.7,6.32c10.9,11.85,9,36.23,8.92,37.26a2,2,0,0,1-4-.33c0-.24,1.84-23.67-7.88-34.22a15.23,15.23,0,0,0-11.8-5A15.23,15.23,0,0,0,28.8,9c-9.73,10.57-7.89,34-7.87,34.22A2,2,0,0,1,19.1,45.4Z"/><path class="cls-4" d="M39.87,98.18H31.48a2,2,0,0,1,0-4h6.39V79l-7.64-6.16a2,2,0,0,1,2.51-3.12l8.39,6.76a2,2,0,0,1,.75,1.56V96.18A2,2,0,0,1,39.87,98.18Z"/><path class="cls-4" d="M31.48,98.18H23.1a2,2,0,0,1-2-2V78.06a2,2,0,0,1,.75-1.56l8.39-6.76a2,2,0,1,1,2.51,3.11L25.1,79V94.18h6.39a2,2,0,0,1,0,4Z"/></svg>