<svg id="Слой_1" data-name="Слой 1" xmlns="http://www.w3.org/2000/svg" viewBox="0 0 124 124"><defs><style>.cls-1{fill:#dd738c;}.cls-2{fill:#15173f;}.cls-3{fill:#2896e0;}.cls-4{opacity:0.3;}</style></defs><title>sun</title><path class="cls-1" d="M62,29a41.25,41.25,0,0,1,41.05,37.25c.13-1.32.2-2.65.2-4a41.25,41.25,0,0,0-82.5,0c0,1.35.07,2.68.2,4A41.25,41.25,0,0,1,62,29Z"/><path class="cls-2" d="M62,105.25A43.25,43.25,0,1,1,105.25,62,43.3,43.3,0,0,1,62,105.25Zm0-82.5A39.25,39.25,0,1,0,101.25,62,39.29,39.29,0,0,0,62,22.75Z"/><path class="cls-3" d="M62,90.25A28.28,28.28,0,0,1,33.75,62a2,2,0,0,1,4,0,24.25,24.25,0,0,0,48.5,0,2,2,0,0,1,4,0A28.28,28.28,0,0,1,62,90.25Z"/><g class="cls-4"><path class="cls-2" d="M62,124a2,2,0,0,1-2-2v-8.44a2,2,0,0,1,4,0V122A2,2,0,0,1,62,124Z"/></g><g class="cls-4"><path class="cls-2" d="M104.43,106.43a2,2,0,0,1-1.41-.59l-6-6A2,2,0,0,1,99.87,97l6,6a2,2,0,0,1-1.41,3.41Z"/></g><g class="cls-4"><path class="cls-2" d="M122,64h-8.44a2,2,0,0,1,0-4H122a2,2,0,0,1,0,4Z"/></g><g class="cls-4"><path class="cls-2" d="M98.46,27.54A2,2,0,0,1,97,24.13l6-6A2,2,0,0,1,105.84,21l-6,6A2,2,0,0,1,98.46,27.54Z"/></g><g class="cls-4"><path class="cls-2" d="M62,12.44a2,2,0,0,1-2-2V2a2,2,0,0,1,4,0v8.44A2,2,0,0,1,62,12.44Z"/></g><g class="cls-4"><path class="cls-2" d="M25.54,27.54A2,2,0,0,1,24.13,27l-6-6A2,2,0,0,1,21,18.16l6,6a2,2,0,0,1-1.41,3.41Z"/></g><g class="cls-4"><path class="cls-2" d="M10.44,64H2a2,2,0,0,1,0-4h8.44a2,2,0,0,1,0,4Z"/></g><g class="cls-4"><path class="cls-2" d="M19.57,106.43A2,2,0,0,1,18.16,103l6-6A2,2,0,0,1,27,99.87l-6,6A2,2,0,0,1,19.57,106.43Z"/></g></svg>