<?xml version="1.0" encoding="utf-8"?>
<!-- Generator: Adobe Illustrator 21.1.0, SVG Export Plug-In . SVG Version: 6.00 Build 0)  -->
<svg version="1.1" id="Слой_1" xmlns="http://www.w3.org/2000/svg" xmlns:xlink="http://www.w3.org/1999/xlink" x="0px" y="0px"
	 viewBox="0 0 124 78" style="enable-background:new 0 0 124 78;" xml:space="preserve">
<style type="text/css">
	.st0{fill:#DD738C;}
	.st1{fill:#2896E0;}
	.st2{fill:#15173F;}
	.st3{fill:#B6BDCC;}
</style>
<title>sunglasses</title>
<path class="st0" d="M25.6,38.7c-13.2,0-17.1-6.8-18-13.9C6.8,33.8,7.3,47,25.6,47C46.3,47,59,24.5,57.1,15.7
	c-0.2-0.7-0.3-1.3-0.5-1.9C53.8,24.1,42.2,38.7,25.6,38.7z"/>
<path class="st0" d="M98.4,38.7c-16.6,0-28.2-14.6-31-24.9c-0.2,0.6-0.3,1.2-0.5,1.9C65,24.5,77.7,47,98.4,47
	c18.4,0,18.8-13.2,18-22.3C115.5,31.9,111.6,38.7,98.4,38.7z"/>
<path class="st1" d="M62,78c-11.7,0-21.2-9.4-21.2-21.1c0-1.1,0.9-2,2-2s2,0.9,2,2c0,9.5,7.7,17.2,17.2,17.2
	c9.5,0,17.2-7.7,17.2-17.2c0-1.1,0.9-2,2-2s2,0.9,2,2C83.2,68.6,73.7,78,62,78z"/>
<path class="st2" d="M25.6,49c-7.1,0-12.5-1.9-15.9-5.7c-5.6-6.2-4.5-16-3.8-21.8v-0.1C7.4,8,17.3,0,32.5,0C50,0,56.5,3.7,59,15.3
	l0,0c1.2,5.2-1.8,13.3-7.3,20.3C47.7,40.6,38.9,49,25.6,49z M32.5,4c-18.6,0-22,12.4-22.6,17.8v0.1c-0.6,5.5-1.5,13.8,2.9,18.7
	c2.6,2.9,6.9,4.4,12.9,4.4c11.6,0,19.4-7.5,23-12c5.3-6.6,7.3-13.5,6.5-16.9l0,0C53.2,7.6,49.7,4,32.5,4z"/>
<path class="st2" d="M6.9,23.6H2c-1.1,0-2-0.9-2-2s0.9-2,2-2h4.9c1.1,0,2,0.9,2,2S8,23.6,6.9,23.6z"/>
<path class="st2" d="M98.4,49c-13.3,0-22.1-8.5-26.1-13.5c-5.5-6.9-8.5-15.1-7.3-20.2l0,0C67.6,3.7,74,0,91.5,0
	c15.2,0,25.1,8,26.6,21.4v0.1c0.7,5.8,1.7,15.6-3.8,21.8C110.9,47.1,105.5,49,98.4,49z M68.9,16.1c-0.8,3.4,1.2,10.3,6.6,16.9
	c3.6,4.5,11.3,12,23,12c5.9,0,10.3-1.5,12.9-4.4c4.4-4.9,3.5-13.2,2.8-18.7v-0.1c-0.6-5.4-4-17.8-22.6-17.8
	C74.3,4,70.8,7.6,68.9,16.1z"/>
<path class="st2" d="M66.3,17.7h-8.5c-1,0-1.7-0.9-1.7-2s0.8-2,1.7-2h8.5c1,0,1.7,0.9,1.7,2S67.2,17.7,66.3,17.7z"/>
<path class="st2" d="M75.2,6.2H48.8c-1.1,0-2-0.9-2-2s0.9-2,2-2h26.5c1.1,0,2,0.9,2,2S76.4,6.2,75.2,6.2z"/>
<path class="st2" d="M122,23.6h-4.9c-1.1,0-2-0.9-2-2s0.9-2,2-2h4.9c1.1,0,2,0.9,2,2S123.1,23.6,122,23.6z"/>
<path class="st3" d="M19.6,25.3c-1.1,0-2-0.9-2-2c0-0.2,0-0.3,0.1-0.5c3-11,11.3-12.2,11.7-12.2c1.1-0.1,2.1,0.6,2.3,1.7
	c0.1,1.1-0.6,2.1-1.7,2.3c-0.3,0-6.1,1-8.3,9.3C21.3,24.7,20.5,25.3,19.6,25.3z"/>
</svg>
