<?xml version="1.0" encoding="utf-8"?>
<!-- Generator: Adobe Illustrator 21.1.0, SVG Export Plug-In . SVG Version: 6.00 Build 0)  -->
<svg version="1.1" id="Слой_1" xmlns="http://www.w3.org/2000/svg" xmlns:xlink="http://www.w3.org/1999/xlink" x="0px" y="0px"
	 viewBox="0 0 124 86" style="enable-background:new 0 0 124 86;" xml:space="preserve">
<style type="text/css">
	.st0{opacity:0.3;}
	.st1{fill:#15173F;}
	.st2{fill:#DD738C;}
	.st3{fill:#2896E0;}
</style>
<title>tickets</title>
<g class="st0">
	<path class="st1" d="M42.2,28.5c-1.1,0-2-0.9-2-2c0-0.5,0.2-1,0.6-1.4l5.9-6c0.8-0.8,2-0.8,2.8,0c0.8,0.8,0.8,2,0,2.8l-5.9,6
		C43.3,28.3,42.8,28.5,42.2,28.5z"/>
</g>
<g class="st0">
	<path class="st1" d="M19.2,51.9c-1.1,0-2-0.9-2-2c0-0.5,0.2-1,0.6-1.4l5.9-6c0.8-0.8,2-0.8,2.8,0c0.8,0.8,0.8,2,0,2.8l-5.9,6
		C20.2,51.6,19.7,51.9,19.2,51.9z"/>
</g>
<g class="st0">
	<path class="st1" d="M31,39.9c-1.1,0-2-0.9-2-2c0-0.5,0.2-1,0.6-1.4l5.9-6c0.8-0.8,2-0.8,2.8,0c0.8,0.8,0.8,2,0,2.8l0,0l-5.9,6
		C32.1,39.7,31.5,39.9,31,39.9z"/>
</g>
<g class="st0">
	<path class="st1" d="M104.1,51.5c-0.5,0-1-0.2-1.4-0.6l-5.9-6c-0.8-0.7-1-2-0.2-2.8c0.7-0.8,2-1,2.8-0.2c0.1,0.1,0.2,0.2,0.3,0.3
		l5.9,6c0.8,0.8,0.8,2,0,2.8C105.1,51.3,104.6,51.5,104.1,51.5L104.1,51.5z"/>
</g>
<g class="st0">
	<path class="st1" d="M81,28.1c-0.5,0-1-0.2-1.4-0.6l-5.9-6c-0.8-0.8-0.8-2.1,0-2.8c0.8-0.8,2.1-0.8,2.8,0l5.9,6
		c0.8,0.8,0.8,2.1,0,2.8C82,27.9,81.5,28.1,81,28.1z"/>
</g>
<g class="st0">
	<path class="st1" d="M92.8,40.1c-0.5,0-1-0.2-1.4-0.6l-5.9-6c-0.8-0.8-0.8-2.1,0-2.8c0.8-0.8,2.1-0.8,2.8,0l0,0l5.9,6
		c0.8,0.8,0.8,2,0,2.8C93.9,39.9,93.3,40.1,92.8,40.1L92.8,40.1z"/>
</g>
<polygon class="st2" points="54.6,27.6 26,56.7 41,71.4 49.3,63 41,54.5 61.4,33.8 "/>
<path class="st1" d="M123.5,29.9l-7.5-7.6c-0.8-0.8-2.1-0.8-2.9,0c0,0-0.1,0.1-0.1,0.1c-3.1,3-8,3-11-0.1c-3.1-3.1-3.1-8.2,0-11.3
	c0.8-0.8,0.8-2,0-2.8l-7.5-7.6c-0.8-0.8-2.1-0.8-2.9,0L61.5,31L32.4,1.7C32,1.3,31.5,1.1,31,1.1c-0.5,0-1.1,0.2-1.5,0.6L22,9.3
	c-0.8,0.8-0.8,2,0,2.8c3.1,3.1,3.1,8.2,0,11.3c0,0-0.1,0.1-0.1,0.1c-3.1,3-8,3-11-0.1c-0.8-0.8-2.1-0.8-2.8,0l-7.5,7.6
	c-0.8,0.8-0.8,2,0,2.8l38.7,39.2c0.4,0.4,0.9,0.6,1.4,0.6c0.5,0,1-0.2,1.4-0.6l7.2-7.3l19.3,19.6C69,85.8,69.5,86,70,86
	c0.5,0,1.1-0.2,1.5-0.6l52-52.7C124.2,32,124.2,30.7,123.5,29.9z M40.7,68.8L4.8,32.5l4.8-4.9c4.7,3.4,11.2,2.9,15.3-1.3
	c4.1-4.2,4.6-10.6,1.3-15.4L31,6l27.7,27.9L39.6,53.2c-0.8,0.8-0.8,2,0,2.8l6.8,7L40.7,68.8z M70,81.1L50.8,61.7
	c0-0.1-0.1-0.1-0.1-0.2c0,0-0.1-0.1-0.1-0.1l-6.7-6.8L93,4.8l4.8,4.9c-3.3,4.8-2.8,11.2,1.2,15.4c2.2,2.3,5.2,3.5,8.4,3.5
	c2.5,0,4.9-0.8,6.9-2.2l4.8,4.9L70,81.1z"/>
<path class="st3" d="M69.5,73.5c-1.1,0-2-0.9-2-2c0-0.5,0.2-1,0.6-1.4l16.6-16.8c0.7-0.9,1.9-1,2.8-0.4c0.9,0.7,1,1.9,0.4,2.8
	c-0.1,0.1-0.2,0.2-0.3,0.3L70.9,72.9C70.5,73.3,70,73.5,69.5,73.5z"/>
<path class="st3" d="M64.1,68c-1.1,0-2-0.9-2-2c0-0.5,0.2-1,0.6-1.4l8.1-8.1c0.8-0.8,2.1-0.8,2.8,0c0.8,0.8,0.8,2.1,0,2.8l-8.1,8.1
	C65.2,67.8,64.7,68,64.1,68z"/>
</svg>
