<?xml version="1.0" encoding="utf-8"?>
<!-- Generator: Adobe Illustrator 21.1.0, SVG Export Plug-In . SVG Version: 6.00 Build 0)  -->
<svg version="1.1" id="Слой_1" xmlns="http://www.w3.org/2000/svg" xmlns:xlink="http://www.w3.org/1999/xlink" x="0px" y="0px"
	 viewBox="0 0 124 104" style="enable-background:new 0 0 124 104;" xml:space="preserve">
<style type="text/css">
	.st0{fill:#B6BDCC;}
	.st1{fill:#2896E0;}
	.st2{fill:#DD738C;}
	.st3{fill:#15173F;}
</style>
<title>trailer</title>
<path class="st0" d="M82,26c-0.8,0-1.5-0.4-1.8-1.1L72.1,8.6C71.6,7.7,72,6.5,73,6c1-0.5,2.2-0.1,2.7,0.9l0,0l8.1,16.2
	c0.5,1,0.1,2.2-0.9,2.7C82.6,25.9,82.3,26,82,26z"/>
<path class="st1" d="M7,75.4c-3.9,0-7-3.1-7-7V57.5c0-3.9,3.1-7,7-7s7,3.1,7,7v10.9C14,72.3,10.9,75.4,7,75.4z M7,54.5
	c-1.7,0-3,1.3-3,3v10.9c0,1.7,1.3,3,3,3s3-1.3,3-3V57.5C10,55.8,8.7,54.5,7,54.5z"/>
<path class="st0" d="M122,92.4H98.4c-1.1,0-2-0.9-2-2s0.9-2,2-2H120v-4.5c0-1.1,0.9-2,2-2s2,0.9,2,2v6.5
	C124,91.5,123.1,92.4,122,92.4z"/>
<ellipse class="st2" cx="47" cy="90.4" rx="11.4" ry="11.6"/>
<path class="st3" d="M47,104c-7.5,0.1-13.6-5.9-13.7-13.4c-0.1-7.5,5.9-13.6,13.4-13.7c7.5-0.1,13.6,5.9,13.7,13.4c0,0,0,0.1,0,0.1
	C60.5,97.9,54.4,104,47,104z M47,80.9c-5.3-0.1-9.6,4.1-9.7,9.4c-0.1,5.3,4.1,9.6,9.4,9.7s9.6-4.1,9.7-9.4c0,0,0-0.1,0-0.1
	C56.5,85.2,52.2,80.9,47,80.9z"/>
<path class="st0" d="M94.9,59.2H69.1c-1.1,0-2-0.9-2-2V41.3c0-1.1,0.9-2,2-2h25.7c1.1,0,2,0.9,2,2v15.9C96.9,58.3,96,59.2,94.9,59.2
	z M71.2,55.2h21.7V43.3H71.1L71.2,55.2z"/>
<path class="st0" d="M59.9,59.2H34.1c-1.1,0-2-0.9-2-2V41.3c0-1.1,0.9-2,2-2h25.7c1.1,0,2,0.9,2,2v15.9C61.9,58.3,61,59.2,59.9,59.2
	z M36.2,55.2h21.7V43.3H36.1L36.2,55.2z"/>
<path class="st3" d="M98.3,22h-54L88.8,3.8c0.9-0.4,1.4-1.5,1-2.5c-0.4-1-1.5-1.6-2.6-1.2L33.7,22h-8.1C17,22,10,29.1,10,37.8v38.8
	c0,8.7,7,15.8,15.7,15.8h0.1c2.8,0,5.1-2,5.6-4.8c1.1-6.7,6.4-11.9,13.1-13.1C53,73.2,61.2,79,62.6,87.7c0.4,2.7,2.8,4.8,5.6,4.8
	h30.1c8.7,0,15.7-7.1,15.7-15.8V37.8C114,29.1,107,22,98.3,22z M110,76.6C110,76.6,110,76.6,110,76.6c0,6.5-5.2,11.8-11.7,11.9H68.2
	c-0.8,0-1.5-0.6-1.6-1.5C65,77.4,56.7,70.4,47,70.4c-9.7,0-18,7-19.6,16.6c-0.1,0.8-0.8,1.4-1.6,1.4h-0.1c-6.5,0-11.7-5.3-11.7-11.8
	V37.8C14,31.3,19.2,26,25.7,26h72.6c6.5,0,11.7,5.3,11.7,11.8V76.6z"/>
<path class="st0" d="M95,70h-7c-1.1,0-2-0.9-2-2s0.9-2,2-2h7c1.1,0,2,0.9,2,2S96.1,70,95,70z"/>
</svg>
