<?xml version="1.0" encoding="utf-8"?>
<!-- Generator: Adobe Illustrator 21.1.0, SVG Export Plug-In . SVG Version: 6.00 Build 0)  -->
<svg version="1.1" id="Слой_1" xmlns="http://www.w3.org/2000/svg" xmlns:xlink="http://www.w3.org/1999/xlink" x="0px" y="0px"
	 viewBox="0 0 124 58" style="enable-background:new 0 0 124 58;" xml:space="preserve">
<style type="text/css">
	.st0{fill:#DD738C;}
	.st1{fill:#2896E0;}
	.st2{fill:#15173F;}
	.st3{fill:#B6BDCC;}
</style>
<title>train</title>
<ellipse class="st0" cx="93.8" cy="50.4" rx="5.6" ry="5.6"/>
<ellipse class="st0" cx="77.1" cy="50.4" rx="5.6" ry="5.6"/>
<ellipse class="st0" cx="38.2" cy="50.4" rx="5.6" ry="5.6"/>
<ellipse class="st0" cx="21.5" cy="50.4" rx="5.6" ry="5.6"/>
<path class="st1" d="M82.7,29h-5.4c-1.1,0-2-0.9-2-2s0.9-2,2-2h5.4c1.1,0,2,0.9,2,2S83.8,29,82.7,29z"/>
<path class="st1" d="M67.3,29H62c-1.1,0-2-0.9-2-2s0.9-2,2-2h5.4c1.1,0,2,0.9,2,2S68.5,29,67.3,29L67.3,29z"/>
<path class="st1" d="M52,29h-5.4c-1.1,0-2-0.9-2-2s0.9-2,2-2H52c1.1,0,2,0.9,2,2S53.1,29,52,29z"/>
<path class="st1" d="M36.6,29h-5.4c-1.1,0-2-0.9-2-2s0.9-2,2-2h5.4c1.1,0,2,0.9,2,2S37.7,29,36.6,29z"/>
<path class="st1" d="M21.3,29h-5.4c-1.1,0-2-0.9-2-2s0.9-2,2-2h5.4c1.1,0,2,0.9,2,2S22.4,29,21.3,29z"/>
<path class="st2" d="M117.6,34.8L99.4,20.7c-7.7-6-17.2-9.3-26.9-9.3H13.6c-1.1,0-2,0.9-2,2c0,1.1,0.9,2,2,2h58.9
	c8.9,0,17.5,3,24.5,8.4L115.2,38c1.3,1.1,2.1,2.7,2.1,4.4c0,3-2.4,5.5-5.5,5.5H101c-1-3-3.9-5.2-7.3-5.1c-4.2,0-7.6,3.5-7.6,7.7
	c0,4.2,3.5,7.6,7.7,7.6c3.7,0,6.7-2.6,7.4-6.1h10.6c5.2,0,9.5-4.3,9.5-9.5C121.3,39.4,120,36.7,117.6,34.8z M97.4,50.4
	c0,2-1.7,3.6-3.7,3.6c-2,0-3.6-1.7-3.6-3.7c0-2,1.7-3.6,3.7-3.6C95.8,46.8,97.4,48.4,97.4,50.4C97.4,50.4,97.4,50.4,97.4,50.4z"/>
<path class="st2" d="M84.7,50.3c0-4.2-3.5-7.6-7.7-7.6c-3.3,0-6.1,2.2-7.1,5.1H45.3c-1-3-3.9-5.2-7.3-5.1c-4.2,0-7.6,3.5-7.6,7.7
	c0,4.2,3.5,7.6,7.7,7.6c3.7,0,6.7-2.6,7.4-6.1h24c0.7,3.5,3.8,6.1,7.5,6.1C81.3,58,84.7,54.6,84.7,50.3
	C84.7,50.4,84.7,50.3,84.7,50.3z M41.7,50.4c0,2-1.7,3.6-3.7,3.6c-2,0-3.6-1.7-3.6-3.7c0-2,1.7-3.6,3.7-3.6
	C40.2,46.8,41.7,48.4,41.7,50.4C41.7,50.4,41.7,50.4,41.7,50.4z M80.7,50.4c0,2-1.7,3.6-3.7,3.6s-3.6-1.7-3.6-3.7
	c0-2,1.7-3.6,3.7-3.6C79.1,46.8,80.7,48.4,80.7,50.4C80.7,50.4,80.7,50.4,80.7,50.4z"/>
<path class="st2" d="M29,50.3c0-4.2-3.5-7.6-7.7-7.5c-3.3,0-6.1,2.2-7.1,5.1H1.9c-1.1,0-1.9,0.9-1.9,2c0,1.1,0.9,2,1.9,2h12
	c0.7,3.5,3.8,6.1,7.6,6.1C25.6,58,29,54.6,29,50.3C29,50.4,29,50.3,29,50.3z M25,50.5c0,2-1.7,3.6-3.7,3.5c-2,0-3.6-1.7-3.5-3.7
	c0-2,1.7-3.6,3.7-3.5C23.4,46.8,25,48.4,25,50.5C25,50.4,25,50.4,25,50.5z"/>
<path class="st3" d="M25.7,4H12.3c-1.1,0-2-0.9-2-2s0.9-2,2-2h13.4c1.1,0,2,0.9,2,2S26.8,4,25.7,4z"/>
<path class="st3" d="M4.5,4H2.9c-1.1,0-2-0.9-2-2s0.9-2,2-2h1.6c1.1,0,2,0.9,2,2S5.6,4,4.5,4z"/>
<path class="st3" d="M104.8,15.4c-0.4,0-0.8-0.1-1.1-0.3l-3.3-2.2c-0.9-0.6-1.3-1.8-0.7-2.7c0.6-0.9,1.8-1.3,2.7-0.7
	c0,0,0.1,0.1,0.1,0.1l3.3,2.2c0.9,0.6,1.2,1.8,0.6,2.8C106.1,15,105.5,15.4,104.8,15.4L104.8,15.4z"/>
<path class="st3" d="M122,28.7c-0.4,0-0.9-0.1-1.2-0.4l-11.2-8.7c-0.9-0.7-1-1.9-0.3-2.8c0.7-0.9,1.9-1,2.8-0.4l11.2,8.7
	c0.9,0.7,1,1.9,0.4,2.8C123.2,28.4,122.6,28.7,122,28.7z"/>
</svg>
