<?xml version="1.0" encoding="utf-8"?>
<!-- Generator: Adobe Illustrator 19.2.1, SVG Export Plug-In . SVG Version: 6.00 Build 0)  -->
<svg version="1.1" id="Слой_1" xmlns="http://www.w3.org/2000/svg" xmlns:xlink="http://www.w3.org/1999/xlink" x="0px" y="0px"
	 viewBox="0 0 60 60" style="enable-background:new 0 0 60 60;" xml:space="preserve">
<style type="text/css">
	.st0{fill:none;stroke:#15173F;stroke-width:1.1214;stroke-linecap:round;stroke-linejoin:round;}
	.st1{fill:none;stroke:#15173F;stroke-width:1.15;stroke-linecap:round;stroke-linejoin:round;}
	.st2{fill:none;stroke:#15173F;stroke-width:1.1512;stroke-linecap:round;stroke-linejoin:round;}
	.st3{fill:none;stroke:#15173F;stroke-width:1.1465;stroke-linecap:round;stroke-linejoin:round;}
</style>
<title>bag</title>
<path class="st0" d="M30.2,8h1.1c2.1,0,3.8,1.8,3.8,4v1.2"/>
<path class="st0" d="M30.2,8H29c-2.1,0-3.8,1.8-3.8,4v1.2"/>
<line class="st1" x1="35.1" y1="13.3" x2="35.1" y2="30.3"/>
<line class="st1" x1="25.2" y1="13.3" x2="25.2" y2="30.3"/>
<line class="st1" x1="37.6" y1="22" x2="32.4" y2="22"/>
<line class="st1" x1="27.8" y1="22" x2="22.6" y2="22"/>
<path class="st1" d="M20,13.3h20.3c2.6,0,4.7,2.1,4.7,4.7V26c0,2.6-2.1,4.7-4.7,4.7H20c-2.6,0-4.7-2.1-4.7-4.7v-8.1
	C15.3,15.4,17.4,13.3,20,13.3z"/>
<path class="st2" d="M15.3,41.9c0-2.6,2.1-4.6,4.6-4.6c0,0,0,0,0,0h20.4c2.6,0,4.6,2.1,4.6,4.6c0,0,0,0,0,0"/>
<path class="st1" d="M44.9,54.5h3.4c1.2-0.2,2.1-1.3,2-2.6v-6.9c0-1.5-0.5-3-1.6-4l-3.6-3.2"/>
<path class="st1" d="M15.1,37.8l-3.6,3.3c-1.1,1-1.7,2.5-1.6,4V52c-0.1,1.3,0.8,2.4,2,2.6h3.4"/>
<polyline class="st3" points="44.9,26.4 44.9,54.5 15.3,54.5 15.3,26.4 "/>
</svg>
