<svg id="Слой_1" data-name="Слой 1" xmlns="http://www.w3.org/2000/svg" viewBox="0 0 60 60"><defs><style>.cls-1{fill:none;stroke:#15173f;stroke-linecap:round;stroke-linejoin:round;stroke-width:1.15px;}</style></defs><title>beach_shoes</title><path class="cls-1" d="M24.5,48.62C20.08,50.09,16.77,47,16,37.9c-.62-7.1-3.19-10.62-4.42-14A10.05,10.05,0,0,1,10.92,21c-.27-4.55.8-12.05,6.66-12.32s8.26,3.48,7.72,13.12-.8,11.52,1.07,15S30.89,46.47,24.5,48.62Z"/><path class="cls-1" d="M14.91,32S8.52,15.67,19.7,15.14C30.08,14.64,25.56,35,25.56,35"/><path class="cls-1" d="M19.7,15.14V12.19"/><line class="cls-1" x1="24.79" y1="40.81" x2="20.22" y2="42.23"/><path class="cls-1" d="M36.34,52.86c4.41,1.48,7.72-1.61,8.52-10.71.62-7.1,3.19-10.62,4.42-14a10.05,10.05,0,0,0,.64-2.89c.27-4.55-.8-12.05-6.66-12.32S35,16.43,35.54,26.08s.8,11.52-1.07,15S29.95,50.71,36.34,52.86Z"/><path class="cls-1" d="M45.93,36.25s6.39-16.34-4.79-16.87c-10.38-.5-5.86,19.82-5.86,19.82"/><path class="cls-1" d="M41.13,19.38V16.43"/><line class="cls-1" x1="36.04" y1="45.06" x2="40.61" y2="46.47"/></svg>