<svg id="Слой_1" data-name="Слой 1" xmlns="http://www.w3.org/2000/svg" viewBox="0 0 60 60"><defs><style>.cls-1{fill:none;stroke:#15173f;stroke-linecap:round;stroke-linejoin:round;stroke-width:1.15px;}</style></defs><title>bikini</title><line class="cls-1" x1="17.13" y1="17.07" x2="19.67" y2="6.62"/><line class="cls-1" x1="39.3" y1="17.07" x2="36.77" y2="6.62"/><polyline class="cls-1" points="30.07 30.11 28.22 30.11 26.37 30.11"/><path class="cls-1" d="M26.37,30.11s-5.33-10.56-9.24-13c-4.75,3.85-6.33,9.29-4.28,13S24.37,32.33,26.37,30.11Z"/><path class="cls-1" d="M47.43,33.49A54.27,54.27,0,0,1,33.81,38.9a18.63,18.63,0,0,1-4,.56A54.27,54.27,0,0,1,15.23,38l-.52,2S29,47.86,31.79,52.37h0a5.7,5.7,0,0,0,3.66-.51h0c1.47-5.11,13-16.59,13-16.59Z"/><path class="cls-1" d="M30.07,30.11s5.33-10.56,9.24-13c4.75,3.85,6.33,9.29,4.28,13S32.07,32.33,30.07,30.11Z"/><circle class="cls-1" cx="16.94" cy="22.59" r="0.78"/><circle class="cls-1" cx="19.67" cy="24.54" r="0.78" transform="translate(-5.28 5.39) rotate(-13.77)"/><circle class="cls-1" cx="38.72" cy="22.21" r="0.78" transform="translate(-4.17 9.85) rotate(-13.77)"/><circle class="cls-1" cx="36.77" cy="24.54" r="0.78" transform="translate(-4.78 9.46) rotate(-13.77)"/></svg>