<svg id="Слой_1" data-name="Слой 1" xmlns="http://www.w3.org/2000/svg" viewBox="0 0 60 60"><defs><style>.cls-1{fill:none;stroke:#15173f;stroke-linecap:round;stroke-linejoin:round;stroke-width:1.15px;}</style></defs><title>cruise</title><polyline class="cls-1" points="11.07 37.38 7.47 28.11 52.98 28.11 45.45 37.38"/><polyline class="cls-1" points="42.99 28.06 35.63 20.49 12.38 20.49 12.38 24.13"/><polyline class="cls-1" points="31.7 20.16 28.25 15.19 24.62 15.19 26.8 20.16"/><polyline class="cls-1" points="23.71 20.16 20.27 15.19 16.64 15.19 18.82 20.16"/><line class="cls-1" x1="49.34" y1="32.6" x2="13.04" y2="32.6"/><path class="cls-1" d="M33.17,44.45c-2.63,0-2.63-2.21-5.27-2.21s-2.64,2.21-5.27,2.21S20,42.24,17.35,42.24s-2.64,2.21-5.27,2.21-2.64-2.21-5.27-2.21"/><path class="cls-1" d="M54.24,44.45c-2.63,0-2.63-2.21-5.27-2.21s-2.64,2.21-5.27,2.21-2.64-2.21-5.27-2.21-2.64,2.21-5.27,2.21-2.64-2.21-5.27-2.21"/></svg>