<svg id="Слой_1" data-name="Слой 1" xmlns="http://www.w3.org/2000/svg" viewBox="0 0 60 60"><defs><style>.cls-1{fill:none;stroke:#15173f;stroke-linecap:round;stroke-linejoin:round;stroke-width:1.15px;}</style></defs><title>documents</title><rect class="cls-1" x="10.21" y="12.42" width="16.41" height="22.06"/><ellipse class="cls-1" cx="18.42" cy="20.54" rx="4.29" ry="4.05"/><ellipse class="cls-1" cx="18.42" cy="20.54" rx="1.57" ry="4.05"/><line class="cls-1" x1="44.26" y1="19.73" x2="38.55" y2="19.8"/><line class="cls-1" x1="44.2" y1="22.84" x2="38.49" y2="22.9"/><path class="cls-1" d="M44.25,40.3A2.88,2.88,0,0,1,41.33,43a2.71,2.71,0,0,1-2.81-2.7,2.88,2.88,0,0,1,2.91-2.73A2.71,2.71,0,0,1,44.25,40.3Z"/><polyline class="cls-1" points="22.71 34.73 22.71 48.73 48.76 48.73 48.76 12.37 22.71 12.37"/></svg>