<svg id="Слой_1" data-name="Слой 1" xmlns="http://www.w3.org/2000/svg" viewBox="0 0 60 60"><defs><style>.cls-1{fill:none;stroke:#15173f;stroke-linecap:round;stroke-linejoin:round;stroke-width:1.15px;}</style></defs><title>earth</title><polyline class="cls-1" points="17.71 19.07 21.12 22.39 26.65 22.39 28.63 25.55 26.65 28.32 23.09 30.69 19.93 32.27 20.72 38.2 21.34 42.31"/><polyline class="cls-1" points="45.56 17.59 40.49 22.79 34.56 23.58 34.56 26.34 35.75 29.51 38.91 29.51 42.86 30.69 49.59 28.72"/><polyline class="cls-1" points="47.91 36.17 40.49 34.65 37.33 34.65 34.56 36.23 37.33 40.58 38.09 45.09"/><circle class="cls-1" cx="32.19" cy="28.72" r="17.4"/><path class="cls-1" d="M53.8,19.91a23.15,23.15,0,0,1,.88,2.59"/><path class="cls-1" d="M32.19,5.39A23.31,23.31,0,0,1,51.62,15.81"/><path class="cls-1" d="M9,31.48a23.57,23.57,0,0,1-.16-2.77"/><path class="cls-1" d="M11.06,38.62a23.16,23.16,0,0,1-1.44-4"/><path class="cls-1" d="M32.19,52A23.3,23.3,0,0,1,12.9,41.84"/></svg>