<svg id="Слой_1" data-name="Слой 1" xmlns="http://www.w3.org/2000/svg" viewBox="0 0 60 60"><defs><style>.cls-1{fill:none;stroke:#15173f;stroke-linecap:round;stroke-linejoin:round;stroke-width:1.15px;}</style></defs><title>exotic_food</title><path class="cls-1" d="M41.89,42.16a12.19,12.19,0,0,0-6.61-3.5s3.89-5.83,7-6.61C46.95,37.1,41.89,42.16,41.89,42.16Z"/><path class="cls-1" d="M35.53,22.06h5.1a2.55,2.55,0,0,0,2.55-2.55h0A2.55,2.55,0,0,0,40.63,17H19.12a2.55,2.55,0,0,1-2.55-2.55h0"/><polyline class="cls-1" points="19.89 26.98 28.41 31.9 19.43 35.94"/><line class="cls-1" x1="25.49" y1="41.3" x2="28.41" y2="31.9"/><circle class="cls-1" cx="32.6" cy="25.89" r="1.28"/><path class="cls-1" d="M28.41,31.9l6.93,6.93,0,0a9.84,9.84,0,1,1-7-16.8"/><path class="cls-1" d="M53.08,25A23.33,23.33,0,1,1,9.36,19.28"/><path class="cls-1" d="M22.15,7.83A23.38,23.38,0,0,1,43,10.18"/><path class="cls-1" d="M22.64,46.69A18.66,18.66,0,0,1,14.74,40"/><path class="cls-1" d="M30.23,48.31A18.7,18.7,0,0,1,26.95,48"/><path class="cls-1" d="M35.56,22.06H28.41V31.9s7.64-.28,9.46-6.83A2.38,2.38,0,0,0,35.56,22.06Z"/></svg>