<svg id="Слой_1" data-name="Слой 1" xmlns="http://www.w3.org/2000/svg" viewBox="0 0 60 60"><defs><style>.cls-1{fill:none;stroke:#15173f;stroke-linecap:round;stroke-linejoin:round;stroke-width:1.15px;}</style></defs><title>guide</title><path class="cls-1" d="M29.09,38.52s-7.34,5.33-16.87,0"/><line class="cls-1" x1="39.49" y1="23.02" x2="39.49" y2="50.36"/><path class="cls-1" d="M25.32,12.93a25.3,25.3,0,0,1-12.15,9.18"/><path class="cls-1" d="M27.59,25.53s2.25,5.39,5.27,7.22c0,0-2.44,2.51-7.54,3.08"/><path class="cls-1" d="M13.72,25.53s-2.25,5.39-5.27,7.22c0,0,2.44,2.51,7.54,3.08"/><path class="cls-1" d="M16.61,31.53s.93,3.88-1.85,5.54-7.41,3.88-7.87,7.2a22.38,22.38,0,0,0,0,6.09"/><path class="cls-1" d="M20.81,11.48c-3.61,0-7.83,2.43-7.83,7.29s1.2,14,7.83,14"/><path class="cls-1" d="M24.74,31.53s-.93,3.88,1.85,5.54,7.41,3.88,7.87,7.2a22.38,22.38,0,0,1,0,6.09"/><path class="cls-1" d="M20.54,11.48c3.61,0,7.83,2.43,7.83,7.29s-1.2,14-7.83,14"/><polygon class="cls-1" points="39.49 23.02 39.49 12.69 53.34 12.69 50.33 18.16 53.34 23.02 39.49 23.02"/><path class="cls-1" d="M23.22,27.61a5.78,5.78,0,0,1-4.82,0"/><path class="cls-1" d="M27.94,23.9s-4-5.14-4.72-8.39"/></svg>