<svg id="Слой_1" data-name="Слой 1" xmlns="http://www.w3.org/2000/svg" viewBox="0 0 60 60"><defs><style>.cls-1{fill:none;stroke:#15173f;stroke-linecap:round;stroke-linejoin:round;stroke-width:1.15px;}</style></defs><title>lifebuoy</title><path class="cls-1" d="M29.52,18.88a11.45,11.45,0,0,1,8.12,3.36l7-7a21.38,21.38,0,0,0-30.24,0l7,7A11.45,11.45,0,0,1,29.52,18.88Z"/><path class="cls-1" d="M18,30.36a11.45,11.45,0,0,1,3.36-8.12l-7-7a21.38,21.38,0,0,0,0,30.24l7-7A11.45,11.45,0,0,1,18,30.36Z"/><path class="cls-1" d="M29.52,41.85a11.45,11.45,0,0,1-8.12-3.36l-7,7a21.38,21.38,0,0,0,30.24,0l-7-7A11.45,11.45,0,0,1,29.52,41.85Z"/><path class="cls-1" d="M44.64,15.24l-7,7a11.48,11.48,0,0,1,0,16.24l7,7a21.38,21.38,0,0,0,0-30.24Z"/><path class="cls-1" d="M29.52,9H40A10.89,10.89,0,0,1,50.91,19.87V30.36"/><path class="cls-1" d="M29.52,9H19A10.89,10.89,0,0,0,8.14,19.87V30.36"/><path class="cls-1" d="M29.52,51.75H19A10.89,10.89,0,0,1,8.14,40.86V30.36"/><path class="cls-1" d="M29.52,51.75H40A10.89,10.89,0,0,0,50.91,40.86V30.36"/><circle class="cls-1" cx="37.3" cy="45.52" r="1.17"/><circle class="cls-1" cx="21.75" cy="45.52" r="1.17"/><circle class="cls-1" cx="37.3" cy="14.42" r="1.17"/><circle class="cls-1" cx="21.75" cy="14.42" r="1.17"/></svg>