<svg id="Слой_1" data-name="Слой 1" xmlns="http://www.w3.org/2000/svg" viewBox="0 0 60 60"><defs><style>.cls-1{fill:none;stroke:#15173f;stroke-linecap:round;stroke-linejoin:round;stroke-width:1.15px;}</style></defs><title>photo_cards</title><path class="cls-1" d="M42.23,35.89c-2.63,0-2.63-2.21-5.27-2.21s-2.64,2.21-5.27,2.21-2.64-2.21-5.27-2.21-2.64,2.21-5.27,2.21a3.67,3.67,0,0,1-2.64-1.11"/><polyline class="cls-1" points="46.87 23.64 53.7 30.12 46.87 36.98"/><polyline class="cls-1" points="23.52 13.63 30.37 6.79 37.23 13.63"/><polyline class="cls-1" points="13.88 36.98 7.05 30.12 13.88 23.27"/><polyline class="cls-1" points="37.23 46.62 30.37 53.45 23.52 46.62"/><rect class="cls-1" x="13.88" y="13.63" width="32.99" height="32.99"/><rect class="cls-1" x="18.33" y="18.45" width="24.09" height="22.98"/><circle class="cls-1" cx="26.17" cy="25.86" r="2.97"/></svg>