<svg id="Слой_1" data-name="Слой 1" xmlns="http://www.w3.org/2000/svg" viewBox="0 0 60 60"><defs><style>.cls-1{fill:none;stroke:#15173f;stroke-linecap:round;stroke-linejoin:round;stroke-width:1.15px;}</style></defs><title>picnic</title><polyline class="cls-1" points="41.31 52.28 10.13 52.28 10.13 28.74 44.67 28.74 44.67 34.51"/><rect class="cls-1" x="7.25" y="21.53" width="40.3" height="7.21"/><line class="cls-1" x1="42.75" y1="24.89" x2="30.28" y2="9.52"/><line class="cls-1" x1="12.52" y1="24.89" x2="25" y2="9.52"/><polygon class="cls-1" points="38.91 34.51 52.35 34.51 49.47 52.28 41.31 52.28 38.91 34.51"/><path class="cls-1" d="M25.4,39.54a10.58,10.58,0,0,0,6.18-.3,2.42,2.42,0,0,1,2.06.08c1.92,1,4,13-5.44,13s-10.4-9.61-8-12C21.59,38.88,23.79,39.1,25.4,39.54Z"/><path class="cls-1" d="M27.4,38.83a14.16,14.16,0,0,1,1.44-4.32"/></svg>