<svg id="Слой_1" data-name="Слой 1" xmlns="http://www.w3.org/2000/svg" viewBox="0 0 60 60"><defs><style>.cls-1{fill:none;stroke:#15173f;stroke-linecap:round;stroke-linejoin:round;stroke-width:1.15px;}</style></defs><title>shoes</title><line class="cls-1" x1="35.16" y1="29.99" x2="33.1" y2="31.62"/><line class="cls-1" x1="28.65" y1="17.78" x2="25.08" y2="19.18"/><line class="cls-1" x1="29.98" y1="21.33" x2="26.91" y2="22.84"/><line class="cls-1" x1="31.46" y1="24.52" x2="28.73" y2="26.14"/><line class="cls-1" x1="33.14" y1="27.42" x2="30.55" y2="29.06"/><path class="cls-1" d="M11.6,40.41H21a7.24,7.24,0,0,1,4.59,1.65h0a7.24,7.24,0,0,0,4.59,1.65H43a13.27,13.27,0,0,0,8.31-2.93h0l2.19,2.93-2.19,1.46-.21.15a13.27,13.27,0,0,1-7.63,2.41H30.23a7.24,7.24,0,0,1-4.59-1.65h0A7.24,7.24,0,0,0,21,44.43H11.6v-4s.73-19-.73-22.69a42.55,42.55,0,0,0-4-7.32"/><path class="cls-1" d="M10.87,17.72l16.77-3.29s4,16.1,11.66,18.3,12.76-.73,12,7.68"/><path class="cls-1" d="M40.6,33.05l-1.3,4.06a27.53,27.53,0,0,0-13.92-.95"/><polyline class="cls-1" points="11.6 44.06 11.6 47.73 22.17 47.73"/></svg>