<svg id="Слой_1" data-name="Слой 1" xmlns="http://www.w3.org/2000/svg" viewBox="0 0 60 60"><defs><style>.cls-1{fill:none;stroke:#15173f;stroke-linecap:round;stroke-linejoin:round;stroke-width:1.15px;}</style></defs><title>vaccine</title><line class="cls-1" x1="31.83" y1="26.94" x2="10.19" y2="48.52"/><line class="cls-1" x1="6.68" y1="45.02" x2="13.42" y2="51.75"/><polygon class="cls-1" points="42.28 22.97 21.79 43.41 15.31 36.95 35.81 16.51 42.28 22.97"/><polygon class="cls-1" points="40.67 21.35 43.09 18.93 39.86 15.71 37.43 18.13 40.67 21.35"/><line class="cls-1" x1="41.48" y1="17.32" x2="49.84" y2="8.98"/><line class="cls-1" x1="28.6" y1="23.71" x2="35.07" y2="30.16"/><path class="cls-1" d="M49.9,26s3.43,3.54,3.43,7.37a4.58,4.58,0,0,1-.71,2.48,3.24,3.24,0,0,1-5.45,0,4.58,4.58,0,0,1-.71-2.48c0-3.83,3.43-7.37,3.43-7.37"/></svg>