<?xml version="1.0" encoding="utf-8"?>
<!-- Generator: Adobe Illustrator 19.0.0, SVG Export Plug-In . SVG Version: 6.00 Build 0)  -->
<svg version="1.1" id="Layer_1" xmlns="http://www.w3.org/2000/svg" xmlns:xlink="http://www.w3.org/1999/xlink" x="0px" y="0px"
	 viewBox="0 0 368.1 106.6" style="enable-background:new 0 0 368.1 106.6;" xml:space="preserve">
<style type="text/css">
	.st0{fill:#F2F2F2;}
</style>
<g id="XMLID_3_">
	<g id="XMLID_1_">
		<path id="XMLID_4_" class="st0" d="M9.2,0.7c2.1,0,4,0.3,5.7,1c1.7,0.6,3.2,1.7,4.5,3.3c1.2,1.6,2.2,3.6,2.9,6.2
			c0.7,2.6,1,5.8,1,9.6c0,3.9-0.3,7.1-1,9.7c-0.7,2.6-1.7,4.7-2.9,6.2c-1.3,1.6-2.7,2.7-4.5,3.3c-1.7,0.6-3.7,1-5.8,1H0
			c0.1-1.7,0.2-3.4,0.3-5.1c0.1-1.7,0.1-3.5,0.2-5.2c0-1.7,0.1-3.4,0.1-5.1c0-1.7,0-3.2,0-4.7c0-1.5,0-3.1,0-4.7
			c0-1.7,0-3.3-0.1-5.1c0-1.7-0.1-3.4-0.2-5.2C0.2,4.1,0.1,2.4,0,0.7H9.2z M5.3,4.1C5.2,7,5.1,9.8,5.1,12.7C5,15.6,5,18.3,5,20.8
			S5,26.1,5,29c0,2.9,0.1,5.8,0.3,8.7h3.9c0.8,0,1.6-0.1,2.4-0.3c0.8-0.2,1.5-0.5,2.1-1c0.7-0.5,1.3-1.1,1.8-1.9
			c0.5-0.8,1-1.8,1.4-3.1c0.4-1.2,0.7-2.7,0.9-4.5s0.3-3.8,0.3-6.1c0-2.3-0.1-4.4-0.3-6.1s-0.5-3.2-0.9-4.5
			c-0.4-1.2-0.8-2.3-1.4-3.1c-0.5-0.8-1.1-1.4-1.8-1.9c-0.7-0.5-1.4-0.8-2.1-1c-0.8-0.2-1.6-0.3-2.4-0.3H5.3z"/>
		<path id="XMLID_7_" class="st0" d="M52.7,20.9c0,3.6-0.3,6.7-1,9.4c-0.6,2.6-1.5,4.8-2.7,6.5c-1.1,1.7-2.5,3-4,3.8
			c-1.5,0.8-3.2,1.2-5,1.2c-1.8,0-3.5-0.4-5-1.2c-1.5-0.8-2.9-2.1-4-3.8c-1.1-1.7-2-3.9-2.7-6.5c-0.7-2.6-1-5.7-1-9.4
			c0-3.6,0.3-6.7,1-9.3C28.9,8.9,29.8,6.8,31,5c1.1-1.7,2.5-3,4-3.8C36.6,0.4,38.2,0,40,0c1.8,0,3.4,0.4,5,1.2
			c1.5,0.8,2.9,2.1,4,3.8c1.1,1.7,2,3.9,2.7,6.5C52.4,14.2,52.7,17.3,52.7,20.9z M47.6,20.9c0-3-0.2-5.6-0.6-7.8
			c-0.4-2.2-0.9-4-1.6-5.4c-0.7-1.4-1.5-2.5-2.4-3.1c-0.9-0.7-1.9-1-3-1c-1.1,0-2.1,0.3-3,1c-0.9,0.7-1.7,1.7-2.4,3.1
			c-0.7,1.4-1.2,3.2-1.6,5.4c-0.4,2.2-0.6,4.8-0.6,7.8c0,3,0.2,5.6,0.6,7.8c0.4,2.2,0.9,4,1.6,5.4c0.7,1.4,1.5,2.4,2.4,3.1
			c0.9,0.7,1.9,1,3,1c1.1,0,2.1-0.3,3-1c0.9-0.7,1.7-1.7,2.4-3.1c0.7-1.4,1.2-3.2,1.6-5.4C47.4,26.5,47.6,23.9,47.6,20.9z"/>
		<path id="XMLID_10_" class="st0" d="M74.7,21.7c0-3-0.1-5.7-0.2-8c-0.1-2.3-0.3-4.2-0.6-5.7c-0.3-1.5-0.7-2.6-1.2-3.4
			c-0.5-0.7-1.3-1.1-2.3-1.1c-0.5,0-1.1,0.2-1.8,0.5c-0.7,0.3-1.4,0.8-2.2,1.3C65.7,6,65,6.6,64.3,7.3c-0.7,0.7-1.3,1.4-1.7,2.1
			c-0.1,3.9-0.2,7.8-0.2,11.7c0,1.8,0,3.5,0,5.2c0,1.6,0,3.3,0.1,4.8c0,1.6,0.1,3.2,0.2,4.8c0.1,1.6,0.2,3.3,0.3,5h-5.4
			c0.1-1.7,0.2-3.4,0.2-5c0.1-1.6,0.1-3.2,0.2-4.8c0-1.6,0.1-3.2,0.1-4.8c0-1.6,0-3.4,0-5.2s0-3.6,0-5.3c0-1.7-0.1-3.4-0.1-5.1
			c0-1.7-0.1-3.3-0.2-5c-0.1-1.7-0.2-3.4-0.2-5.1H63l-0.3,4.5c0.6-0.7,1.2-1.4,2-2c0.7-0.6,1.5-1.2,2.3-1.7c0.8-0.5,1.6-0.9,2.4-1.2
			C70.2,0.1,71,0,71.8,0c2.3,0,4.1,0.9,5.4,2.8c1.3,1.8,1.9,4.6,1.9,8.2c0,0.9,0,1.9,0,2.9c0,1,0,2,0,3c0,1,0,1.9,0,2.7
			c0,0.8,0,1.5,0,2.1c0,1.8,0,3.5,0,5.1c0,1.6,0,3.1,0.1,4.7c0,1.5,0.1,3.1,0.2,4.6c0.1,1.5,0.2,3.2,0.2,4.9h-5.4
			c0.1-1.7,0.2-3.4,0.3-4.9c0.1-1.5,0.1-3.1,0.2-4.6s0.1-3.1,0.1-4.7C74.8,25.2,74.8,23.5,74.7,21.7z"/>
		<path id="XMLID_12_" class="st0" d="M82.9,0.7h20.1v3.4h-7.5c-0.2,2.9-0.3,5.7-0.3,8.6c0,2.9-0.1,5.6-0.1,8.1c0,1.5,0,3.1,0,4.7
			c0,1.7,0,3.4,0.1,5.1c0,1.7,0.1,3.5,0.1,5.2c0.1,1.7,0.1,3.5,0.2,5.1h-5.5c0.1-1.7,0.2-3.4,0.3-5.1c0.1-1.7,0.1-3.5,0.2-5.2
			c0-1.7,0.1-3.4,0.1-5.1c0-1.7,0-3.2,0-4.7c0-2.5,0-5.2-0.1-8.1c0-2.9-0.1-5.7-0.3-8.6h-7.5V0.7z"/>
		<path id="XMLID_14_" class="st0" d="M123.6,0.7c-0.1,1.7-0.2,3.4-0.3,5.1c-0.1,1.7-0.1,3.5-0.2,5.2c0,1.7-0.1,3.4-0.1,5.1
			c0,1.7,0,3.2,0,4.7c0,2.5,0,5.2,0.1,8.1c0,2.9,0.1,5.8,0.3,8.6h11.9V41H118c0.1-1.7,0.2-3.4,0.3-5.1c0.1-1.7,0.1-3.5,0.2-5.2
			c0-1.7,0.1-3.4,0.1-5.1c0-1.7,0-3.2,0-4.7c0-1.5,0-3.1,0-4.7c0-1.7,0-3.3-0.1-5.1c0-1.7-0.1-3.4-0.2-5.2c-0.1-1.7-0.2-3.4-0.3-5.1
			H123.6z"/>
		<path id="XMLID_16_" class="st0" d="M151.5,38.3c0.9,0,1.6-0.1,2.3-0.3c0.7-0.2,1.3-0.5,1.9-0.8s1.1-0.7,1.6-1.1
			c0.5-0.4,1-0.8,1.4-1.2v5.8c-0.5,0.1-1,0.2-1.5,0.3c-0.5,0.1-1.1,0.2-1.7,0.3c-0.6,0.1-1.3,0.2-2.1,0.3c-0.8,0.1-1.7,0.1-2.7,0.1
			c-2.1,0-3.9-0.5-5.5-1.4c-1.6-0.9-3-2.3-4.2-4.1s-2-4-2.6-6.5c-0.6-2.6-0.9-5.5-0.9-8.7c0-3.1,0.3-6,0.8-8.6
			c0.5-2.6,1.3-4.8,2.2-6.6c1-1.8,2.2-3.3,3.7-4.3c1.5-1,3.1-1.5,5.1-1.5c2,0,3.7,0.5,5.1,1.4c1.4,0.9,2.6,2.2,3.5,4s1.6,3.9,2,6.4
			c0.4,2.5,0.6,5.4,0.6,8.6v1.1h-17.7c0.1,3.1,0.4,5.7,0.7,7.9c0.4,2.1,0.9,3.9,1.6,5.2s1.6,2.3,2.7,2.9
			C148.8,38.1,150.1,38.3,151.5,38.3z M155.4,18c0-1.1-0.1-2.3-0.2-3.5c-0.1-1.2-0.2-2.3-0.4-3.4c-0.2-1.1-0.4-2.1-0.7-3.1
			c-0.3-1-0.6-1.8-1.1-2.5c-0.4-0.7-1-1.3-1.6-1.7s-1.4-0.6-2.3-0.6c-1.2,0-2.1,0.4-2.9,1.3c-0.8,0.9-1.4,2-1.9,3.4
			c-0.5,1.4-0.8,3-1.1,4.7s-0.4,3.5-0.5,5.3H155.4z"/>
		<path id="XMLID_19_" class="st0" d="M161.1,0.7h20.1v3.4h-7.5c-0.2,2.9-0.3,5.7-0.3,8.6c0,2.9-0.1,5.6-0.1,8.1c0,1.5,0,3.1,0,4.7
			c0,1.7,0,3.4,0.1,5.1c0,1.7,0.1,3.5,0.1,5.2c0.1,1.7,0.1,3.5,0.2,5.1h-5.5c0.1-1.7,0.2-3.4,0.3-5.1c0.1-1.7,0.1-3.5,0.2-5.2
			c0-1.7,0.1-3.4,0.1-5.1c0-1.7,0-3.2,0-4.7c0-2.5,0-5.2-0.1-8.1c0-2.9-0.1-5.7-0.3-8.6h-7.5V0.7z"/>
		<path id="XMLID_21_" class="st0" d="M208.7,41c-0.5-2.4-1-5-1.5-7.6c-0.5-2.7-1.1-5.4-1.7-8.1c-0.6-2.7-1.2-5.5-1.9-8.2
			c-0.7-2.7-1.4-5.4-2.2-8h-0.3c0,0.8-0.1,1.8-0.1,2.8c0,1.1,0,2.1,0,3.2c0,1.1,0,2.1,0,3.1c0,1,0,1.9,0,2.6c0,1.5,0,3.1,0,4.7
			c0,1.7,0,3.4,0.1,5.1c0,1.7,0.1,3.5,0.1,5.2c0.1,1.7,0.1,3.5,0.2,5.1h-5.4c0.1-1.7,0.2-3.4,0.3-5.1c0.1-1.7,0.1-3.5,0.2-5.2
			c0-1.7,0.1-3.4,0.1-5.1c0-1.7,0-3.2,0-4.7c0-1.5,0-3.1,0-4.7c0-1.7,0-3.3-0.1-5.1c0-1.7-0.1-3.4-0.2-5.2c-0.1-1.7-0.2-3.4-0.3-5.1
			h6.9c1.2,5.6,2.3,10.9,3.5,16c1.2,5.1,2.5,9.9,3.9,14.5h0.4c1.4-4.6,2.7-9.4,3.9-14.5c1.2-5.1,2.3-10.4,3.5-16h6.9
			c-0.1,1.7-0.2,3.4-0.3,5.1c-0.1,1.7-0.1,3.5-0.2,5.2c0,1.7-0.1,3.4-0.1,5.1c0,1.7,0,3.2,0,4.7c0,1.5,0,3.1,0,4.7
			c0,1.7,0,3.4,0.1,5.1c0,1.7,0.1,3.5,0.2,5.2c0.1,1.7,0.2,3.5,0.3,5.1h-5.4c0.1-1.7,0.2-3.4,0.2-5.1c0.1-1.7,0.1-3.5,0.1-5.2
			c0-1.7,0.1-3.4,0.1-5.1c0-1.7,0-3.2,0-4.7c0-0.7,0-1.6,0-2.6s0-2,0-3.1c0-1.1,0-2.1,0-3.2c0-1.1,0-2,0-2.8H220
			c-0.8,2.6-1.5,5.2-2.2,8c-0.7,2.7-1.3,5.5-1.9,8.2c-0.6,2.7-1.2,5.4-1.7,8.1c-0.5,2.7-1,5.2-1.5,7.6H208.7z"/>
		<path id="XMLID_23_" class="st0" d="M244.2,38.3c0.9,0,1.6-0.1,2.3-0.3c0.7-0.2,1.3-0.5,1.9-0.8s1.1-0.7,1.6-1.1
			c0.5-0.4,1-0.8,1.4-1.2v5.8c-0.5,0.1-1,0.2-1.5,0.3c-0.5,0.1-1.1,0.2-1.7,0.3c-0.6,0.1-1.3,0.2-2.1,0.3c-0.8,0.1-1.7,0.1-2.7,0.1
			c-2.1,0-3.9-0.5-5.5-1.4c-1.6-0.9-3-2.3-4.2-4.1s-2-4-2.6-6.5c-0.6-2.6-0.9-5.5-0.9-8.7c0-3.1,0.3-6,0.8-8.6
			c0.5-2.6,1.3-4.8,2.2-6.6c1-1.8,2.2-3.3,3.7-4.3c1.5-1,3.1-1.5,5.1-1.5c2,0,3.7,0.5,5.1,1.4c1.4,0.9,2.6,2.2,3.5,4s1.6,3.9,2,6.4
			c0.4,2.5,0.6,5.4,0.6,8.6v1.1h-17.7c0.1,3.1,0.4,5.7,0.7,7.9c0.4,2.1,0.9,3.9,1.6,5.2s1.6,2.3,2.7,2.9
			C241.5,38.1,242.8,38.3,244.2,38.3z M248.1,18c0-1.1-0.1-2.3-0.2-3.5c-0.1-1.2-0.2-2.3-0.4-3.4c-0.2-1.1-0.4-2.1-0.7-3.1
			c-0.3-1-0.6-1.8-1.1-2.5c-0.4-0.7-1-1.3-1.6-1.7s-1.4-0.6-2.3-0.6c-1.2,0-2.1,0.4-2.9,1.3c-0.8,0.9-1.4,2-1.9,3.4
			c-0.5,1.4-0.8,3-1.1,4.7s-0.4,3.5-0.5,5.3H248.1z"/>
	</g>
	<path id="XMLID_26_" class="st0" d="M278.7,0.7c2.1,0,4,0.3,5.7,1s3.2,1.7,4.5,3.3s2.2,3.6,2.9,6.2s1,5.8,1,9.6
		c0,3.9-0.3,7.1-1,9.7c-0.7,2.6-1.7,4.7-2.9,6.2s-2.7,2.7-4.5,3.3s-3.7,1-5.8,1h-9.1c0.1-1.7,0.2-3.4,0.3-5.1
		c0.1-1.7,0.1-3.5,0.2-5.2s0.1-3.4,0.1-5.1c0-1.7,0-3.2,0-4.7c0-1.5,0-3.1,0-4.7c0-1.7,0-3.3-0.1-5.1c0-1.7-0.1-3.4-0.2-5.2
		c-0.1-1.7-0.2-3.4-0.3-5.1H278.7z M274.8,4.1c-0.1,2.9-0.2,5.8-0.3,8.7c0,2.9-0.1,5.6-0.1,8.1s0,5.2,0.1,8.1s0.1,5.8,0.3,8.7h3.9
		c0.8,0,1.6-0.1,2.4-0.3c0.8-0.2,1.5-0.5,2.1-1s1.3-1.1,1.8-1.9c0.5-0.8,1-1.8,1.4-3.1c0.4-1.2,0.7-2.7,0.9-4.5s0.3-3.8,0.3-6.1
		c0-2.3-0.1-4.4-0.3-6.1s-0.5-3.2-0.9-4.5c-0.4-1.2-0.8-2.3-1.4-3.1c-0.5-0.8-1.1-1.4-1.8-1.9s-1.4-0.8-2.1-1
		c-0.8-0.2-1.6-0.3-2.4-0.3H274.8z"/>
	<path id="XMLID_29_" class="st0" d="M325.9,35.6c-1.3,3.4-2.8,6.1-4.4,8.3c-1.6,2.2-3.2,3.9-4.9,5c-1.7,1.2-3.4,1.8-5.2,2
		c-1.7,0.2-3.4-0.1-5.1-0.7c-1.7-0.7-3.1-1.7-4.2-3c-1.1-1.3-1.9-3-2.3-5c-0.4-2-0.4-4.4-0.1-7c0.4-2.7,1.2-5.7,2.6-9.1
		c1.3-3.3,2.8-6.1,4.4-8.3c1.6-2.2,3.2-3.9,4.9-5c1.7-1.2,3.4-1.8,5.2-2c1.7-0.2,3.4,0.1,5.1,0.7c1.6,0.7,3,1.7,4.2,3s1.9,3,2.3,5
		c0.4,2,0.4,4.4,0.1,7C328.1,29.2,327.2,32.2,325.9,35.6z M321.2,33.7c1.1-2.8,1.9-5.3,2.4-7.4c0.5-2.2,0.6-4,0.5-5.6
		c-0.1-1.6-0.5-2.8-1.1-3.8s-1.4-1.7-2.4-2.1c-1-0.4-2.1-0.5-3.2-0.2c-1.1,0.3-2.3,0.9-3.4,2c-1.2,1.1-2.3,2.5-3.5,4.4
		c-1.2,1.9-2.3,4.2-3.4,7c-1.1,2.8-1.9,5.3-2.4,7.5c-0.5,2.2-0.6,4-0.5,5.6c0.1,1.6,0.5,2.8,1.1,3.8s1.4,1.7,2.4,2.1
		c1,0.4,2.1,0.5,3.2,0.2c1.1-0.3,2.2-0.9,3.4-2c1.2-1,2.3-2.5,3.5-4.4C318.9,38.8,320.1,36.5,321.2,33.7z"/>
	<path id="XMLID_32_" class="st0" d="M352.2,52.4c-1.6,0.6-3.4,1.2-5.4,1.8s-3.9,1.3-5.9,2c-2,0.7-4,1.4-6,2.1c-2,0.7-3.9,1.3-5.6,2
		c-1.8,0.6-3.4,1.2-4.8,1.7c-1.5,0.5-2.7,1-3.6,1.3l-3.1-6.2c1.2-0.8,2.6-1.8,4.2-2.9c1.6-1.1,3.3-2.3,5.1-3.6s3.7-2.6,5.7-4.1
		c2-1.4,4-2.9,6-4.4c2-1.5,4-3.1,6.1-4.6c2-1.6,4-3.1,5.9-4.7l2.5,5.1c-4.9,3.3-9.7,6.5-14.5,9.7c-4.7,3.2-9.4,6.5-14.1,9.9l0.2,0.4
		c2.7-0.9,5.5-1.7,8.2-2.6c2.7-0.9,5.4-1.8,8.2-2.8c2.7-1,5.5-1.9,8.2-2.9c2.7-1,5.5-1.9,8.3-2.9l2.7,5.4c-4.9,3.2-9.8,6.5-14.6,9.6
		c-4.8,3.2-9.5,6.4-14.2,9.7l0.2,0.4c5.5-1.7,11-3.5,16.4-5.3c5.4-1.8,10.9-3.7,16.5-5.7l2.5,5.1c-2.4,0.6-4.8,1.2-7.2,1.9
		c-2.5,0.7-4.9,1.3-7.3,2c-2.4,0.7-4.8,1.4-7.2,2.1c-2.3,0.7-4.6,1.4-6.7,2.1c-2.1,0.7-4.1,1.3-5.9,1.9c-1.8,0.6-3.4,1.1-4.8,1.6
		l-3.1-6.2c0.9-0.5,1.9-1.2,3.2-2.1c1.3-0.8,2.7-1.8,4.3-2.8c1.6-1,3.2-2.1,5-3.3c1.7-1.2,3.5-2.3,5.2-3.5c1.8-1.2,3.5-2.3,5.2-3.5
		c1.7-1.1,3.3-2.2,4.7-3.2L352.2,52.4z"/>
	<path id="XMLID_34_" class="st0" d="M346.4,101.7c3,0,5.7-0.1,8-0.2c2.3-0.1,4.2-0.3,5.7-0.6s2.6-0.7,3.4-1.2
		c0.7-0.5,1.1-1.3,1.1-2.3c0-0.5-0.2-1.1-0.5-1.8c-0.3-0.7-0.8-1.4-1.3-2.2s-1.2-1.5-1.9-2.1c-0.7-0.7-1.4-1.2-2.1-1.7
		c-3.9-0.1-7.8-0.2-11.7-0.2c-1.8,0-3.5,0-5.2,0c-1.6,0-3.3,0.1-4.8,0.1c-1.6,0-3.2,0.1-4.8,0.2c-1.6,0.1-3.3,0.2-5,0.3l0-5.4
		c1.7,0.1,3.4,0.2,5,0.2c1.6,0.1,3.2,0.1,4.8,0.2c1.6,0,3.2,0.1,4.8,0.1c1.6,0,3.4,0,5.2,0s3.6,0,5.3,0c1.7,0,3.4-0.1,5.1-0.1
		s3.3-0.1,5-0.2s3.4-0.2,5.1-0.3l0,5.4l-4.5-0.3c0.7,0.6,1.4,1.2,2,2c0.6,0.7,1.2,1.5,1.7,2.3c0.5,0.8,0.9,1.6,1.2,2.4
		c0.3,0.8,0.4,1.6,0.4,2.4c0,2.3-0.9,4.1-2.8,5.4c-1.8,1.3-4.6,1.9-8.2,1.9c-0.9,0-1.9,0-2.9,0c-1,0-2,0-3,0c-1,0-1.9,0-2.7,0
		c-0.8,0-1.5,0-2.1,0c-1.8,0-3.5,0-5.1,0c-1.6,0-3.1,0.1-4.7,0.1s-3.1,0.1-4.6,0.2c-1.5,0.1-3.2,0.2-4.9,0.3l0-5.4
		c1.7,0.1,3.4,0.2,4.9,0.3c1.5,0.1,3.1,0.1,4.6,0.2c1.5,0.1,3.1,0.1,4.7,0.1C342.9,101.8,344.6,101.8,346.4,101.7z"/>
</g>
</svg>
