<svg id="Слой_1" data-name="Слой 1" xmlns="http://www.w3.org/2000/svg" viewBox="0 0 60 60"><defs><style>.cls-1{fill:none;stroke:#15173f;stroke-linecap:round;stroke-linejoin:round;stroke-width:1.15px;}</style></defs><title>aircraft</title><polyline class="cls-1" points="39.01 38.56 37.05 42.83 27.04 42.83 25.48 38.1"/><path class="cls-1" d="M52.71,30.68s0-3.94-19.41-3.94S6.06,30.68,6.06,30.68"/><polyline class="cls-1" points="17.41 24.89 15.14 22.13 9.81 22.13 9.81 27.86"/><path class="cls-1" d="M33.3,22.79c-19.41,0-27.24,7.89-27.24,7.89s7.83,7.89,27.24,7.89,19.41-7.89,19.41-7.89S52.71,22.79,33.3,22.79Z"/><polyline class="cls-1" points="17.41 36.46 15.14 39.22 9.81 39.22 9.81 33.63"/><line class="cls-1" x1="18.89" y1="42.83" x2="13.57" y2="42.83"/><line class="cls-1" x1="10.44" y1="42.83" x2="9.81" y2="42.83"/><line class="cls-1" x1="24.53" y1="19.51" x2="19.21" y2="19.51"/><line class="cls-1" x1="29.54" y1="19.51" x2="27.35" y2="19.51"/></svg>