<svg id="Слой_1" data-name="Слой 1" xmlns="http://www.w3.org/2000/svg" viewBox="0 0 60 60"><defs><style>.cls-1{fill:none;stroke:#15173f;stroke-linecap:round;stroke-linejoin:round;stroke-width:1.15px;}</style></defs><title>anchor</title><path class="cls-1" d="M48,26.44a18.07,18.07,0,1,1-36.13,0"/><line class="cls-1" x1="29.9" y1="14.27" x2="29.9" y2="8.37"/><line class="cls-1" x1="29.9" y1="44.51" x2="29.9" y2="20.17"/><line class="cls-1" x1="33.22" y1="8.37" x2="26.58" y2="8.37"/><line class="cls-1" x1="43.89" y1="30.82" x2="48.17" y2="25.76"/><line class="cls-1" x1="50.89" y1="31.6" x2="48.17" y2="25.76"/><line class="cls-1" x1="16.29" y1="30.82" x2="12.01" y2="25.76"/><line class="cls-1" x1="9.29" y1="31.6" x2="12.01" y2="25.76"/><circle class="cls-1" cx="29.9" cy="17.22" r="2.95"/><path class="cls-1" d="M43.9,50.78c-2.82,0-2.82-2.21-5.64-2.21s-2.82,2.21-5.64,2.21S29.81,48.57,27,48.57s-2.82,2.21-5.64,2.21-2.82-2.21-5.64-2.21"/></svg>