<svg id="Слой_1" data-name="Слой 1" xmlns="http://www.w3.org/2000/svg" viewBox="0 0 60 60"><defs><style>.cls-1{fill:none;stroke:#15173f;stroke-linecap:round;stroke-linejoin:round;stroke-width:1.15px;}</style></defs><title>bycicle</title><ellipse class="cls-1" cx="16.85" cy="40.39" rx="8.92" ry="8.94"/><path class="cls-1" d="M31.93,40.39H29.77a13,13,0,0,0-6.5-11.24,2.34,2.34,0,0,1-.7-3.47l4.89-6.32a2.32,2.32,0,0,1,3.22-.44l3,2.24a13,13,0,0,0,7.77,2.57h4.62"/><ellipse class="cls-1" cx="45.47" cy="40.39" rx="8.92" ry="8.94"/><line class="cls-1" x1="45.47" y1="40.39" x2="42.08" y2="26.82"/><ellipse class="cls-1" cx="16.85" cy="40.39" rx="1.85" ry="1.85"/><ellipse class="cls-1" cx="36.16" cy="15.34" rx="2.94" ry="2.94"/><line class="cls-1" x1="32.26" y1="24.1" x2="26.71" y2="30.77"/><line class="cls-1" x1="10.06" y1="26.88" x2="15.09" y2="26.88"/><line class="cls-1" x1="15.09" y1="21.05" x2="20.12" y2="21.05"/><line class="cls-1" x1="7.73" y1="21.05" x2="9.28" y2="21.05"/><line class="cls-1" x1="23.61" y1="14.83" x2="13.54" y2="14.83"/></svg>