<svg id="Слой_1" data-name="Слой 1" xmlns="http://www.w3.org/2000/svg" viewBox="0 0 60 60"><defs><style>.cls-1{fill:none;stroke:#15173f;stroke-linecap:round;stroke-linejoin:round;stroke-width:1.15px;}</style></defs><title>cafe</title><polyline class="cls-1" points="24.91 46.04 24.91 33.59 18.34 33.59 18.34 46.04"/><path class="cls-1" d="M22.71,23.48s0,.05,0,.08,0-.06,0-.08Z"/><path class="cls-1" d="M14.78,23.48v.08s0-.06,0-.08Z"/><path class="cls-1" d="M30.65,23.48s0,.05,0,.08,0-.06,0-.08Z"/><path class="cls-1" d="M46.53,23.57v-.08h0S46.53,23.54,46.53,23.57Z"/><path class="cls-1" d="M38.59,23.48s0,.05,0,.08,0-.06,0-.08Z"/><polyline class="cls-1" points="46.53 23.48 46.53 46.04 14.78 46.04 14.78 23.48"/><path class="cls-1" d="M46.53,15.52H14.78v8h0s0,.05,0,.08a4,4,0,1,0,7.94,0s0-.06,0-.08h0s0,.05,0,.08a4,4,0,1,0,7.94,0s0-.06,0-.08h0s0,.05,0,.08a4,4,0,1,0,7.94,0s0-.06,0-.08h0s0,.05,0,.08a4,4,0,1,0,7.94,0s0-.06,0-.08h0Z"/><rect class="cls-1" x="27.86" y="33.6" width="15.1" height="7.82"/><line class="cls-1" x1="49.96" y1="46.04" x2="11.86" y2="46.04"/></svg>