<svg id="Слой_1" data-name="Слой 1" xmlns="http://www.w3.org/2000/svg" viewBox="0 0 60 60"><defs><style>.cls-1{fill:none;stroke:#15173f;stroke-linecap:round;stroke-linejoin:round;stroke-width:1.15px;}</style></defs><title>campfire</title><path class="cls-1" d="M30.23,6.44S42.51,18.2,40,28.51c-2.45,10.14-17.11,10.14-19.57,0C18,18.2,30.23,6.44,30.23,6.44"/><path class="cls-1" d="M30.23,19.91s4.32,4.14,3.44,7.76a3.55,3.55,0,0,1-6.88,0c-.88-3.63,3.44-7.76,3.44-7.76"/><polyline class="cls-1" points="30.23 42.59 47.82 37.21 49.25 41.89 38.66 45.13"/><polyline class="cls-1" points="30.2 47.71 12.57 53.09 11.15 48.41 21.9 45.13"/><rect class="cls-1" x="11.02" y="42.71" width="38.35" height="4.89" transform="translate(45.89 97.16) rotate(-163.02)"/></svg>