<svg id="Слой_1" data-name="Слой 1" xmlns="http://www.w3.org/2000/svg" viewBox="0 0 60 60"><defs><style>.cls-1{fill:none;stroke:#15173f;stroke-linecap:round;stroke-linejoin:round;stroke-width:1.15px;}</style></defs><title>car</title><line class="cls-1" x1="28.12" y1="17.95" x2="28.12" y2="42.85"/><ellipse class="cls-1" cx="16.53" cy="42.85" rx="4.25" ry="4.2"/><ellipse class="cls-1" cx="43.97" cy="42.85" rx="4.25" ry="4.2"/><path class="cls-1" d="M48.22,42.85H51.8a1.22,1.22,0,0,0,1.2-1l.62-2.84a3.54,3.54,0,0,0-2.91-4.24l-11-1.66L37.8,28.63a5,5,0,0,0-4.58-2.92H14.35a5.79,5.79,0,0,0-5.43,3.74l-.73,2a17.88,17.88,0,0,0-1.13,6.27V41.1a1.76,1.76,0,0,0,1.77,1.75h3.46"/><line class="cls-1" x1="20.77" y1="42.85" x2="39.72" y2="42.85"/><rect class="cls-1" x="23.06" y="17.95" width="10.27" height="5.17"/><rect class="cls-1" x="12.28" y="14.4" width="7.51" height="8.73"/></svg>