<svg id="Слой_1" data-name="Слой 1" xmlns="http://www.w3.org/2000/svg" viewBox="0 0 60 60"><defs><style>.cls-1{fill:none;stroke:#15173f;stroke-linecap:round;stroke-linejoin:round;stroke-width:1.15px;}</style></defs><title>customs</title><line class="cls-1" x1="28.03" y1="37.09" x2="20.78" y2="48.33"/><path class="cls-1" d="M17.1,31.06s.86,3.56-1.72,5.08S8.5,39.69,8.07,42.74a20.27,20.27,0,0,0,0,5.59"/><path class="cls-1" d="M13.73,19.35c0,4.46,1.12,12.82,7.28,12.82"/><path class="cls-1" d="M24.65,31.06s-.86,3.56,1.72,5.08,6.88,3.56,7.31,6.61a20.27,20.27,0,0,1,0,5.59"/><path class="cls-1" d="M28,19.35c0,4.46-1.12,12.82-7.28,12.82"/><path class="cls-1" d="M23.24,27.47a5.43,5.43,0,0,1-4.48,0"/><path class="cls-1" d="M20.77,9.45c2.56,0,3.76,2.64,6.62,3.52s3.91,1,4.07,1.91-1.81,1.76-2.11,2.49a1.94,1.94,0,0,0-.07.21,1.72,1.72,0,0,1-1.43,1.2,53.27,53.27,0,0,1-7.08.64h0a53.27,53.27,0,0,1-7.08-.64,1.72,1.72,0,0,1-1.43-1.2,1.94,1.94,0,0,0-.07-.21c-.3-.73-2.26-1.61-2.11-2.49s1.2-1,4.07-1.91,4.07-3.52,6.62-3.52Z"/><path class="cls-1" d="M13.7,18.84s1.2,3.81,7.08,3.81,7.08-3.81,7.08-3.81"/><rect class="cls-1" x="38.67" y="44.2" width="14.51" height="4.14"/><path class="cls-1" d="M53.44,38.67l-5-4.92a3.76,3.76,0,0,0-5.27,0l-.33.32L53.11,44.2l.33-.32A3.65,3.65,0,0,0,53.44,38.67Z"/></svg>