<svg id="Слой_1" data-name="Слой 1" xmlns="http://www.w3.org/2000/svg" viewBox="0 0 60 60"><defs><style>.cls-1{fill:none;stroke:#15173f;stroke-linecap:round;stroke-linejoin:round;stroke-width:1.15px;}</style></defs><title>diving</title><polygon class="cls-1" points="44.8 18.96 49.28 18.97 49.36 10.24 44.75 10.23 44.8 18.96"/><path class="cls-1" d="M24.06,30.32a1.75,1.75,0,0,1,2.35.1,6.32,6.32,0,0,0,4.48,1.45c6.44,0,7.82-5.07,8.06-8.15A2.07,2.07,0,0,0,37,21.39H13.51a2.09,2.09,0,0,0-1.91,2.53c.5,3.1,2.08,7.95,7,7.95C21.49,31.87,23.13,31.12,24.06,30.32Z"/><path class="cls-1" d="M28.39,28.43c-1-.66-2.08-1.59-3.12-1.59s-1.91.78-2.87,1.42"/><path class="cls-1" d="M10.34,39.59c1.75,0,1.75,1.1,3.5,1.1s1.75-1.1,3.5-1.1,1.75,1.1,3.5,1.1,1.75-1.1,3.5-1.1"/><path class="cls-1" d="M35.62,42.75a4.41,4.41,0,0,0,4.43,4.42,4.49,4.49,0,0,0,4.52-4.4l.31-32.55h4.48l-.31,32.55a9,9,0,0,1-9,8.8,8.83,8.83,0,0,1-8.87-8.85"/><path class="cls-1" d="M38.89,37.93a5.32,5.32,0,0,1-5.37,5.23,5.23,5.23,0,0,1-5.27-5.25"/></svg>