<svg id="Слой_1" data-name="Слой 1" xmlns="http://www.w3.org/2000/svg" viewBox="0 0 60 60"><defs><style>.cls-1{fill:none;stroke:#15173f;stroke-linecap:round;stroke-linejoin:round;stroke-width:1.15px;}</style></defs><title>do_not_disturb</title><path class="cls-1" d="M27.59,24.26a5.64,5.64,0,0,1-4-5.6,6.21,6.21,0,0,1,5.6-6.32,6.11,6.11,0,0,1,6.62,6.09h0a2.37,2.37,0,0,0,2.37,2.37h1.65a2.37,2.37,0,0,0,2.37-2.37v-.28a12.5,12.5,0,0,0-12.5-12.5h0a12.5,12.5,0,0,0-12.5,12.5V52.31h25V33.41c0-3.44-3.88-4.5-9.38-7.19A39.9,39.9,0,0,0,27.59,24.26Z"/><circle class="cls-1" cx="29.68" cy="38.42" r="6.94"/><line class="cls-1" x1="29.68" y1="38.42" x2="33.29" y2="38.42"/><line class="cls-1" x1="26.07" y1="38.42" x2="29.68" y2="38.42"/></svg>