<?xml version="1.0" encoding="utf-8"?>
<!-- Generator: Adobe Illustrator 19.2.1, SVG Export Plug-In . SVG Version: 6.00 Build 0)  -->
<svg version="1.1" id="Слой_1" xmlns="http://www.w3.org/2000/svg" xmlns:xlink="http://www.w3.org/1999/xlink" x="0px" y="0px"
	 viewBox="0 0 60 60" style="enable-background:new 0 0 60 60;" xml:space="preserve">
<style type="text/css">
	.st0{fill:none;stroke:#15173F;stroke-width:1.15;stroke-linecap:round;stroke-linejoin:round;}
</style>
<title>hang-glider</title>
<line class="st0" x1="33.9" y1="31.7" x2="36.7" y2="39.5"/>
<line class="st0" x1="25.3" y1="32" x2="22.6" y2="39.5"/>
<polyline class="st0" points="27.7,31.1 6.2,37.1 6.2,30.7 29.5,14.6 52.9,30.7 52.9,37.1 31.8,31.1 "/>
<ellipse class="st0" cx="29.5" cy="24.6" rx="1.4" ry="1.5"/>
<path class="st0" d="M29.5,28.8c-2,0-2.1,4.1-1.9,6.4c0.1,1.3,0.8,3.8,1.9,3.8s1.7-2.4,1.9-3.8C31.6,32.9,31.5,28.8,29.5,28.8"/>
<line class="st0" x1="47.2" y1="26.8" x2="47.2" y2="35.5"/>
<line class="st0" x1="11.8" y1="27.2" x2="11.8" y2="35.5"/>
</svg>
