<svg id="Слой_1" data-name="Слой 1" xmlns="http://www.w3.org/2000/svg" viewBox="0 0 60 60"><defs><style>.cls-1{fill:none;stroke:#15173f;stroke-linecap:round;stroke-linejoin:round;stroke-width:1.15px;}</style></defs><title>hotel</title><path class="cls-1" d="M19.06,42.93h0a2.6,2.6,0,0,1,2.6,2.6v9.06a0,0,0,0,1,0,0h-5.2a0,0,0,0,1,0,0V45.53A2.6,2.6,0,0,1,19.06,42.93Z"/><path class="cls-1" d="M39.88,42.93h0a2.6,2.6,0,0,1,2.6,2.6v9.06a0,0,0,0,1,0,0h-5.2a0,0,0,0,1,0,0V45.53A2.6,2.6,0,0,1,39.88,42.93Z"/><rect class="cls-1" x="11.79" y="14.3" width="34.99" height="40.29"/><rect class="cls-1" x="17.51" y="7.94" width="23.57" height="6.36"/><path class="cls-1" d="M29.32,42.93a4.15,4.15,0,0,0-4.11,4.19v7.48h8.22V47.11A4.15,4.15,0,0,0,29.32,42.93Z"/><line class="cls-1" x1="32.98" y1="27.22" x2="32.98" y2="29.91"/><line class="cls-1" x1="25.96" y1="29.91" x2="25.96" y2="27.22"/><line class="cls-1" x1="32.98" y1="19.6" x2="32.98" y2="22.06"/><line class="cls-1" x1="25.96" y1="22.06" x2="25.96" y2="19.6"/><line class="cls-1" x1="40" y1="29.91" x2="40" y2="27.22"/><line class="cls-1" x1="40" y1="22.06" x2="40" y2="19.6"/><line class="cls-1" x1="18.94" y1="27.22" x2="18.94" y2="29.91"/><line class="cls-1" x1="32.98" y1="35.19" x2="32.98" y2="37.87"/><line class="cls-1" x1="25.96" y1="37.87" x2="25.96" y2="35.19"/><line class="cls-1" x1="40" y1="37.87" x2="40" y2="35.19"/><line class="cls-1" x1="18.94" y1="35.19" x2="18.94" y2="37.87"/><line class="cls-1" x1="18.94" y1="19.6" x2="18.94" y2="22.06"/><line class="cls-1" x1="22.51" y1="11.12" x2="36.07" y2="11.12"/></svg>