<svg id="Слой_1" data-name="Слой 1" xmlns="http://www.w3.org/2000/svg" viewBox="0 0 60 60"><defs><style>.cls-1{fill:none;stroke:#15173f;stroke-linecap:round;stroke-linejoin:round;stroke-width:1.15px;}</style></defs><title>lighthouse</title><polygon class="cls-1" points="26.3 25.37 19.29 25.37 18.96 31.33 26.63 31.33 26.3 25.37"/><polygon class="cls-1" points="18.68 36.37 26.91 36.37 27.21 42.43 18.39 42.43 18.68 36.37"/><line class="cls-1" x1="34.61" y1="31.88" x2="41.31" y2="31.88"/><path class="cls-1" d="M37.19,31.88A4.82,4.82,0,0,1,41.7,26.8a4.5,4.5,0,0,1,4.06,2.86"/><path class="cls-1" d="M44.94,30.55a2.21,2.21,0,0,1,1.92-1.2,2.41,2.41,0,0,1,2.25,2.54"/><polyline class="cls-1" points="26.23 20.56 27.6 48.82 18 48.82 19.37 20.56"/><line class="cls-1" x1="32.06" y1="18.54" x2="39.95" y2="18.54"/><line class="cls-1" x1="32.06" y1="15.51" x2="36.18" y2="13.83"/><line class="cls-1" x1="13.54" y1="18.21" x2="5.65" y2="18.21"/><line class="cls-1" x1="13.54" y1="21.23" x2="9.42" y2="22.92"/><polyline class="cls-1" points="27.21 36.77 52.3 36.77 52.3 48.82 27.6 48.82"/><line class="cls-1" x1="48.87" y1="43.44" x2="48.87" y2="45.79"/><line class="cls-1" x1="45.44" y1="43.44" x2="45.44" y2="45.79"/><line class="cls-1" x1="42.01" y1="43.44" x2="42.01" y2="45.79"/><polygon class="cls-1" points="26.04 20.56 19.56 20.56 20.05 13.83 25.54 13.83 26.04 20.56"/><line class="cls-1" x1="28.97" y1="16.86" x2="16.62" y2="16.86"/><line class="cls-1" x1="28.97" y1="20.56" x2="16.62" y2="20.56"/></svg>