<svg id="Слой_1" data-name="Слой 1" xmlns="http://www.w3.org/2000/svg" viewBox="0 0 60 60"><defs><style>.cls-1{fill:none;stroke:#15173f;stroke-linecap:round;stroke-linejoin:round;stroke-width:1.15px;}</style></defs><title>map</title><polygon class="cls-1" points="17.23 13.57 17.23 45.06 6.58 49.14 6.58 17.65 17.23 13.57"/><polyline class="cls-1" points="38.15 45.06 27.69 49.34 27.69 17.84 38.15 13.57 38.15 45.06 48.99 49.34 48.99 33.78"/><line class="cls-1" x1="17.23" y1="45.06" x2="27.69" y2="49.34"/><line class="cls-1" x1="27.69" y1="17.84" x2="22.65" y2="15.9"/><polyline class="cls-1" points="37.76 29.12 27.88 32.81 17.23 28.73 6.58 32.81"/><path class="cls-1" d="M49,29.51a12.64,12.64,0,0,1,2.16-6.15c1-1.48,2.5-2.53,3.39-4.1a6.55,6.55,0,0,0-.52-7.62,6.74,6.74,0,0,0-5-2"/><path class="cls-1" d="M49,29.51a12.64,12.64,0,0,0-2.16-6.15c-1-1.48-2.5-2.53-3.39-4.1A6.55,6.55,0,0,1,44,11.63a6.74,6.74,0,0,1,5-2"/><ellipse class="cls-1" cx="48.99" cy="15.9" rx="1.94" ry="1.94"/></svg>