<?xml version="1.0" encoding="utf-8"?>
<!-- Generator: Adobe Illustrator 22.0.1, SVG Export Plug-In . SVG Version: 6.00 Build 0)  -->
<svg version="1.1" id="Слой_1" xmlns="http://www.w3.org/2000/svg" xmlns:xlink="http://www.w3.org/1999/xlink" x="0px" y="0px"
	 viewBox="0 0 60 60" style="enable-background:new 0 0 60 60;" xml:space="preserve">
<style type="text/css">
	.st0{fill:none;stroke:#FFFFFF;stroke-miterlimit:10;}
</style>
<title>map</title>
<polygon class="st0" points="17.2,13.6 17.2,45.1 6.6,49.1 6.6,17.6 "/>
<polyline class="st0" points="38.2,45.1 27.7,49.3 27.7,17.8 38.2,13.6 38.2,45.1 49,49.3 49,33.8 "/>
<line class="st0" x1="17.2" y1="45.1" x2="27.7" y2="49.3"/>
<line class="st0" x1="27.7" y1="17.8" x2="22.6" y2="15.9"/>
<polyline class="st0" points="37.8,29.1 27.9,32.8 17.2,28.7 6.6,32.8 "/>
<path class="st0" d="M49,29.5c0.2-2.2,0.9-4.3,2.2-6.1c1-1.5,2.5-2.5,3.4-4.1c1.5-2.4,1.3-5.5-0.5-7.6c-1.3-1.3-3.1-2.1-5-2"/>
<path class="st0" d="M49,29.5c-0.2-2.2-0.9-4.3-2.2-6.1c-1-1.5-2.5-2.5-3.4-4.1c-1.5-2.4-1.3-5.5,0.5-7.6c1.3-1.3,3.1-2.1,5-2"/>
<ellipse class="st0" cx="49" cy="15.9" rx="1.9" ry="1.9"/>
</svg>
