<svg id="Слой_1" data-name="Слой 1" xmlns="http://www.w3.org/2000/svg" viewBox="0 0 60 60"><defs><style>.cls-1{fill:none;stroke:#15173f;stroke-linecap:round;stroke-linejoin:round;stroke-width:1.15px;}</style></defs><title>police</title><path class="cls-1" d="M30,11.05c5.58,0,8.21,5.83,14.45,7.78S53,21.1,53.32,23s-3.94,3.89-4.6,5.51a4.33,4.33,0,0,0-.16.47,3.78,3.78,0,0,1-3.11,2.66A114.76,114.76,0,0,1,30,33.09h0a114.76,114.76,0,0,1-15.45-1.41A3.78,3.78,0,0,1,11.46,29a4.33,4.33,0,0,0-.16-.47C10.64,26.93,6.37,25,6.7,23s2.63-2.27,8.87-4.21S24.43,11.05,30,11.05Z"/><path class="cls-1" d="M30,18.83a8.38,8.38,0,0,0-4.6,1.3s.26,6.48,4.6,8.42"/><path class="cls-1" d="M30,18.83a8.38,8.38,0,0,1,4.6,1.3s-.26,6.48-4.6,8.42"/><path class="cls-1" d="M14.58,31.79S17.21,40.21,30,40.21s15.44-8.42,15.44-8.42"/><path class="cls-1" d="M36.32,45.08c0,2.68-2.82,4.85-6.31,4.85s-6.31-2.17-6.31-4.85"/></svg>