<svg id="Слой_1" data-name="Слой 1" xmlns="http://www.w3.org/2000/svg" viewBox="0 0 60 60"><defs><style>.cls-1{fill:none;stroke:#15173f;stroke-linecap:round;stroke-linejoin:round;stroke-width:1.15px;}</style></defs><title>pool</title><path class="cls-1" d="M45.37,47.72c-2.75,0-2.75-2.19-5.51-2.19s-2.75,2.19-5.51,2.19-2.75-2.19-5.51-2.19-2.75,2.19-5.51,2.19-2.75-2.19-5.51-2.19"/><line class="cls-1" x1="9.62" y1="29.37" x2="48.11" y2="29.37"/><path class="cls-1" d="M36.12,41.6V16.67a3.22,3.22,0,0,1,3.23-3.21h0a3.22,3.22,0,0,1,3.23,3.21V29.22"/><path class="cls-1" d="M24.45,41.6V16.67a3.22,3.22,0,0,1,3.23-3.21h0a3.22,3.22,0,0,1,3.23,3.21V29.22"/><line class="cls-1" x1="36.12" y1="33.34" x2="24.45" y2="33.34"/><line class="cls-1" x1="36.12" y1="37.32" x2="24.45" y2="37.32"/></svg>