<svg id="Слой_1" data-name="Слой 1" xmlns="http://www.w3.org/2000/svg" viewBox="0 0 60 60"><defs><style>.cls-1{fill:none;stroke:#15173f;stroke-linecap:round;stroke-linejoin:round;stroke-width:1.15px;}</style></defs><title>quadcopter</title><path class="cls-1" d="M30.41,48.37H41.8c3.07,0,5.3-3.32,4.46-6.66-1-3.91-2.9-8.72-6.64-12"/><path class="cls-1" d="M30.41,48.37H19c-3.07,0-5.3-3.32-4.46-6.66,1-3.91,2.9-8.72,6.64-12"/><path class="cls-1" d="M14.4,29.4c3.89,0,4.76-.45,8.65.89S26.51,33,30.41,33s3.46-1.34,7.36-2.68,4.76-.89,8.65-.89V25.3c-3.89,0-4.76.45-8.65-.89s-3.46-2.68-7.36-2.68-3.46,1.34-7.36,2.68-4.76.89-8.65.89"/><path class="cls-1" d="M47.28,21.28H52a0,0,0,0,1,0,0v9.56A2.07,2.07,0,0,1,50,32.9h-.62a2.07,2.07,0,0,1-2.07-2.07V21.28a0,0,0,0,1,0,0Z"/><path class="cls-1" d="M9.64,21.28H14.4a0,0,0,0,1,0,0v9.56a2.07,2.07,0,0,1-2.07,2.07h-.62a2.07,2.07,0,0,1-2.07-2.07V21.28A0,0,0,0,1,9.64,21.28Z"/><polyline class="cls-1" points="4.01 17.7 11.8 17.7 12.23 17.7 20.02 17.7"/><polyline class="cls-1" points="41.66 17.7 49.45 17.7 49.88 17.7 57.67 17.7"/><rect class="cls-1" x="26.17" y="35.93" width="8.55" height="8.55" rx="2.04" ry="2.04"/><circle class="cls-1" cx="30.45" cy="40.2" r="1.56"/></svg>