<svg id="Слой_1" data-name="Слой 1" xmlns="http://www.w3.org/2000/svg" viewBox="0 0 60 60"><defs><style>.cls-1{fill:none;stroke:#15173f;stroke-linecap:round;stroke-linejoin:round;stroke-width:1.15px;}</style></defs><title>trailer</title><line class="cls-1" x1="37.13" y1="19.48" x2="33.98" y2="13.17"/><rect class="cls-1" x="6.03" y="30.56" width="3.89" height="8.14" rx="1.94" ry="1.94"/><polyline class="cls-1" points="43.52 45.32 52.68 45.32 52.68 42.79"/><ellipse class="cls-1" cx="23.52" cy="45.32" rx="4.44" ry="4.49"/><path class="cls-1" d="M43.47,19.48H15.24a5.35,5.35,0,0,0-5.32,5.38V39.94a5.35,5.35,0,0,0,5.32,5.38h0a1.44,1.44,0,0,0,1.41-1.22,6.93,6.93,0,0,1,13.68,0,1.44,1.44,0,0,0,1.41,1.22H43.47a5.35,5.35,0,0,0,5.32-5.38V24.87A5.35,5.35,0,0,0,43.47,19.48Z"/><rect class="cls-1" x="32.13" y="26.22" width="10" height="6.18"/><rect class="cls-1" x="18.52" y="26.22" width="10" height="6.18"/><line class="cls-1" x1="18.52" y1="19.48" x2="39.46" y2="10.93"/><line class="cls-1" x1="42.19" y1="36.59" x2="39.46" y2="36.59"/></svg>